<svg version="1.1" id="Layer_1" xmlns="http://www.w3.org/2000/svg" xmlns:xlink="http://www.w3.org/1999/xlink" x="0px" y="0px"
	 width="100%" viewBox="0 0 720 627" enable-background="new 0 0 720 627" xml:space="preserve">
<path fill="#FFFEFF" opacity="1.000000" stroke="none" 
	d="
M1.000000,221.000000 
	C1.000000,147.745590 1.000000,74.491173 1.000000,1.000000 
	C61.355770,1.000000 121.711853,1.000000 182.648193,1.387653 
	C182.382996,4.588542 181.537521,7.401777 181.003357,9.179147 
	C172.738739,8.067700 165.070557,6.737135 157.345810,6.148486 
	C154.356506,5.920691 150.974777,6.855829 148.270004,8.236851 
	C146.364243,9.209906 144.232483,11.787935 144.158615,13.724037 
	C144.085052,15.651960 146.024338,18.405027 147.854111,19.478077 
	C150.459030,21.005705 153.733673,21.855513 156.786026,22.064936 
	C164.522934,22.595768 170.269363,26.173750 173.359940,33.035427 
	C175.691345,38.211613 176.845795,43.917927 178.942978,50.753582 
	C171.056580,49.860748 164.710876,49.142342 157.510864,48.327217 
	C158.709061,57.353970 159.580704,66.437965 161.188370,75.389763 
	C163.160782,86.372452 165.894623,97.212601 171.996414,106.800385 
	C179.949036,119.296410 193.408585,122.250793 204.919067,113.962715 
	C205.512100,114.728325 206.142014,115.478874 206.703796,116.277359 
	C209.522430,120.283615 211.607300,120.561440 215.089828,117.301926 
	C224.600311,108.400482 231.705795,98.266121 232.237122,84.609253 
	C232.398407,80.463371 233.267273,76.346161 233.451508,72.199806 
	C234.080185,58.050686 231.652481,44.604408 224.101761,32.376434 
	C221.980682,35.157394 220.050171,37.688511 217.735382,40.723469 
	C216.249634,36.756084 215.174026,33.791824 214.032700,30.853094 
	C210.224380,21.047390 204.978531,12.268696 195.864578,6.449515 
	C192.704742,4.431987 189.295380,2.805240 186.000000,1.000002 
	C364.230438,1.000000 542.460876,1.000000 721.000000,1.000000 
	C721.000000,72.022346 721.000000,143.045135 720.645142,214.340714 
	C719.884644,211.985367 719.468933,209.358765 719.074890,206.728928 
	C711.717834,157.634781 669.513672,119.073044 625.935608,116.277374 
	C596.776062,114.406715 569.218933,118.036087 543.930908,133.649780 
	C541.188049,135.343323 540.017639,137.033325 540.084290,140.330780 
	C540.370422,154.483047 540.372375,168.641220 540.453125,182.797379 
	C540.486755,188.692947 540.458679,194.588837 540.458679,201.562454 
	C542.894958,199.735733 544.181702,198.764542 545.475403,197.802734 
	C546.944641,196.710419 548.376099,195.560013 549.899719,194.549072 
	C566.648865,183.435715 584.639465,174.591705 605.107483,179.220154 
	C642.614990,187.701736 656.338623,209.619247 654.718689,240.011963 
	C653.173767,268.995453 644.143188,295.674347 629.574707,320.664734 
	C606.176270,360.801819 576.362915,395.851196 544.099854,428.968842 
	C541.866089,431.261780 540.730713,433.459656 540.754700,436.767029 
	C540.908325,457.924347 540.831909,479.083282 540.845337,500.241699 
	C540.846191,501.640259 540.963501,503.038757 541.040894,504.753937 
	C541.961975,504.266907 542.412476,504.100006 542.780945,503.823792 
	C594.212769,465.269348 639.473877,420.759888 674.512939,366.513092 
	C694.507141,335.558624 710.032471,302.608643 717.480347,266.238800 
	C718.656860,260.493225 719.826965,254.746307 721.000000,249.000000 
	C721.000000,375.296326 721.000000,501.592651 721.000000,627.944458 
	C481.107330,627.944458 241.214645,627.944458 1.000000,627.944458 
	C1.000000,503.644226 1.000000,379.288147 1.369890,254.623108 
	C3.343944,261.961548 4.572247,269.711212 6.619091,277.238281 
	C14.366269,305.727631 28.849356,330.839905 45.785072,354.742767 
	C81.406364,405.018158 119.981262,452.728088 166.348999,493.640594 
	C177.296341,503.299957 188.886093,512.231201 200.024323,521.369385 
	C201.349243,520.523376 201.930679,520.200317 202.460129,519.807251 
	C276.495300,464.839874 334.633575,396.712738 375.072876,313.493195 
	C396.372742,269.660431 397.763062,225.160721 382.842529,179.668335 
	C373.069733,149.871384 353.955627,128.348755 323.766083,117.717476 
	C307.432098,111.965439 290.749512,112.487770 273.945190,114.958588 
	C251.981247,118.188057 231.630447,126.033218 211.556290,136.250412 
	C224.190292,154.837219 236.587570,173.075775 248.203384,190.164658 
	C259.476593,187.185547 269.713409,182.888626 280.233734,182.018143 
	C305.252625,179.948044 323.344299,190.979507 327.449768,217.002716 
	C330.403809,235.727478 328.728516,254.250519 325.242462,272.598328 
	C321.641479,291.551086 311.795013,307.942139 301.801392,324.082458 
	C280.880219,357.871460 256.106567,388.795227 230.391403,418.987305 
	C221.454620,429.479980 212.252869,439.746918 203.013657,450.297943 
	C197.666794,444.953644 192.583206,440.179993 187.843826,435.086090 
	C153.840073,398.538879 123.999031,358.744720 95.881409,317.569336 
	C83.616623,299.608765 72.969292,281.008881 66.274231,260.169739 
	C57.775490,233.716446 62.596935,210.318863 80.933472,189.590485 
	C86.247330,183.583466 92.646858,178.852692 100.470116,177.222458 
	C132.130081,170.625015 160.275497,178.762817 177.816483,209.312378 
	C192.224426,234.405472 205.794540,259.978546 219.987442,285.197388 
	C222.212418,289.150818 225.328293,292.879974 228.795807,295.808807 
	C243.356079,308.107117 253.829544,304.622253 259.106323,286.373260 
	C264.636230,267.248718 261.365814,249.187775 253.393875,231.525864 
	C239.831528,201.478317 220.431519,175.320343 199.104172,150.509979 
	C177.284821,125.127243 149.230148,113.327957 115.988953,114.925316 
	C59.447132,117.642357 14.939804,156.157974 3.309009,211.617920 
	C2.648359,214.768143 1.774584,217.873672 1.000000,221.000000 
M403.920105,284.590118 
	C403.234863,283.765289 402.549622,282.940430 401.843689,282.090668 
	C398.134125,292.062866 395.040466,301.914612 390.832123,311.264648 
	C386.543365,320.793335 381.041473,329.770447 376.382690,339.144104 
	C375.704498,340.508606 376.222260,343.062988 377.101715,344.511108 
	C383.662659,355.314423 390.025269,366.276917 397.248688,376.632446 
	C426.338135,418.335083 460.727203,455.431610 497.322235,490.565094 
	C502.637512,495.668060 508.072571,500.646210 514.163513,506.348022 
	C514.163513,482.665222 514.215454,460.183411 514.063782,437.702972 
	C514.051819,435.926147 512.925720,433.937286 511.808594,432.422150 
	C502.915283,420.359924 493.765564,408.485504 484.945068,396.371002 
	C457.997467,359.359894 431.161926,322.267181 403.920105,284.590118 
M268.918213,324.538269 
	C246.330368,321.525726 227.373688,311.462921 211.099258,295.621643 
	C199.183823,284.023315 192.354614,269.547058 186.092819,254.626816 
	C181.595062,243.909836 177.528030,232.996323 172.626083,222.469818 
	C168.819962,214.296539 163.956329,206.345322 155.611740,202.125687 
	C143.540619,196.021667 138.696518,198.654465 136.913834,210.457275 
	C132.452866,239.992203 137.029877,268.439514 147.719513,296.047150 
	C152.569305,308.572449 159.421539,319.912048 169.307617,329.214294 
	C189.298584,348.024719 213.563065,358.194946 239.880295,364.346558 
	C242.853317,365.041534 244.401581,364.320892 246.115845,362.076874 
	C254.704514,350.834045 263.429077,339.695068 272.086670,328.504761 
	C272.830536,327.543243 273.433990,326.473083 274.292816,325.163422 
	C272.388916,324.961029 271.068909,324.820709 268.918213,324.538269 
M487.499207,186.921997 
	C496.445557,191.356537 505.391907,195.791061 514.544861,200.328003 
	C514.544861,184.962418 514.594849,169.646988 514.521118,154.332153 
	C514.489990,147.872101 516.553284,139.722168 513.434082,135.377731 
	C509.446625,129.823959 501.417786,126.857491 494.725403,123.611374 
	C453.223572,103.481102 410.441681,118.962463 387.203796,143.282211 
	C384.781952,145.816788 384.494263,147.929581 385.629517,151.175995 
	C390.015228,163.717590 394.036896,176.386154 398.237488,188.992966 
	C400.869781,196.892883 403.579346,204.767075 406.140137,212.316467 
	C415.522003,204.501572 424.222534,196.439163 433.800201,189.606232 
	C438.898010,185.969315 445.326050,183.157318 451.484894,182.268860 
	C463.428040,180.545944 475.400543,181.994156 487.499207,186.921997 
M511.826843,369.238983 
	C512.992188,373.166016 515.996643,374.673981 519.721619,375.003906 
	C522.202332,375.223663 524.711792,375.177063 527.207703,375.156799 
	C540.661987,375.047638 544.160950,371.571136 544.163696,358.285309 
	C544.172241,317.813080 544.170471,277.340851 544.156494,236.868622 
	C544.155823,234.873413 544.466492,232.704605 543.801697,230.927277 
	C542.981079,228.733368 541.736267,225.827087 539.897583,225.036804 
	C532.202881,221.729645 524.136047,222.253952 516.691162,225.715637 
	C510.236877,228.716736 511.035461,235.318420 511.027771,241.091782 
	C510.974304,281.230835 510.989563,321.369995 511.023895,361.509094 
	C511.025879,363.820465 511.387878,366.131531 511.826843,369.238983 
M551.522705,76.005196 
	C556.768005,76.005196 562.013367,76.005196 567.212280,76.005196 
	C567.212280,66.680229 567.212280,58.089474 567.212280,48.955048 
	C558.312622,48.955048 549.756104,48.955048 540.848267,48.955048 
	C540.848267,37.805470 540.848267,27.204288 540.848267,16.576157 
	C531.773071,16.576157 523.075500,16.576157 513.976440,16.576157 
	C513.976440,27.589905 513.976440,38.187798 513.976440,49.262886 
	C505.162598,49.262886 496.750366,49.262886 488.380310,49.262886 
	C488.380310,58.470627 488.380310,67.182800 488.380310,76.317230 
	C497.183502,76.317230 505.602478,76.317230 514.317261,76.317230 
	C514.317261,91.703758 514.317261,106.658073 514.317261,121.837280 
	C523.330078,121.837280 532.024414,121.837280 541.164307,121.837280 
	C541.164307,106.430305 541.164307,91.354622 541.164307,76.005196 
	C544.582642,76.005196 547.558899,76.005196 551.522705,76.005196 
M506.299042,519.945496 
	C513.073120,534.104797 519.847229,548.264099 527.290161,563.821533 
	C535.773804,547.241760 543.571716,532.002136 551.641968,516.230225 
	C535.584106,516.230225 520.409180,516.230225 504.742798,516.230225 
	C505.258484,517.472168 505.619568,518.341675 506.299042,519.945496 
M607.635925,556.109131 
	C616.818298,558.323242 624.888794,555.660950 629.752441,548.813538 
	C634.278870,542.440613 634.519958,533.188110 630.327454,526.741211 
	C625.749084,519.701050 616.919922,516.349426 608.514709,518.460999 
	C599.951416,520.612244 594.087158,527.244812 593.426270,535.526062 
	C592.687988,544.777771 597.230103,551.694214 607.635925,556.109131 
z"/>
<path fill="#CE1544" opacity="1.000000" stroke="none" 
	d="
M1.000000,221.468658 
	C1.774584,217.873672 2.648359,214.768143 3.309009,211.617920 
	C14.939804,156.157974 59.447132,117.642357 115.988953,114.925316 
	C149.230148,113.327957 177.284821,125.127243 199.104172,150.509979 
	C220.431519,175.320343 239.831528,201.478317 253.393875,231.525864 
	C261.365814,249.187775 264.636230,267.248718 259.106323,286.373260 
	C253.829544,304.622253 243.356079,308.107117 228.795807,295.808807 
	C225.328293,292.879974 222.212418,289.150818 219.987442,285.197388 
	C205.794540,259.978546 192.224426,234.405472 177.816483,209.312378 
	C160.275497,178.762817 132.130081,170.625015 100.470116,177.222458 
	C92.646858,178.852692 86.247330,183.583466 80.933472,189.590485 
	C62.596935,210.318863 57.775490,233.716446 66.274231,260.169739 
	C72.969292,281.008881 83.616623,299.608765 95.881409,317.569336 
	C123.999031,358.744720 153.840073,398.538879 187.843826,435.086090 
	C192.583206,440.179993 197.666794,444.953644 203.013657,450.297943 
	C212.252869,439.746918 221.454620,429.479980 230.391403,418.987305 
	C256.106567,388.795227 280.880219,357.871460 301.801392,324.082458 
	C311.795013,307.942139 321.641479,291.551086 325.242462,272.598328 
	C328.728516,254.250519 330.403809,235.727478 327.449768,217.002716 
	C323.344299,190.979507 305.252625,179.948044 280.233734,182.018143 
	C269.713409,182.888626 259.476593,187.185547 248.203384,190.164658 
	C236.587570,173.075775 224.190292,154.837219 211.556290,136.250412 
	C231.630447,126.033218 251.981247,118.188057 273.945190,114.958588 
	C290.749512,112.487770 307.432098,111.965439 323.766083,117.717476 
	C353.955627,128.348755 373.069733,149.871384 382.842529,179.668335 
	C397.763062,225.160721 396.372742,269.660431 375.072876,313.493195 
	C334.633575,396.712738 276.495300,464.839874 202.460129,519.807251 
	C201.930679,520.200317 201.349243,520.523376 200.024323,521.369385 
	C188.886093,512.231201 177.296341,503.299957 166.348999,493.640594 
	C119.981262,452.728088 81.406364,405.018158 45.785072,354.742767 
	C28.849356,330.839905 14.366269,305.727631 6.619091,277.238281 
	C4.572247,269.711212 3.343944,261.961548 1.369890,254.157059 
	C1.000000,243.312439 1.000000,232.624878 1.000000,221.468658 
z"/>
<path fill="#CE1544" opacity="1.000000" stroke="none" 
	d="
M721.000000,248.531342 
	C719.826965,254.746307 718.656860,260.493225 717.480347,266.238800 
	C710.032471,302.608643 694.507141,335.558624 674.512939,366.513092 
	C639.473877,420.759888 594.212769,465.269348 542.780945,503.823792 
	C542.412476,504.100006 541.961975,504.266907 541.040894,504.753937 
	C540.963501,503.038757 540.846191,501.640259 540.845337,500.241699 
	C540.831909,479.083282 540.908325,457.924347 540.754700,436.767029 
	C540.730713,433.459656 541.866089,431.261780 544.099854,428.968842 
	C576.362915,395.851196 606.176270,360.801819 629.574707,320.664734 
	C644.143188,295.674347 653.173767,268.995453 654.718689,240.011963 
	C656.338623,209.619247 642.614990,187.701736 605.107483,179.220154 
	C584.639465,174.591705 566.648865,183.435715 549.899719,194.549072 
	C548.376099,195.560013 546.944641,196.710419 545.475403,197.802734 
	C544.181702,198.764542 542.894958,199.735733 540.458679,201.562454 
	C540.458679,194.588837 540.486755,188.692947 540.453125,182.797379 
	C540.372375,168.641220 540.370422,154.483047 540.084290,140.330780 
	C540.017639,137.033325 541.188049,135.343323 543.930908,133.649780 
	C569.218933,118.036087 596.776062,114.406715 625.935608,116.277374 
	C669.513672,119.073044 711.717834,157.634781 719.074890,206.728928 
	C719.468933,209.358765 719.884644,211.985367 720.645142,214.806747 
	C721.000000,226.020889 721.000000,237.041794 721.000000,248.531342 
z"/>
<path fill="#CE1644" opacity="1.000000" stroke="none" 
	d="
M185.625000,1.000002 
	C189.295380,2.805240 192.704742,4.431987 195.864578,6.449515 
	C204.978531,12.268696 210.224380,21.047390 214.032700,30.853094 
	C215.174026,33.791824 216.249634,36.756084 217.735382,40.723469 
	C220.050171,37.688511 221.980682,35.157394 224.101761,32.376434 
	C231.652481,44.604408 234.080185,58.050686 233.451508,72.199806 
	C233.267273,76.346161 232.398407,80.463371 232.237122,84.609253 
	C231.705795,98.266121 224.600311,108.400482 215.089828,117.301926 
	C211.607300,120.561440 209.522430,120.283615 206.703796,116.277359 
	C206.142014,115.478874 205.512100,114.728325 204.919067,113.962715 
	C193.408585,122.250793 179.949036,119.296410 171.996414,106.800385 
	C165.894623,97.212601 163.160782,86.372452 161.188370,75.389763 
	C159.580704,66.437965 158.709061,57.353970 157.510864,48.327217 
	C164.710876,49.142342 171.056580,49.860748 178.942978,50.753582 
	C176.845795,43.917927 175.691345,38.211613 173.359940,33.035427 
	C170.269363,26.173750 164.522934,22.595768 156.786026,22.064936 
	C153.733673,21.855513 150.459030,21.005705 147.854111,19.478077 
	C146.024338,18.405027 144.085052,15.651960 144.158615,13.724037 
	C144.232483,11.787935 146.364243,9.209906 148.270004,8.236851 
	C150.974777,6.855829 154.356506,5.920691 157.345810,6.148486 
	C165.070557,6.737135 172.738739,8.067700 181.003357,9.179147 
	C181.537521,7.401777 182.382996,4.588542 183.114227,1.387653 
	C183.750000,1.000000 184.500000,1.000000 185.625000,1.000002 
z"/>
<path fill="#CE1544" opacity="1.000000" stroke="none" 
	d="
M404.101440,284.898163 
	C431.161926,322.267181 457.997467,359.359894 484.945068,396.371002 
	C493.765564,408.485504 502.915283,420.359924 511.808594,432.422150 
	C512.925720,433.937286 514.051819,435.926147 514.063782,437.702972 
	C514.215454,460.183411 514.163513,482.665222 514.163513,506.348022 
	C508.072571,500.646210 502.637512,495.668060 497.322235,490.565094 
	C460.727203,455.431610 426.338135,418.335083 397.248688,376.632446 
	C390.025269,366.276917 383.662659,355.314423 377.101715,344.511108 
	C376.222260,343.062988 375.704498,340.508606 376.382690,339.144104 
	C381.041473,329.770447 386.543365,320.793335 390.832123,311.264648 
	C395.040466,301.914612 398.134125,292.062866 401.843689,282.090668 
	C402.549622,282.940430 403.234863,283.765289 404.101440,284.898163 
z"/>
<path fill="#CE1644" opacity="1.000000" stroke="none" 
	d="
M269.333557,324.609314 
	C271.068909,324.820709 272.388916,324.961029 274.292816,325.163422 
	C273.433990,326.473083 272.830536,327.543243 272.086670,328.504761 
	C263.429077,339.695068 254.704514,350.834045 246.115845,362.076874 
	C244.401581,364.320892 242.853317,365.041534 239.880295,364.346558 
	C213.563065,358.194946 189.298584,348.024719 169.307617,329.214294 
	C159.421539,319.912048 152.569305,308.572449 147.719513,296.047150 
	C137.029877,268.439514 132.452866,239.992203 136.913834,210.457275 
	C138.696518,198.654465 143.540619,196.021667 155.611740,202.125687 
	C163.956329,206.345322 168.819962,214.296539 172.626083,222.469818 
	C177.528030,232.996323 181.595062,243.909836 186.092819,254.626816 
	C192.354614,269.547058 199.183823,284.023315 211.099258,295.621643 
	C227.373688,311.462921 246.330368,321.525726 269.333557,324.609314 
z"/>
<path fill="#CE1544" opacity="1.000000" stroke="none" 
	d="
M487.131073,186.788818 
	C475.400543,181.994156 463.428040,180.545944 451.484894,182.268860 
	C445.326050,183.157318 438.898010,185.969315 433.800201,189.606232 
	C424.222534,196.439163 415.522003,204.501572 406.140137,212.316467 
	C403.579346,204.767075 400.869781,196.892883 398.237488,188.992966 
	C394.036896,176.386154 390.015228,163.717590 385.629517,151.175995 
	C384.494263,147.929581 384.781952,145.816788 387.203796,143.282211 
	C410.441681,118.962463 453.223572,103.481102 494.725403,123.611374 
	C501.417786,126.857491 509.446625,129.823959 513.434082,135.377731 
	C516.553284,139.722168 514.489990,147.872101 514.521118,154.332153 
	C514.594849,169.646988 514.544861,184.962418 514.544861,200.328003 
	C505.391907,195.791061 496.445557,191.356537 487.131073,186.788818 
z"/>
<path fill="#CE1544" opacity="1.000000" stroke="none" 
	d="
M511.704590,368.840851 
	C511.387878,366.131531 511.025879,363.820465 511.023895,361.509094 
	C510.989563,321.369995 510.974304,281.230835 511.027771,241.091782 
	C511.035461,235.318420 510.236877,228.716736 516.691162,225.715637 
	C524.136047,222.253952 532.202881,221.729645 539.897583,225.036804 
	C541.736267,225.827087 542.981079,228.733368 543.801697,230.927277 
	C544.466492,232.704605 544.155823,234.873413 544.156494,236.868622 
	C544.170471,277.340851 544.172241,317.813080 544.163696,358.285309 
	C544.160950,371.571136 540.661987,375.047638 527.207703,375.156799 
	C524.711792,375.177063 522.202332,375.223663 519.721619,375.003906 
	C515.996643,374.673981 512.992188,373.166016 511.704590,368.840851 
z"/>
<path fill="#CF1745" opacity="1.000000" stroke="none" 
	d="
M551.028931,76.005196 
	C547.558899,76.005196 544.582642,76.005196 541.164307,76.005196 
	C541.164307,91.354622 541.164307,106.430305 541.164307,121.837280 
	C532.024414,121.837280 523.330078,121.837280 514.317261,121.837280 
	C514.317261,106.658073 514.317261,91.703758 514.317261,76.317230 
	C505.602478,76.317230 497.183502,76.317230 488.380310,76.317230 
	C488.380310,67.182800 488.380310,58.470627 488.380310,49.262886 
	C496.750366,49.262886 505.162598,49.262886 513.976440,49.262886 
	C513.976440,38.187798 513.976440,27.589905 513.976440,16.576157 
	C523.075500,16.576157 531.773071,16.576157 540.848267,16.576157 
	C540.848267,27.204288 540.848267,37.805470 540.848267,48.955048 
	C549.756104,48.955048 558.312622,48.955048 567.212280,48.955048 
	C567.212280,58.089474 567.212280,66.680229 567.212280,76.005196 
	C562.013367,76.005196 556.768005,76.005196 551.028931,76.005196 
z"/>
<path fill="#CF1645" opacity="1.000000" stroke="none" 
	d="
M506.139832,519.578369 
	C505.619568,518.341675 505.258484,517.472168 504.742798,516.230225 
	C520.409180,516.230225 535.584106,516.230225 551.641968,516.230225 
	C543.571716,532.002136 535.773804,547.241760 527.290161,563.821533 
	C519.847229,548.264099 513.073120,534.104797 506.139832,519.578369 
z"/>
<path fill="#D01F4C" opacity="1.000000" stroke="none" 
	d="
M607.239136,556.032227 
	C597.230103,551.694214 592.687988,544.777771 593.426270,535.526062 
	C594.087158,527.244812 599.951416,520.612244 608.514709,518.460999 
	C616.919922,516.349426 625.749084,519.701050 630.327454,526.741211 
	C634.519958,533.188110 634.278870,542.440613 629.752441,548.813538 
	C624.888794,555.660950 616.818298,558.323242 607.239136,556.032227 
M602.421204,526.984436 
	C601.615540,528.234070 600.622314,529.402161 600.036621,530.747620 
	C597.503784,536.566223 598.136658,542.168640 602.065918,547.098022 
	C605.622803,551.560120 610.452393,553.531799 616.178406,552.431458 
	C622.310181,551.252991 626.815186,546.472961 627.882446,540.355225 
	C629.039734,533.721619 626.187195,527.129089 620.828247,524.052185 
	C615.013000,520.713257 609.214050,521.491272 602.421204,526.984436 
z"/>
<path fill="#FCF0F3" opacity="1.000000" stroke="none" 
	d="
M602.681763,526.718079 
	C609.214050,521.491272 615.013000,520.713257 620.828247,524.052185 
	C626.187195,527.129089 629.039734,533.721619 627.882446,540.355225 
	C626.815186,546.472961 622.310181,551.252991 616.178406,552.431458 
	C610.452393,553.531799 605.622803,551.560120 602.065918,547.098022 
	C598.136658,542.168640 597.503784,536.566223 600.036621,530.747620 
	C600.622314,529.402161 601.615540,528.234070 602.681763,526.718079 
M605.850708,529.846985 
	C605.850708,535.621887 605.850708,541.396851 605.850708,547.128906 
	C613.311462,548.302368 608.795959,542.064880 611.360840,540.072815 
	C614.642517,539.052124 616.351379,540.775574 616.891602,544.142700 
	C617.444275,547.586792 619.375122,548.028442 622.718567,546.625854 
	C621.655090,543.474182 620.620850,540.409058 619.532166,537.182617 
	C622.731873,533.772644 623.034119,529.843384 619.568604,528.452698 
	C615.120667,526.667847 610.362610,525.796387 605.850708,529.846985 
z"/>
<path fill="#D1224F" opacity="1.000000" stroke="none" 
	d="
M605.887146,529.384521 
	C610.362610,525.796387 615.120667,526.667847 619.568604,528.452698 
	C623.034119,529.843384 622.731873,533.772644 619.532166,537.182617 
	C620.620850,540.409058 621.655090,543.474182 622.718567,546.625854 
	C619.375122,548.028442 617.444275,547.586792 616.891602,544.142700 
	C616.351379,540.775574 614.642517,539.052124 611.360840,540.072815 
	C608.795959,542.064880 613.311462,548.302368 605.850708,547.128906 
	C605.850708,541.396851 605.850708,535.621887 605.887146,529.384521 
M615.682068,535.538269 
	C615.966248,534.418579 616.705017,532.448730 616.460510,532.317932 
	C614.931946,531.500671 613.183899,531.094055 611.310547,530.487366 
	C610.513855,534.448792 610.351868,537.056641 615.682068,535.538269 
z"/>
<path fill="#FDF8F9" opacity="1.000000" stroke="none" 
	d="
M615.291565,535.705627 
	C610.351868,537.056641 610.513855,534.448792 611.310547,530.487366 
	C613.183899,531.094055 614.931946,531.500671 616.460510,532.317932 
	C616.705017,532.448730 615.966248,534.418579 615.291565,535.705627 
z"/>
</svg>