<svg version="1.1" id="Layer_1" xmlns="http://www.w3.org/2000/svg" xmlns:xlink="http://www.w3.org/1999/xlink" x="0px" y="0px"
	 width="100%" viewBox="0 0 1941 869" enable-background="new 0 0 1941 869" xml:space="preserve">
<path fill="#C31017" opacity="1.000000" stroke="none" 
	d="
M1286.000000,870.000000 
	C857.333313,870.000000 429.166656,870.000000 1.000000,870.000000 
	C1.000000,580.333313 1.000000,290.666656 1.000000,1.000000 
	C648.000000,1.000000 1295.000000,1.000000 1942.000000,1.000000 
	C1942.000000,290.666656 1942.000000,580.333313 1942.000000,870.000000 
	C1723.500000,870.000000 1505.000000,870.000000 1286.000000,870.000000 
M1910.003906,67.500000 
	C1910.003906,56.053654 1910.003906,44.607311 1910.003906,33.064758 
	C1284.079224,33.064758 658.690918,33.064758 33.123638,33.064758 
	C33.123638,301.672455 33.123638,570.047363 33.123638,838.587891 
	C658.796509,838.587891 1284.177734,838.587891 1910.003906,838.587891 
	C1910.003906,581.723206 1910.003906,325.111603 1910.003906,67.500000 
z"/>
<path fill="#FEFCFC" opacity="1.000000" stroke="none" 
	d="
M1910.003906,68.000000 
	C1910.003906,325.111603 1910.003906,581.723206 1910.003906,838.587891 
	C1284.177734,838.587891 658.796509,838.587891 33.123638,838.587891 
	C33.123638,570.047363 33.123638,301.672455 33.123638,33.064758 
	C658.690918,33.064758 1284.079224,33.064758 1910.003906,33.064758 
	C1910.003906,44.607311 1910.003906,56.053654 1910.003906,68.000000 
M1896.485474,792.500427 
	C1896.485474,543.890381 1896.485474,295.280365 1896.485474,46.427757 
	C1279.489380,46.427757 663.090576,46.427757 46.526489,46.427757 
	C46.526489,306.052948 46.526489,565.419739 46.526489,824.723877 
	C663.322571,824.723877 1279.761597,824.723877 1896.139282,824.723877 
	C1896.279175,824.135071 1896.420166,823.816833 1896.421021,823.498169 
	C1896.450928,813.498962 1896.467285,803.499695 1896.485474,792.500427 
z"/>
<path fill="#C30F16" opacity="1.000000" stroke="none" 
	d="
M1896.485596,793.000488 
	C1896.467285,803.499695 1896.450928,813.498962 1896.421021,823.498169 
	C1896.420166,823.816833 1896.279175,824.135071 1896.139282,824.723877 
	C1279.761597,824.723877 663.322571,824.723877 46.526489,824.723877 
	C46.526489,565.419739 46.526489,306.052948 46.526489,46.427757 
	C663.090576,46.427757 1279.489380,46.427757 1896.485474,46.427757 
	C1896.485474,295.280365 1896.485474,543.890381 1896.485596,793.000488 
M186.086777,172.815338 
	C179.142654,172.815338 172.198532,172.815338 165.050171,172.815338 
	C165.050171,176.749405 165.050171,179.362625 165.050171,183.001663 
	C172.314758,183.001663 179.458298,182.622345 186.546707,183.085953 
	C198.754059,183.884384 204.858749,190.155228 205.916748,202.356934 
	C206.275757,206.497574 206.453217,210.666794 206.458221,214.823273 
	C206.499893,249.474701 206.518433,284.126251 206.467209,318.777649 
	C206.439636,337.429962 206.566925,356.090454 206.055222,374.731598 
	C205.643204,389.741089 199.327286,395.851715 184.184296,397.029602 
	C176.774323,397.605957 169.336456,397.823547 161.848434,398.206726 
	C161.848434,401.146454 161.848434,403.878632 161.848434,406.844971 
	C174.199265,406.844971 186.185501,406.872223 198.171555,406.839813 
	C233.481644,406.744324 268.798370,407.003845 304.099274,406.378967 
	C326.698090,405.978882 346.896362,398.703094 362.379150,381.259308 
	C381.987671,359.167297 385.243988,326.266327 369.981018,303.147369 
	C360.714233,289.110931 347.055511,280.792999 331.709259,274.864929 
	C330.291138,274.317108 328.897766,273.705261 326.829742,272.848389 
	C330.157990,271.663727 332.548706,270.948700 334.831085,269.978638 
	C351.320099,262.970215 363.072632,251.582840 365.953217,233.341797 
	C369.009247,213.990021 361.628540,198.600372 346.173370,186.779922 
	C336.479492,179.365814 325.206360,176.153015 313.537323,174.029861 
	C294.136963,170.500000 274.552521,169.704117 254.866455,170.455460 
	C232.255783,171.318451 209.637573,171.984512 186.086777,172.815338 
M1580.496460,397.831421 
	C1575.513184,397.530548 1570.503662,397.455841 1565.551514,396.885010 
	C1552.391724,395.368103 1546.875000,389.395996 1545.997681,376.042969 
	C1545.779541,372.722107 1545.539673,369.393921 1545.537720,366.068939 
	C1545.508667,315.741394 1545.514771,265.413818 1545.530518,215.086273 
	C1545.531006,213.541626 1545.725220,211.997040 1545.829102,210.452438 
	C1546.196411,210.284668 1546.563843,210.116898 1546.931274,209.949127 
	C1547.228516,210.530167 1547.408081,211.223557 1547.839844,211.676117 
	C1573.472656,238.539459 1599.128052,265.381409 1624.777832,292.228546 
	C1660.318970,329.428833 1695.983276,366.513000 1731.254883,403.967133 
	C1736.280396,409.303558 1741.312134,409.798981 1747.844727,408.715759 
	C1747.844727,406.513672 1747.844727,404.539612 1747.844727,402.565582 
	C1747.844727,335.739929 1747.840820,268.914276 1747.848511,202.088608 
	C1747.849976,189.602570 1750.888550,185.759079 1763.285034,183.698624 
	C1769.127686,182.727509 1775.119751,182.655731 1781.226562,182.161682 
	C1781.226562,179.350891 1781.226562,176.776154 1781.226562,174.099365 
	C1751.685913,174.099365 1722.436035,174.099365 1693.112061,174.099365 
	C1693.112061,176.946564 1693.112061,179.519302 1693.112061,182.418121 
	C1696.674805,182.623856 1699.977539,182.839325 1703.283081,183.001419 
	C1723.918457,184.013474 1729.145752,189.412521 1729.151367,209.849060 
	C1729.163940,256.177063 1729.155273,302.505096 1729.155273,348.833099 
	C1729.155273,350.403137 1729.155273,351.973145 1729.155273,354.594299 
	C1718.643921,343.683258 1708.962524,333.667328 1699.317627,323.616425 
	C1652.280396,274.600098 1605.271240,225.556931 1558.139282,176.631866 
	C1556.656494,175.092606 1553.955322,173.975998 1551.806030,173.948990 
	C1534.644043,173.733475 1517.478149,173.822632 1500.313477,173.839798 
	C1498.875610,173.841232 1497.438110,173.999039 1496.000977,174.084152 
	C1496.000977,176.977676 1496.000977,179.448212 1496.000977,182.328369 
	C1498.244385,182.532608 1500.445068,182.435242 1502.478149,182.972580 
	C1509.183838,184.744980 1515.854004,186.665237 1522.487427,188.693024 
	C1526.140259,189.809677 1527.110962,192.357117 1527.100708,196.272522 
	C1526.946167,255.098709 1526.996704,313.925415 1526.981079,372.751984 
	C1526.980469,374.913666 1526.921753,377.089478 1526.677368,379.234497 
	C1525.637451,388.359528 1520.821289,394.349396 1511.680786,396.176178 
	C1506.350220,397.241547 1500.893799,397.677460 1495.244873,398.429749 
	C1495.244873,400.929169 1495.244873,403.664032 1495.244873,406.548828 
	C1524.557617,406.548828 1553.618408,406.548828 1583.728394,406.548828 
	C1582.871948,403.311340 1582.149414,400.579742 1580.496460,397.831421 
M671.812927,360.315704 
	C672.497925,359.373474 673.204529,358.446136 673.864868,357.486938 
	C692.386902,330.577271 699.971436,300.688416 695.483215,268.510590 
	C690.464355,232.528641 670.395630,205.976608 639.340332,187.913452 
	C600.569275,165.362457 559.252014,162.478806 516.956238,175.357590 
	C480.574799,186.435516 453.022614,209.004623 438.469727,244.676743 
	C422.728912,283.260742 423.311584,321.536682 447.275391,357.112549 
	C465.608276,384.328979 492.272705,400.429993 523.756165,407.590942 
	C581.782654,420.789093 632.269470,408.364166 671.812927,360.315704 
M1195.764648,257.175476 
	C1179.036499,312.960388 1199.117920,364.566589 1249.537109,393.373810 
	C1279.261353,410.356934 1311.602539,415.563049 1345.416138,411.100464 
	C1400.364014,403.848755 1446.030518,364.132812 1456.588745,307.583191 
	C1464.974609,262.669739 1447.312134,218.208862 1409.170776,192.844559 
	C1370.467896,167.106918 1328.266235,161.926865 1284.029419,173.956726 
	C1240.435669,185.811737 1210.231201,212.801224 1195.764648,257.175476 
M1065.843140,353.500061 
	C1065.843140,298.731140 1065.843140,243.962204 1065.843140,189.056808 
	C1088.722534,189.056808 1111.021606,188.940445 1133.317871,189.139282 
	C1138.838379,189.188492 1143.246826,192.324081 1145.854858,197.101624 
	C1148.221313,201.436783 1150.220947,206.073364 1151.638672,210.800095 
	C1153.492310,216.980591 1154.614746,223.380432 1156.059448,229.719269 
	C1158.732910,229.719269 1161.312988,229.719269 1164.327148,229.719269 
	C1162.266357,208.971298 1160.238281,188.552155 1158.173340,167.760956 
	C1154.883667,168.052582 1150.669800,167.389313 1149.958252,168.670761 
	C1147.049683,173.908997 1142.236328,173.723404 1137.814087,173.734039 
	C1078.981445,173.875610 1020.148315,173.864822 961.315552,173.735397 
	C957.933044,173.727951 953.101440,173.495285 951.481567,171.402969 
	C948.319519,167.318787 944.929749,167.908875 940.587830,168.209991 
	C938.570190,188.665634 936.553711,209.109909 934.512756,229.802078 
	C937.617249,229.802078 940.217285,229.802078 942.209290,229.802078 
	C944.910400,220.373322 947.092712,211.147995 950.228149,202.258850 
	C953.424805,193.196350 960.100342,188.445923 970.137451,188.789810 
	C977.961609,189.057877 985.802185,188.843018 993.635498,188.842972 
	C1006.594482,188.842880 1019.553528,188.842957 1032.807129,188.842957 
	C1032.880737,190.511322 1032.987305,191.800858 1032.987427,193.090393 
	C1032.995605,253.256729 1033.006592,313.423065 1032.956299,373.589386 
	C1032.953857,376.395966 1032.513062,379.220856 1032.072144,382.004883 
	C1030.806030,390.000671 1026.033936,394.873169 1018.184326,396.322998 
	C1013.304810,397.224213 1008.291504,397.517578 1003.322144,397.781189 
	C998.919922,398.014709 994.495483,397.830170 990.263367,397.830170 
	C990.263367,401.224548 990.263367,403.833893 990.263367,406.448853 
	C1029.907715,406.448853 1069.281982,406.448853 1108.564697,406.448853 
	C1108.564697,403.446289 1108.564697,400.841400 1108.564697,397.830170 
	C1104.491943,397.830170 1100.689575,397.917084 1096.893188,397.806274 
	C1092.907837,397.690002 1088.907715,397.567169 1084.949585,397.127563 
	C1072.273560,395.719727 1066.649536,389.825531 1066.054443,376.992798 
	C1065.707397,369.508057 1065.895752,361.998474 1065.843140,353.500061 
M747.644836,223.359344 
	C747.858337,241.250702 755.954712,255.805862 769.109436,266.738037 
	C783.639404,278.813049 799.452698,289.394196 815.072693,300.092133 
	C829.207764,309.773010 844.158997,318.315613 855.780945,331.246765 
	C874.227051,351.770721 869.288574,380.489594 845.019531,393.775116 
	C836.530640,398.422150 827.326233,400.629211 817.734314,400.783112 
	C789.177673,401.241333 764.903870,382.932312 756.092346,354.542664 
	C753.879333,347.412567 753.879333,347.412567 745.912292,348.734192 
	C746.013794,350.321289 746.013672,351.959015 746.237549,353.565582 
	C748.463745,369.545135 750.690918,385.524811 753.029419,401.488129 
	C753.295044,403.300964 754.090881,406.417847 754.908142,406.507996 
	C757.317810,406.773834 760.458374,406.578735 762.224670,405.184906 
	C765.547974,402.562500 768.766479,402.356720 772.481873,403.341064 
	C780.199463,405.385620 787.886353,407.563354 795.653320,409.401093 
	C819.679626,415.085907 843.001648,413.695679 864.771301,401.145782 
	C883.033264,390.618042 894.244507,375.039154 896.281982,353.651123 
	C898.375977,331.668976 888.572571,314.715118 873.120361,300.329498 
	C857.654480,285.931030 839.267822,275.691986 821.617371,264.403961 
	C809.554749,256.689545 797.380615,249.077423 787.832092,238.136993 
	C779.127502,228.163483 774.790161,216.921677 778.634094,203.624527 
	C782.676270,189.641602 795.919861,180.189941 812.809265,179.016434 
	C839.193176,177.183243 863.260010,191.903397 874.843750,217.501419 
	C877.064148,222.408020 879.693054,224.051941 885.138916,222.228622 
	C883.017456,206.280563 880.881836,190.225906 878.547180,172.675110 
	C874.865356,174.060760 871.869446,175.240021 868.833557,176.305588 
	C867.608643,176.735474 866.234619,177.320831 865.035278,177.137253 
	C860.953613,176.512497 856.725281,176.096985 852.900818,174.669525 
	C836.161560,168.421814 818.980652,166.515686 801.368652,169.050507 
	C772.371887,173.223907 748.002563,192.979614 747.644836,223.359344 
M513.366211,544.910339 
	C517.831238,546.352234 523.339844,546.679199 526.438965,549.580261 
	C529.030762,552.006470 529.655701,557.435913 529.690308,561.547791 
	C529.943115,591.536438 529.826477,621.528259 529.826477,651.519043 
	C529.826477,652.927979 529.826538,654.336914 529.826538,656.743347 
	C528.201782,655.245178 527.362549,654.549561 526.612305,653.768372 
	C491.784485,617.506409 456.831787,581.362305 422.292236,544.827637 
	C417.337921,539.587097 412.561707,537.454590 405.537964,537.850586 
	C395.640686,538.408630 385.688416,537.991821 375.730774,537.991821 
	C375.730774,540.408936 375.730774,542.178345 375.730774,543.616333 
	C381.149719,545.001282 386.271790,546.234131 391.348083,547.633118 
	C395.008392,548.641907 396.282867,550.925720 396.262878,554.968994 
	C396.077423,592.456604 396.155762,629.945435 396.146362,667.433960 
	C396.145844,669.431519 396.138885,671.436951 395.973785,673.425293 
	C395.424438,680.040527 392.713501,683.468262 386.265045,685.006104 
	C382.634033,685.872131 378.847198,686.084778 375.284607,686.570740 
	C375.284607,688.665710 375.284607,690.422546 375.284607,692.269653 
	C394.851715,692.269653 414.125854,692.269653 433.491302,692.269653 
	C433.491302,690.137939 433.491302,688.261841 433.491302,686.263794 
	C432.340546,686.152771 431.528564,686.026978 430.713562,686.002808 
	C411.705383,685.437622 409.008911,682.645996 409.008453,663.500488 
	C409.007690,631.843506 409.008240,600.186584 409.008240,568.529602 
	C409.008240,566.952271 409.008240,565.375000 409.008240,562.885071 
	C410.473572,564.252197 411.203918,564.868652 411.860657,565.555481 
	C451.553101,607.069275 491.315033,648.517273 530.802795,690.224854 
	C534.516418,694.147339 538.004944,694.571167 542.846741,693.807068 
	C542.846741,691.698914 542.846741,689.890381 542.846741,688.081848 
	C542.846741,644.428589 542.840820,600.775269 542.851929,557.122009 
	C542.854065,548.719116 545.466797,545.873657 553.954590,545.050903 
	C557.551697,544.702209 561.165100,544.520874 564.687012,544.269470 
	C564.687012,541.998169 564.687012,540.103821 564.687012,538.245544 
	C544.930908,538.245544 525.496277,538.245544 506.188354,538.245544 
	C506.188354,540.399536 506.188354,542.293823 506.188354,544.324768 
	C508.503357,544.520569 510.481201,544.687805 513.366211,544.910339 
M1144.967163,608.449707 
	C1160.145020,589.749023 1158.460815,564.702271 1140.930664,550.512939 
	C1131.879883,543.186951 1121.165405,538.886353 1109.807373,538.246582 
	C1091.084717,537.191956 1072.279297,537.407043 1053.509888,537.466614 
	C1044.454712,537.495361 1035.402100,538.388550 1026.107056,538.903687 
	C1026.218140,541.318665 1026.297729,543.049500 1026.387817,545.008057 
	C1028.495361,545.008057 1030.148071,544.985474 1031.800049,545.011658 
	C1046.050293,545.237305 1049.764771,548.952026 1049.990723,563.190125 
	C1049.998657,563.689758 1049.992432,564.189636 1049.992432,564.689392 
	C1049.992432,598.507263 1050.016479,632.325134 1049.952515,666.142883 
	C1049.946655,669.285339 1049.514648,672.446228 1049.050537,675.564331 
	C1048.215454,681.176025 1044.913086,684.569397 1039.274658,685.332092 
	C1035.034424,685.905640 1030.747314,686.133423 1026.375854,686.524536 
	C1026.375854,688.487183 1026.375854,690.252563 1026.375854,692.226074 
	C1049.998047,692.226074 1073.400269,692.226074 1096.952148,692.226074 
	C1096.952148,690.160767 1096.952148,688.389465 1096.952148,685.856445 
	C1092.958984,685.856445 1089.137085,686.120605 1085.364502,685.802063 
	C1077.252197,685.117310 1072.818237,681.724548 1072.502686,673.923645 
	C1071.893311,658.856934 1072.324829,643.748047 1072.324829,628.136108 
	C1080.381714,628.136108 1088.162842,629.050293 1095.608887,627.862915 
	C1102.223022,626.808167 1105.647339,629.425598 1109.295044,633.990295 
	C1120.926270,648.545593 1132.843750,662.871765 1144.603271,677.324951 
	C1158.407227,694.291016 1177.229248,695.958008 1197.283691,694.886108 
	C1197.283691,692.877869 1197.283691,691.109375 1197.283691,688.779175 
	C1182.002197,688.153687 1172.016968,679.039001 1163.330322,667.690735 
	C1154.735962,656.462891 1145.863770,645.447815 1137.134766,634.322693 
	C1133.600830,629.818726 1130.123291,625.270508 1126.649902,620.780884 
	C1130.200195,618.851379 1133.398438,617.389160 1136.288940,615.464539 
	C1139.180420,613.539185 1141.764282,611.151611 1144.967163,608.449707 
M206.005875,570.507690 
	C206.039124,566.343872 205.843475,562.162903 206.153366,558.019775 
	C206.792908,549.469177 210.422134,545.846924 218.912888,544.896057 
	C221.671097,544.587158 224.444641,544.415405 227.116501,544.188904 
	C227.116501,541.904785 227.116501,540.025146 227.116501,537.994202 
	C216.063324,537.994202 205.405823,537.994263 194.748322,537.994263 
	C184.154358,537.994263 173.560394,537.994202 163.049545,537.994202 
	C163.049545,540.434143 163.049545,542.231323 163.049545,544.308960 
	C166.206772,544.554688 169.178345,544.729858 172.137634,545.027283 
	C179.337845,545.750977 182.122833,548.334595 183.260803,555.483643 
	C183.625076,557.772095 183.802307,560.114258 183.806046,562.432312 
	C183.844543,586.254211 183.747482,610.076538 183.850601,633.898071 
	C183.979736,663.726440 200.528915,685.212219 229.284134,693.130066 
	C244.480209,697.314392 259.877747,697.486023 275.291016,694.884827 
	C309.125946,689.174683 329.169434,665.301697 329.170258,631.049561 
	C329.170746,610.392761 329.142456,589.735901 329.200073,569.079224 
	C329.208862,565.929260 329.441315,562.756836 329.867767,559.635376 
	C331.073120,550.812988 335.540039,546.368408 344.346863,545.054565 
	C346.767456,544.693481 349.211426,544.489136 351.630310,544.214417 
	C351.630310,542.007263 351.630310,540.234497 351.630310,538.357117 
	C331.707642,538.357117 311.999023,538.357117 292.418457,538.357117 
	C292.418457,540.497986 292.418457,542.273193 292.418457,544.206604 
	C293.951233,544.435608 295.248749,544.684143 296.558014,544.816711 
	C312.183044,546.398865 315.777344,550.027527 315.935669,565.956177 
	C316.165741,589.105164 316.279205,612.263184 315.874359,635.407410 
	C315.665771,647.330322 311.869720,658.345154 303.342010,667.151978 
	C294.311340,676.478210 282.729065,680.229309 270.184814,681.434998 
	C253.737915,683.015930 237.796951,681.543884 224.001312,671.348206 
	C210.503250,661.372498 206.247086,646.908569 206.061356,630.976074 
	C205.830307,611.154968 206.005905,591.328979 206.005875,570.507690 
M882.255554,545.828369 
	C887.164490,547.232422 889.691040,550.617737 890.178711,555.573120 
	C890.536377,559.207764 890.949524,562.858459 890.956238,566.502747 
	C891.016174,598.997131 891.005188,631.491638 890.968872,663.986145 
	C890.965332,667.141846 890.888916,670.331970 890.433472,673.445740 
	C889.316528,681.083069 886.657104,684.003662 879.066406,685.124268 
	C873.197083,685.990723 867.218323,686.116028 861.168030,686.580017 
	C861.168030,688.481445 861.168030,690.271179 861.168030,692.291382 
	C905.115906,692.291382 948.888611,692.291382 993.130981,692.291382 
	C994.473938,679.588928 995.807373,666.976379 997.147583,654.299744 
	C994.672241,654.299744 993.023376,654.299744 991.185608,654.299744 
	C990.058899,657.667786 989.009949,660.982422 987.844604,664.255615 
	C983.127808,677.504272 976.982971,681.903931 962.877747,681.975830 
	C950.047058,682.041260 937.214355,682.088013 924.385071,681.933960 
	C916.270569,681.836548 913.495605,679.225342 913.184082,671.155273 
	C912.862854,662.835510 913.030029,654.496216 913.013123,646.165405 
	C912.994324,636.890381 913.008911,627.615417 913.008911,618.069458 
	C928.158630,618.069458 942.789246,617.970154 957.417236,618.124146 
	C962.434021,618.176880 965.894592,620.890137 967.235352,625.848816 
	C968.223877,629.504761 969.013245,633.214539 969.881348,636.858154 
	C971.965881,636.858154 973.865295,636.858154 975.800171,636.858154 
	C975.800171,620.765137 975.800171,604.987061 975.800171,589.094849 
	C973.683472,589.094849 971.778198,589.094849 969.521851,589.094849 
	C969.300293,591.107239 969.168335,592.906311 968.895203,594.683777 
	C967.735046,602.233459 964.657532,606.761169 959.185852,606.885315 
	C943.925354,607.231384 928.651855,607.005615 913.366455,607.005615 
	C913.366455,587.411499 913.366455,568.196594 913.366455,548.847656 
	C930.051758,548.847656 946.379944,548.842834 962.708069,548.849670 
	C971.235596,548.853271 975.115295,551.447998 977.925903,559.656738 
	C979.474915,564.180908 980.430176,568.908325 981.682251,573.654480 
	C983.528198,573.654480 985.399719,573.654480 987.558411,573.654480 
	C986.850098,561.580383 986.163635,549.878357 985.482544,538.268066 
	C945.196899,538.268066 905.592285,538.268066 866.015991,538.268066 
	C866.015991,540.354309 866.015991,542.162537 866.015991,544.031311 
	C871.287720,544.539551 876.380188,545.030518 882.255554,545.828369 
M722.083801,602.462952 
	C733.445862,630.851624 744.803894,659.241882 756.172363,687.627930 
	C759.801086,696.688354 759.814148,696.563416 769.530823,696.592224 
	C772.481995,696.601013 773.921814,695.713745 774.960083,692.876099 
	C778.840759,682.269592 783.002014,671.765442 787.075012,661.229431 
	C799.711426,628.541809 812.342957,595.852295 825.004150,563.174255 
	C829.198059,552.350037 835.720215,544.369385 848.568604,544.299622 
	C848.792603,544.298401 849.014221,543.852417 849.234741,543.616333 
	C849.234741,541.868103 849.234741,540.101685 849.234741,538.216125 
	C829.688049,538.216125 810.424133,538.216125 791.138550,538.216125 
	C791.138550,540.340576 791.138550,542.236145 791.138550,544.304626 
	C794.403320,544.519897 797.374268,544.709656 800.344360,544.912720 
	C812.662903,545.754639 815.720642,550.195374 811.988159,561.822449 
	C811.581970,563.087830 811.203735,564.365234 810.729248,565.605103 
	C800.104187,593.368835 789.472717,621.130066 778.828674,648.886536 
	C776.516235,654.916626 774.151245,660.926636 771.484619,667.783813 
	C769.866760,663.880859 768.634644,660.985840 767.461853,658.067017 
	C754.519226,625.854736 741.567871,593.645996 728.660583,561.419556 
	C724.763184,551.688538 726.730225,547.878784 736.901428,545.898376 
	C741.581116,544.987305 746.382080,544.699402 751.165527,544.124390 
	C751.165527,541.972290 751.165527,540.081726 751.165527,538.260681 
	C728.040039,538.260681 705.265991,538.260681 682.507202,538.260681 
	C682.507202,540.424438 682.507202,542.299622 682.507202,544.766968 
	C696.290894,542.646912 701.790405,551.148926 705.901428,561.944946 
	C710.984985,575.294983 716.528198,588.470032 722.083801,602.462952 
M1698.499634,692.521484 
	C1709.923096,692.521484 1721.346558,692.521484 1732.746826,692.521484 
	C1732.746826,690.070618 1732.746826,688.307495 1732.746826,686.322571 
	C1730.699463,686.204895 1728.896973,686.067200 1727.091919,686.003052 
	C1714.232178,685.546082 1710.192505,681.393372 1710.176636,668.545532 
	C1710.163086,657.546143 1710.095093,646.545593 1710.244507,635.548279 
	C1710.272217,633.499634 1710.776611,631.205933 1711.801758,629.460449 
	C1725.022217,606.950256 1738.363403,584.510864 1751.705200,562.072083 
	C1756.761353,553.568481 1763.602661,547.361938 1773.670288,545.467590 
	C1776.224243,544.987061 1778.791626,544.577881 1781.242920,544.154907 
	C1781.242920,541.893372 1781.242920,540.124451 1781.242920,538.352051 
	C1762.072632,538.352051 1743.180176,538.352051 1724.412231,538.352051 
	C1724.412231,540.497681 1724.412231,542.272278 1724.412231,544.223633 
	C1726.286377,544.405090 1727.922607,544.570862 1729.560547,544.720764 
	C1741.222778,545.788391 1743.151367,549.510315 1737.406128,559.870972 
	C1737.083496,560.452881 1736.758057,561.033386 1736.421021,561.607117 
	C1726.649170,578.243408 1716.880005,594.881226 1707.096069,611.510315 
	C1705.880737,613.576111 1704.584473,615.594177 1703.088867,618.017822 
	C1701.965698,616.484009 1701.146118,615.473450 1700.442505,614.387756 
	C1690.943237,599.730469 1681.435547,585.078491 1671.985718,570.389160 
	C1668.478638,564.937561 1664.853638,559.535217 1661.770386,553.846008 
	C1659.203003,549.108765 1660.422241,546.701660 1665.680420,545.556213 
	C1669.536743,544.716125 1673.541748,544.558411 1677.528564,544.090942 
	C1677.528564,542.073853 1677.528564,540.184998 1677.528564,538.231689 
	C1655.116333,538.231689 1633.021729,538.231689 1610.831421,538.231689 
	C1610.831421,540.363281 1610.831421,542.249268 1610.831421,544.783569 
	C1627.192139,542.953613 1635.597778,553.221069 1643.133911,565.092041 
	C1657.484741,587.697449 1672.024536,610.182800 1686.449219,632.741394 
	C1687.140747,633.822876 1687.912109,635.127014 1687.917725,636.330811 
	C1687.974609,648.494507 1688.243286,660.675171 1687.701172,672.817505 
	C1687.329102,681.148682 1683.092041,684.879578 1674.671631,685.810791 
	C1671.229980,686.191345 1667.743530,686.166016 1664.192993,686.329285 
	C1664.192993,688.470764 1664.192993,690.335022 1664.192993,692.521423 
	C1675.536377,692.521423 1686.517944,692.521423 1698.499634,692.521484 
M1449.819214,544.132080 
	C1448.749146,554.650330 1447.679077,565.168579 1446.598999,575.785278 
	C1449.116089,575.785278 1450.895508,575.785278 1452.373901,575.785278 
	C1454.067627,569.587524 1455.386353,563.569763 1457.381958,557.785583 
	C1459.487427,551.682983 1463.825439,548.488831 1470.707397,548.772156 
	C1478.525635,549.093994 1486.367188,548.846436 1494.198608,548.846436 
	C1499.959351,548.846436 1505.720093,548.846497 1511.826904,548.846497 
	C1511.826904,551.323608 1511.827026,553.130066 1511.827026,554.936523 
	C1511.827026,583.762817 1511.827026,612.589050 1511.826904,641.415344 
	C1511.826904,650.746399 1511.905518,660.078247 1511.806885,669.408264 
	C1511.678711,681.531799 1507.656006,685.627563 1495.647461,685.974304 
	C1491.552368,686.092529 1487.451050,685.993042 1483.462036,685.993042 
	C1483.462036,688.609070 1483.462036,690.363525 1483.462036,692.238647 
	C1509.851929,692.238647 1535.934326,692.238647 1562.100586,692.238647 
	C1562.100586,690.078125 1562.100586,688.205017 1562.100586,685.983887 
	C1557.363892,685.983887 1553.032593,686.137390 1548.715820,685.953125 
	C1538.419678,685.513855 1534.304077,681.274048 1534.014038,671.070007 
	C1533.990356,670.237488 1534.008057,669.403809 1534.008057,668.570679 
	C1534.007935,630.413391 1534.007935,592.256042 1534.007935,554.098755 
	C1534.007935,552.479431 1534.007935,550.860046 1534.007935,548.846497 
	C1547.608398,548.846497 1560.730225,548.843201 1573.852051,548.847595 
	C1582.970581,548.850647 1586.205566,551.051941 1589.082153,559.926697 
	C1590.761353,565.107544 1591.913330,570.459290 1593.318115,575.792664 
	C1595.131104,575.792664 1596.896851,575.792664 1599.184326,575.792664 
	C1597.767334,561.753723 1596.377441,547.982849 1594.927002,533.611572 
	C1592.301270,534.263794 1590.427856,534.575195 1588.668579,535.205078 
	C1586.455688,535.997314 1584.339600,537.861206 1582.176025,537.870178 
	C1542.686401,538.034729 1503.195923,538.010559 1463.705688,537.927368 
	C1461.812256,537.923340 1459.864868,537.155457 1458.042236,536.476074 
	C1455.795166,535.638550 1453.652710,534.520630 1450.743530,533.195129 
	C1450.357788,537.619507 1450.113525,540.422363 1449.819214,544.132080 
M1274.177734,545.075317 
	C1284.403809,549.507385 1291.822754,556.933105 1296.488770,566.918579 
	C1298.196167,570.572693 1300.040161,572.126709 1304.179688,570.400757 
	C1302.731445,559.715637 1301.286621,549.056519 1299.789551,538.011414 
	C1298.257935,538.011414 1296.559814,537.475098 1295.735352,538.097046 
	C1289.653687,542.684998 1284.154541,538.866577 1278.429688,537.286499 
	C1261.482544,532.609192 1244.820801,532.342346 1229.314697,541.961365 
	C1218.731812,548.526367 1212.787109,558.005371 1212.791138,570.870728 
	C1212.795532,584.585449 1219.743652,594.772339 1229.806030,602.749451 
	C1239.549438,610.473694 1250.330078,616.874268 1260.369629,624.244934 
	C1268.785156,630.423218 1277.549805,636.419067 1284.791260,643.832458 
	C1294.829590,654.109192 1293.555176,669.390991 1283.231689,679.084961 
	C1268.442017,692.972717 1241.469360,690.688782 1227.884155,673.769531 
	C1223.220703,667.961853 1220.276001,660.774231 1216.335327,653.846619 
	C1215.380493,653.846619 1213.479370,653.846619 1211.370850,653.846619 
	C1212.989624,665.918823 1214.629028,677.595154 1216.087769,689.294006 
	C1216.676025,694.011475 1220.477661,693.343384 1222.232910,691.924377 
	C1225.676880,689.140076 1228.742188,690.271179 1232.080444,691.125244 
	C1236.425659,692.236877 1240.728516,693.525146 1245.096191,694.535645 
	C1259.275757,697.816528 1273.176025,697.238525 1286.547729,691.034790 
	C1307.776733,681.185669 1317.190674,659.064026 1308.664307,638.899780 
	C1304.444458,628.919861 1297.026733,621.429443 1288.354248,615.379578 
	C1276.628174,607.199585 1264.176270,600.038269 1252.657593,591.591797 
	C1246.337280,586.957214 1240.284424,581.266724 1235.910767,574.829590 
	C1229.278198,565.068054 1233.021973,552.279175 1243.161133,546.275574 
	C1252.909668,540.503357 1263.133667,540.896423 1274.177734,545.075317 
M616.180176,555.765320 
	C616.395325,558.915588 616.793030,562.065552 616.797424,565.216125 
	C616.843201,597.858948 616.853027,630.501953 616.790039,663.144714 
	C616.782410,667.125427 616.481445,671.129944 615.976074,675.079834 
	C615.195251,681.182861 612.585327,683.871582 606.596008,685.109131 
	C603.884399,685.669495 601.127502,686.011108 598.390625,686.451965 
	C598.390625,688.506836 598.390625,690.273315 598.390625,692.273560 
	C618.881775,692.273560 639.136719,692.273560 659.499268,692.273560 
	C659.499268,690.142639 659.499268,688.264465 659.499268,686.248169 
	C658.190186,686.145447 657.211731,686.029175 656.230530,685.997742 
	C643.117310,685.576355 639.129395,681.968445 639.045593,668.897583 
	C638.820251,633.759766 638.905945,598.619995 638.902466,563.480957 
	C638.902283,561.158325 639.004456,558.805054 639.379150,556.518555 
	C640.655640,548.730469 644.066711,545.658813 651.965393,544.924622 
	C654.540894,544.685242 657.115662,544.439087 659.587280,544.205750 
	C659.587280,541.903137 659.587280,540.144226 659.587280,538.223267 
	C639.080994,538.223267 618.834045,538.223267 598.452637,538.223267 
	C598.452637,540.337097 598.452637,542.215088 598.452637,544.250671 
	C605.907410,545.487305 614.329468,544.865051 616.180176,555.765320 
M1412.255249,544.525940 
	C1413.392822,544.427551 1414.530396,544.329163 1415.751709,544.223572 
	C1415.751709,542.122070 1415.751709,540.217590 1415.751709,538.286011 
	C1395.275269,538.286011 1375.053345,538.286011 1354.703613,538.286011 
	C1354.703613,540.348389 1354.703613,542.117981 1354.703613,544.034180 
	C1355.484375,544.246826 1356.094604,544.525085 1356.720459,544.566956 
	C1368.855103,545.378113 1372.968872,548.772400 1372.887695,563.802917 
	C1372.703613,597.934753 1372.832764,632.068237 1372.828491,666.201050 
	C1372.826538,681.854065 1370.714233,684.265442 1355.359009,686.223022 
	C1355.222900,686.240417 1355.104614,686.397827 1354.852539,686.581116 
	C1354.852539,688.380310 1354.852539,690.266724 1354.852539,692.140015 
	C1375.407227,692.140015 1395.594971,692.140015 1415.724487,692.140015 
	C1415.724487,689.999695 1415.724487,688.239136 1415.724487,686.233765 
	C1414.328979,686.142639 1413.195679,686.037109 1412.060059,685.999329 
	C1399.230713,685.572205 1395.250122,681.518616 1395.008423,668.615051 
	C1394.999023,668.115662 1395.005859,667.616089 1395.005859,667.116577 
	C1395.005737,632.650757 1394.980835,598.184937 1395.047729,563.719238 
	C1395.053833,560.581055 1395.472778,557.413147 1396.012817,554.313599 
	C1396.838745,549.574158 1399.818237,546.644653 1404.472046,545.577026 
	C1406.727417,545.059570 1409.064209,544.896729 1412.255249,544.525940 
z"/>
<path fill="#FEFBFB" opacity="1.000000" stroke="none" 
	d="
M186.554718,172.775726 
	C209.637573,171.984512 232.255783,171.318451 254.866455,170.455460 
	C274.552521,169.704117 294.136963,170.500000 313.537323,174.029861 
	C325.206360,176.153015 336.479492,179.365814 346.173370,186.779922 
	C361.628540,198.600372 369.009247,213.990021 365.953217,233.341797 
	C363.072632,251.582840 351.320099,262.970215 334.831085,269.978638 
	C332.548706,270.948700 330.157990,271.663727 326.829742,272.848389 
	C328.897766,273.705261 330.291138,274.317108 331.709259,274.864929 
	C347.055511,280.792999 360.714233,289.110931 369.981018,303.147369 
	C385.243988,326.266327 381.987671,359.167297 362.379150,381.259308 
	C346.896362,398.703094 326.698090,405.978882 304.099274,406.378967 
	C268.798370,407.003845 233.481644,406.744324 198.171555,406.839813 
	C186.185501,406.872223 174.199265,406.844971 161.848434,406.844971 
	C161.848434,403.878632 161.848434,401.146454 161.848434,398.206726 
	C169.336456,397.823547 176.774323,397.605957 184.184296,397.029602 
	C199.327286,395.851715 205.643204,389.741089 206.055222,374.731598 
	C206.566925,356.090454 206.439636,337.429962 206.467209,318.777649 
	C206.518433,284.126251 206.499893,249.474701 206.458221,214.823273 
	C206.453217,210.666794 206.275757,206.497574 205.916748,202.356934 
	C204.858749,190.155228 198.754059,183.884384 186.546707,183.085953 
	C179.458298,182.622345 172.314758,183.001663 165.050171,183.001663 
	C165.050171,179.362625 165.050171,176.749405 165.050171,172.815338 
	C172.198532,172.815338 179.142654,172.815338 186.554718,172.775726 
M284.216370,394.830536 
	C287.364655,394.551086 290.529968,394.397064 293.658356,393.971283 
	C310.535828,391.674286 325.471466,385.428558 334.268341,370.037567 
	C353.579468,336.250916 341.201965,290.724670 296.141022,281.292908 
	C284.257904,278.805695 271.653748,279.673584 259.372742,279.213013 
	C252.778351,278.965729 246.167038,279.169067 239.169113,279.169067 
	C239.169113,281.591888 239.169113,283.389923 239.169113,285.187958 
	C239.169113,309.345032 239.124481,333.502289 239.211960,357.659058 
	C239.226959,361.803101 239.548248,365.984161 240.171265,370.080719 
	C242.051025,382.440857 249.069092,390.289093 261.488159,392.769165 
	C268.607941,394.190979 276.011688,394.190857 284.216370,394.830536 
M330.768616,219.172775 
	C327.303040,199.266739 315.107086,187.495331 296.098969,182.237503 
	C277.437683,177.075638 258.523254,179.769958 239.486389,180.262039 
	C239.486389,210.406860 239.486389,240.110016 239.486389,270.690094 
	C258.256348,270.127991 276.780914,270.525177 295.099701,268.771973 
	C315.745117,266.796082 327.605682,255.584702 330.534485,237.448929 
	C331.449677,231.781921 330.817200,225.864990 330.768616,219.172775 
z"/>
<path fill="#FEFBFC" opacity="1.000000" stroke="none" 
	d="
M1580.961670,397.839783 
	C1582.149414,400.579742 1582.871948,403.311340 1583.728394,406.548828 
	C1553.618408,406.548828 1524.557617,406.548828 1495.244873,406.548828 
	C1495.244873,403.664032 1495.244873,400.929169 1495.244873,398.429749 
	C1500.893799,397.677460 1506.350220,397.241547 1511.680786,396.176178 
	C1520.821289,394.349396 1525.637451,388.359528 1526.677368,379.234497 
	C1526.921753,377.089478 1526.980469,374.913666 1526.981079,372.751984 
	C1526.996704,313.925415 1526.946167,255.098709 1527.100708,196.272522 
	C1527.110962,192.357117 1526.140259,189.809677 1522.487427,188.693024 
	C1515.854004,186.665237 1509.183838,184.744980 1502.478149,182.972580 
	C1500.445068,182.435242 1498.244385,182.532608 1496.000977,182.328369 
	C1496.000977,179.448212 1496.000977,176.977676 1496.000977,174.084152 
	C1497.438110,173.999039 1498.875610,173.841232 1500.313477,173.839798 
	C1517.478149,173.822632 1534.644043,173.733475 1551.806030,173.948990 
	C1553.955322,173.975998 1556.656494,175.092606 1558.139282,176.631866 
	C1605.271240,225.556931 1652.280396,274.600098 1699.317627,323.616425 
	C1708.962524,333.667328 1718.643921,343.683258 1729.155273,354.594299 
	C1729.155273,351.973145 1729.155273,350.403137 1729.155273,348.833099 
	C1729.155273,302.505096 1729.163940,256.177063 1729.151367,209.849060 
	C1729.145752,189.412521 1723.918457,184.013474 1703.283081,183.001419 
	C1699.977539,182.839325 1696.674805,182.623856 1693.112061,182.418121 
	C1693.112061,179.519302 1693.112061,176.946564 1693.112061,174.099365 
	C1722.436035,174.099365 1751.685913,174.099365 1781.226562,174.099365 
	C1781.226562,176.776154 1781.226562,179.350891 1781.226562,182.161682 
	C1775.119751,182.655731 1769.127686,182.727509 1763.285034,183.698624 
	C1750.888550,185.759079 1747.849976,189.602570 1747.848511,202.088608 
	C1747.840820,268.914276 1747.844727,335.739929 1747.844727,402.565582 
	C1747.844727,404.539612 1747.844727,406.513672 1747.844727,408.715759 
	C1741.312134,409.798981 1736.280396,409.303558 1731.254883,403.967133 
	C1695.983276,366.513000 1660.318970,329.428833 1624.777832,292.228546 
	C1599.128052,265.381409 1573.472656,238.539459 1547.839844,211.676117 
	C1547.408081,211.223557 1547.228516,210.530167 1546.931274,209.949127 
	C1546.563843,210.116898 1546.196411,210.284668 1545.829102,210.452438 
	C1545.725220,211.997040 1545.531006,213.541626 1545.530518,215.086273 
	C1545.514771,265.413818 1545.508667,315.741394 1545.537720,366.068939 
	C1545.539673,369.393921 1545.779541,372.722107 1545.997681,376.042969 
	C1546.875000,389.395996 1552.391724,395.368103 1565.551514,396.885010 
	C1570.503662,397.455841 1575.513184,397.530548 1580.961670,397.839783 
z"/>
<path fill="#FEFCFC" opacity="1.000000" stroke="none" 
	d="
M671.592407,360.597046 
	C632.269470,408.364166 581.782654,420.789093 523.756165,407.590942 
	C492.272705,400.429993 465.608276,384.328979 447.275391,357.112549 
	C423.311584,321.536682 422.728912,283.260742 438.469727,244.676743 
	C453.022614,209.004623 480.574799,186.435516 516.956238,175.357590 
	C559.252014,162.478806 600.569275,165.362457 639.340332,187.913452 
	C670.395630,205.976608 690.464355,232.528641 695.483215,268.510590 
	C699.971436,300.688416 692.386902,330.577271 673.864868,357.486938 
	C673.204529,358.446136 672.497925,359.373474 671.592407,360.597046 
M465.728455,296.652679 
	C466.489777,302.081818 466.957489,307.571228 468.058472,312.930603 
	C477.600952,359.381927 511.666321,393.677643 556.242676,400.556976 
	C595.065735,406.548431 631.120056,388.059631 647.669128,352.314941 
	C660.411438,324.792572 662.820740,296.074097 656.964966,266.548065 
	C647.677551,219.719009 613.902893,182.843277 562.654541,179.402679 
	C537.208130,177.694321 514.301392,184.358932 496.284607,203.053772 
	C471.368774,228.907242 463.260223,260.686707 465.728455,296.652679 
z"/>
<path fill="#FEFCFC" opacity="1.000000" stroke="none" 
	d="
M1195.859375,256.783569 
	C1210.231201,212.801224 1240.435669,185.811737 1284.029419,173.956726 
	C1328.266235,161.926865 1370.467896,167.106918 1409.170776,192.844559 
	C1447.312134,218.208862 1464.974609,262.669739 1456.588745,307.583191 
	C1446.030518,364.132812 1400.364014,403.848755 1345.416138,411.100464 
	C1311.602539,415.563049 1279.261353,410.356934 1249.537109,393.373810 
	C1199.117920,364.566589 1179.036499,312.960388 1195.859375,256.783569 
M1231.899048,249.533157 
	C1225.801025,270.597778 1225.725830,291.805267 1229.979126,313.219788 
	C1239.220093,359.746490 1273.367310,393.354492 1318.996948,400.572937 
	C1356.615845,406.524139 1390.954102,389.091766 1408.118286,355.132141 
	C1422.345459,326.983337 1424.910278,297.257538 1418.914551,266.691010 
	C1409.417480,218.273758 1374.358276,182.857269 1325.223877,179.445938 
	C1304.138306,177.981964 1284.538696,182.280441 1267.319458,195.095322 
	C1249.068848,208.677811 1238.570679,227.418488 1231.899048,249.533157 
z"/>
<path fill="#FEFCFC" opacity="1.000000" stroke="none" 
	d="
M1065.843140,354.000061 
	C1065.895752,361.998474 1065.707397,369.508057 1066.054443,376.992798 
	C1066.649536,389.825531 1072.273560,395.719727 1084.949585,397.127563 
	C1088.907715,397.567169 1092.907837,397.690002 1096.893188,397.806274 
	C1100.689575,397.917084 1104.491943,397.830170 1108.564697,397.830170 
	C1108.564697,400.841400 1108.564697,403.446289 1108.564697,406.448853 
	C1069.281982,406.448853 1029.907715,406.448853 990.263367,406.448853 
	C990.263367,403.833893 990.263367,401.224548 990.263367,397.830170 
	C994.495483,397.830170 998.919922,398.014709 1003.322144,397.781189 
	C1008.291504,397.517578 1013.304810,397.224213 1018.184326,396.322998 
	C1026.033936,394.873169 1030.806030,390.000671 1032.072144,382.004883 
	C1032.513062,379.220856 1032.953857,376.395966 1032.956299,373.589386 
	C1033.006592,313.423065 1032.995605,253.256729 1032.987427,193.090393 
	C1032.987305,191.800858 1032.880737,190.511322 1032.807129,188.842957 
	C1019.553528,188.842957 1006.594482,188.842880 993.635498,188.842972 
	C985.802185,188.843018 977.961609,189.057877 970.137451,188.789810 
	C960.100342,188.445923 953.424805,193.196350 950.228149,202.258850 
	C947.092712,211.147995 944.910400,220.373322 942.209290,229.802078 
	C940.217285,229.802078 937.617249,229.802078 934.512756,229.802078 
	C936.553711,209.109909 938.570190,188.665634 940.587830,168.209991 
	C944.929749,167.908875 948.319519,167.318787 951.481567,171.402969 
	C953.101440,173.495285 957.933044,173.727951 961.315552,173.735397 
	C1020.148315,173.864822 1078.981445,173.875610 1137.814087,173.734039 
	C1142.236328,173.723404 1147.049683,173.908997 1149.958252,168.670761 
	C1150.669800,167.389313 1154.883667,168.052582 1158.173340,167.760956 
	C1160.238281,188.552155 1162.266357,208.971298 1164.327148,229.719269 
	C1161.312988,229.719269 1158.732910,229.719269 1156.059448,229.719269 
	C1154.614746,223.380432 1153.492310,216.980591 1151.638672,210.800095 
	C1150.220947,206.073364 1148.221313,201.436783 1145.854858,197.101624 
	C1143.246826,192.324081 1138.838379,189.188492 1133.317871,189.139282 
	C1111.021606,188.940445 1088.722534,189.056808 1065.843140,189.056808 
	C1065.843140,243.962204 1065.843140,298.731140 1065.843140,354.000061 
z"/>
<path fill="#FEFCFC" opacity="1.000000" stroke="none" 
	d="
M747.594177,222.935562 
	C748.002563,192.979614 772.371887,173.223907 801.368652,169.050507 
	C818.980652,166.515686 836.161560,168.421814 852.900818,174.669525 
	C856.725281,176.096985 860.953613,176.512497 865.035278,177.137253 
	C866.234619,177.320831 867.608643,176.735474 868.833557,176.305588 
	C871.869446,175.240021 874.865356,174.060760 878.547180,172.675110 
	C880.881836,190.225906 883.017456,206.280563 885.138916,222.228622 
	C879.693054,224.051941 877.064148,222.408020 874.843750,217.501419 
	C863.260010,191.903397 839.193176,177.183243 812.809265,179.016434 
	C795.919861,180.189941 782.676270,189.641602 778.634094,203.624527 
	C774.790161,216.921677 779.127502,228.163483 787.832092,238.136993 
	C797.380615,249.077423 809.554749,256.689545 821.617371,264.403961 
	C839.267822,275.691986 857.654480,285.931030 873.120361,300.329498 
	C888.572571,314.715118 898.375977,331.668976 896.281982,353.651123 
	C894.244507,375.039154 883.033264,390.618042 864.771301,401.145782 
	C843.001648,413.695679 819.679626,415.085907 795.653320,409.401093 
	C787.886353,407.563354 780.199463,405.385620 772.481873,403.341064 
	C768.766479,402.356720 765.547974,402.562500 762.224670,405.184906 
	C760.458374,406.578735 757.317810,406.773834 754.908142,406.507996 
	C754.090881,406.417847 753.295044,403.300964 753.029419,401.488129 
	C750.690918,385.524811 748.463745,369.545135 746.237549,353.565582 
	C746.013672,351.959015 746.013794,350.321289 745.912292,348.734192 
	C753.879333,347.412567 753.879333,347.412567 756.092346,354.542664 
	C764.903870,382.932312 789.177673,401.241333 817.734314,400.783112 
	C827.326233,400.629211 836.530640,398.422150 845.019531,393.775116 
	C869.288574,380.489594 874.227051,351.770721 855.780945,331.246765 
	C844.158997,318.315613 829.207764,309.773010 815.072693,300.092133 
	C799.452698,289.394196 783.639404,278.813049 769.109436,266.738037 
	C755.954712,255.805862 747.858337,241.250702 747.594177,222.935562 
z"/>
<path fill="#FEFBFB" opacity="1.000000" stroke="none" 
	d="
M512.912598,544.882690 
	C510.481201,544.687805 508.503357,544.520569 506.188354,544.324768 
	C506.188354,542.293823 506.188354,540.399536 506.188354,538.245544 
	C525.496277,538.245544 544.930908,538.245544 564.687012,538.245544 
	C564.687012,540.103821 564.687012,541.998169 564.687012,544.269470 
	C561.165100,544.520874 557.551697,544.702209 553.954590,545.050903 
	C545.466797,545.873657 542.854065,548.719116 542.851929,557.122009 
	C542.840820,600.775269 542.846741,644.428589 542.846741,688.081848 
	C542.846741,689.890381 542.846741,691.698914 542.846741,693.807068 
	C538.004944,694.571167 534.516418,694.147339 530.802795,690.224854 
	C491.315033,648.517273 451.553101,607.069275 411.860657,565.555481 
	C411.203918,564.868652 410.473572,564.252197 409.008240,562.885071 
	C409.008240,565.375000 409.008240,566.952271 409.008240,568.529602 
	C409.008240,600.186584 409.007690,631.843506 409.008453,663.500488 
	C409.008911,682.645996 411.705383,685.437622 430.713562,686.002808 
	C431.528564,686.026978 432.340546,686.152771 433.491302,686.263794 
	C433.491302,688.261841 433.491302,690.137939 433.491302,692.269653 
	C414.125854,692.269653 394.851715,692.269653 375.284607,692.269653 
	C375.284607,690.422546 375.284607,688.665710 375.284607,686.570740 
	C378.847198,686.084778 382.634033,685.872131 386.265045,685.006104 
	C392.713501,683.468262 395.424438,680.040527 395.973785,673.425293 
	C396.138885,671.436951 396.145844,669.431519 396.146362,667.433960 
	C396.155762,629.945435 396.077423,592.456604 396.262878,554.968994 
	C396.282867,550.925720 395.008392,548.641907 391.348083,547.633118 
	C386.271790,546.234131 381.149719,545.001282 375.730774,543.616333 
	C375.730774,542.178345 375.730774,540.408936 375.730774,537.991821 
	C385.688416,537.991821 395.640686,538.408630 405.537964,537.850586 
	C412.561707,537.454590 417.337921,539.587097 422.292236,544.827637 
	C456.831787,581.362305 491.784485,617.506409 526.612305,653.768372 
	C527.362549,654.549561 528.201782,655.245178 529.826538,656.743347 
	C529.826538,654.336914 529.826477,652.927979 529.826477,651.519043 
	C529.826477,621.528259 529.943115,591.536438 529.690308,561.547791 
	C529.655701,557.435913 529.030762,552.006470 526.438965,549.580261 
	C523.339844,546.679199 517.831238,546.352234 512.912598,544.882690 
z"/>
<path fill="#FEFBFB" opacity="1.000000" stroke="none" 
	d="
M1144.725098,608.708130 
	C1141.764282,611.151611 1139.180420,613.539185 1136.288940,615.464539 
	C1133.398438,617.389160 1130.200195,618.851379 1126.649902,620.780884 
	C1130.123291,625.270508 1133.600830,629.818726 1137.134766,634.322693 
	C1145.863770,645.447815 1154.735962,656.462891 1163.330322,667.690735 
	C1172.016968,679.039001 1182.002197,688.153687 1197.283691,688.779175 
	C1197.283691,691.109375 1197.283691,692.877869 1197.283691,694.886108 
	C1177.229248,695.958008 1158.407227,694.291016 1144.603271,677.324951 
	C1132.843750,662.871765 1120.926270,648.545593 1109.295044,633.990295 
	C1105.647339,629.425598 1102.223022,626.808167 1095.608887,627.862915 
	C1088.162842,629.050293 1080.381714,628.136108 1072.324829,628.136108 
	C1072.324829,643.748047 1071.893311,658.856934 1072.502686,673.923645 
	C1072.818237,681.724548 1077.252197,685.117310 1085.364502,685.802063 
	C1089.137085,686.120605 1092.958984,685.856445 1096.952148,685.856445 
	C1096.952148,688.389465 1096.952148,690.160767 1096.952148,692.226074 
	C1073.400269,692.226074 1049.998047,692.226074 1026.375854,692.226074 
	C1026.375854,690.252563 1026.375854,688.487183 1026.375854,686.524536 
	C1030.747314,686.133423 1035.034424,685.905640 1039.274658,685.332092 
	C1044.913086,684.569397 1048.215454,681.176025 1049.050537,675.564331 
	C1049.514648,672.446228 1049.946655,669.285339 1049.952515,666.142883 
	C1050.016479,632.325134 1049.992432,598.507263 1049.992432,564.689392 
	C1049.992432,564.189636 1049.998657,563.689758 1049.990723,563.190125 
	C1049.764771,548.952026 1046.050293,545.237305 1031.800049,545.011658 
	C1030.148071,544.985474 1028.495361,545.008057 1026.387817,545.008057 
	C1026.297729,543.049500 1026.218140,541.318665 1026.107056,538.903687 
	C1035.402100,538.388550 1044.454712,537.495361 1053.509888,537.466614 
	C1072.279297,537.407043 1091.084717,537.191956 1109.807373,538.246582 
	C1121.165405,538.886353 1131.879883,543.186951 1140.930664,550.512939 
	C1158.460815,564.702271 1160.145020,589.749023 1144.725098,608.708130 
M1109.567993,618.272949 
	C1120.399048,613.758423 1127.445679,605.736389 1128.934937,594.190674 
	C1129.980347,586.084900 1129.800293,577.625732 1128.770020,569.501648 
	C1127.705688,561.110962 1122.752319,554.372620 1115.318481,550.016724 
	C1101.859009,542.130127 1087.098877,542.636780 1072.239014,543.285156 
	C1072.239014,569.746521 1072.239014,595.672302 1072.239014,621.939697 
	C1084.740356,622.238098 1097.032959,623.170593 1109.567993,618.272949 
z"/>
<path fill="#FEFCFC" opacity="1.000000" stroke="none" 
	d="
M206.005875,571.006409 
	C206.005905,591.328979 205.830307,611.154968 206.061356,630.976074 
	C206.247086,646.908569 210.503250,661.372498 224.001312,671.348206 
	C237.796951,681.543884 253.737915,683.015930 270.184814,681.434998 
	C282.729065,680.229309 294.311340,676.478210 303.342010,667.151978 
	C311.869720,658.345154 315.665771,647.330322 315.874359,635.407410 
	C316.279205,612.263184 316.165741,589.105164 315.935669,565.956177 
	C315.777344,550.027527 312.183044,546.398865 296.558014,544.816711 
	C295.248749,544.684143 293.951233,544.435608 292.418457,544.206604 
	C292.418457,542.273193 292.418457,540.497986 292.418457,538.357117 
	C311.999023,538.357117 331.707642,538.357117 351.630310,538.357117 
	C351.630310,540.234497 351.630310,542.007263 351.630310,544.214417 
	C349.211426,544.489136 346.767456,544.693481 344.346863,545.054565 
	C335.540039,546.368408 331.073120,550.812988 329.867767,559.635376 
	C329.441315,562.756836 329.208862,565.929260 329.200073,569.079224 
	C329.142456,589.735901 329.170746,610.392761 329.170258,631.049561 
	C329.169434,665.301697 309.125946,689.174683 275.291016,694.884827 
	C259.877747,697.486023 244.480209,697.314392 229.284134,693.130066 
	C200.528915,685.212219 183.979736,663.726440 183.850601,633.898071 
	C183.747482,610.076538 183.844543,586.254211 183.806046,562.432312 
	C183.802307,560.114258 183.625076,557.772095 183.260803,555.483643 
	C182.122833,548.334595 179.337845,545.750977 172.137634,545.027283 
	C169.178345,544.729858 166.206772,544.554688 163.049545,544.308960 
	C163.049545,542.231323 163.049545,540.434143 163.049545,537.994202 
	C173.560394,537.994202 184.154358,537.994263 194.748322,537.994263 
	C205.405823,537.994263 216.063324,537.994202 227.116501,537.994202 
	C227.116501,540.025146 227.116501,541.904785 227.116501,544.188904 
	C224.444641,544.415405 221.671097,544.587158 218.912888,544.896057 
	C210.422134,545.846924 206.792908,549.469177 206.153366,558.019775 
	C205.843475,562.162903 206.039124,566.343872 206.005875,571.006409 
z"/>
<path fill="#FEFAFA" opacity="1.000000" stroke="none" 
	d="
M881.864136,545.674927 
	C876.380188,545.030518 871.287720,544.539551 866.015991,544.031311 
	C866.015991,542.162537 866.015991,540.354309 866.015991,538.268066 
	C905.592285,538.268066 945.196899,538.268066 985.482544,538.268066 
	C986.163635,549.878357 986.850098,561.580383 987.558411,573.654480 
	C985.399719,573.654480 983.528198,573.654480 981.682251,573.654480 
	C980.430176,568.908325 979.474915,564.180908 977.925903,559.656738 
	C975.115295,551.447998 971.235596,548.853271 962.708069,548.849670 
	C946.379944,548.842834 930.051758,548.847656 913.366455,548.847656 
	C913.366455,568.196594 913.366455,587.411499 913.366455,607.005615 
	C928.651855,607.005615 943.925354,607.231384 959.185852,606.885315 
	C964.657532,606.761169 967.735046,602.233459 968.895203,594.683777 
	C969.168335,592.906311 969.300293,591.107239 969.521851,589.094849 
	C971.778198,589.094849 973.683472,589.094849 975.800171,589.094849 
	C975.800171,604.987061 975.800171,620.765137 975.800171,636.858154 
	C973.865295,636.858154 971.965881,636.858154 969.881348,636.858154 
	C969.013245,633.214539 968.223877,629.504761 967.235352,625.848816 
	C965.894592,620.890137 962.434021,618.176880 957.417236,618.124146 
	C942.789246,617.970154 928.158630,618.069458 913.008911,618.069458 
	C913.008911,627.615417 912.994324,636.890381 913.013123,646.165405 
	C913.030029,654.496216 912.862854,662.835510 913.184082,671.155273 
	C913.495605,679.225342 916.270569,681.836548 924.385071,681.933960 
	C937.214355,682.088013 950.047058,682.041260 962.877747,681.975830 
	C976.982971,681.903931 983.127808,677.504272 987.844604,664.255615 
	C989.009949,660.982422 990.058899,657.667786 991.185608,654.299744 
	C993.023376,654.299744 994.672241,654.299744 997.147583,654.299744 
	C995.807373,666.976379 994.473938,679.588928 993.130981,692.291382 
	C948.888611,692.291382 905.115906,692.291382 861.168030,692.291382 
	C861.168030,690.271179 861.168030,688.481445 861.168030,686.580017 
	C867.218323,686.116028 873.197083,685.990723 879.066406,685.124268 
	C886.657104,684.003662 889.316528,681.083069 890.433472,673.445740 
	C890.888916,670.331970 890.965332,667.141846 890.968872,663.986145 
	C891.005188,631.491638 891.016174,598.997131 890.956238,566.502747 
	C890.949524,562.858459 890.536377,559.207764 890.178711,555.573120 
	C889.691040,550.617737 887.164490,547.232422 881.864136,545.674927 
z"/>
<path fill="#FEFBFB" opacity="1.000000" stroke="none" 
	d="
M721.978271,602.091797 
	C716.528198,588.470032 710.984985,575.294983 705.901428,561.944946 
	C701.790405,551.148926 696.290894,542.646912 682.507202,544.766968 
	C682.507202,542.299622 682.507202,540.424438 682.507202,538.260681 
	C705.265991,538.260681 728.040039,538.260681 751.165527,538.260681 
	C751.165527,540.081726 751.165527,541.972290 751.165527,544.124390 
	C746.382080,544.699402 741.581116,544.987305 736.901428,545.898376 
	C726.730225,547.878784 724.763184,551.688538 728.660583,561.419556 
	C741.567871,593.645996 754.519226,625.854736 767.461853,658.067017 
	C768.634644,660.985840 769.866760,663.880859 771.484619,667.783813 
	C774.151245,660.926636 776.516235,654.916626 778.828674,648.886536 
	C789.472717,621.130066 800.104187,593.368835 810.729248,565.605103 
	C811.203735,564.365234 811.581970,563.087830 811.988159,561.822449 
	C815.720642,550.195374 812.662903,545.754639 800.344360,544.912720 
	C797.374268,544.709656 794.403320,544.519897 791.138550,544.304626 
	C791.138550,542.236145 791.138550,540.340576 791.138550,538.216125 
	C810.424133,538.216125 829.688049,538.216125 849.234741,538.216125 
	C849.234741,540.101685 849.234741,541.868103 849.234741,543.616333 
	C849.014221,543.852417 848.792603,544.298401 848.568604,544.299622 
	C835.720215,544.369385 829.198059,552.350037 825.004150,563.174255 
	C812.342957,595.852295 799.711426,628.541809 787.075012,661.229431 
	C783.002014,671.765442 778.840759,682.269592 774.960083,692.876099 
	C773.921814,695.713745 772.481995,696.601013 769.530823,696.592224 
	C759.814148,696.563416 759.801086,696.688354 756.172363,687.627930 
	C744.803894,659.241882 733.445862,630.851624 721.978271,602.091797 
z"/>
<path fill="#FEFAFB" opacity="1.000000" stroke="none" 
	d="
M1697.999512,692.521484 
	C1686.517944,692.521423 1675.536377,692.521423 1664.192993,692.521423 
	C1664.192993,690.335022 1664.192993,688.470764 1664.192993,686.329285 
	C1667.743530,686.166016 1671.229980,686.191345 1674.671631,685.810791 
	C1683.092041,684.879578 1687.329102,681.148682 1687.701172,672.817505 
	C1688.243286,660.675171 1687.974609,648.494507 1687.917725,636.330811 
	C1687.912109,635.127014 1687.140747,633.822876 1686.449219,632.741394 
	C1672.024536,610.182800 1657.484741,587.697449 1643.133911,565.092041 
	C1635.597778,553.221069 1627.192139,542.953613 1610.831421,544.783569 
	C1610.831421,542.249268 1610.831421,540.363281 1610.831421,538.231689 
	C1633.021729,538.231689 1655.116333,538.231689 1677.528564,538.231689 
	C1677.528564,540.184998 1677.528564,542.073853 1677.528564,544.090942 
	C1673.541748,544.558411 1669.536743,544.716125 1665.680420,545.556213 
	C1660.422241,546.701660 1659.203003,549.108765 1661.770386,553.846008 
	C1664.853638,559.535217 1668.478638,564.937561 1671.985718,570.389160 
	C1681.435547,585.078491 1690.943237,599.730469 1700.442505,614.387756 
	C1701.146118,615.473450 1701.965698,616.484009 1703.088867,618.017822 
	C1704.584473,615.594177 1705.880737,613.576111 1707.096069,611.510315 
	C1716.880005,594.881226 1726.649170,578.243408 1736.421021,561.607117 
	C1736.758057,561.033386 1737.083496,560.452881 1737.406128,559.870972 
	C1743.151367,549.510315 1741.222778,545.788391 1729.560547,544.720764 
	C1727.922607,544.570862 1726.286377,544.405090 1724.412231,544.223633 
	C1724.412231,542.272278 1724.412231,540.497681 1724.412231,538.352051 
	C1743.180176,538.352051 1762.072632,538.352051 1781.242920,538.352051 
	C1781.242920,540.124451 1781.242920,541.893372 1781.242920,544.154907 
	C1778.791626,544.577881 1776.224243,544.987061 1773.670288,545.467590 
	C1763.602661,547.361938 1756.761353,553.568481 1751.705200,562.072083 
	C1738.363403,584.510864 1725.022217,606.950256 1711.801758,629.460449 
	C1710.776611,631.205933 1710.272217,633.499634 1710.244507,635.548279 
	C1710.095093,646.545593 1710.163086,657.546143 1710.176636,668.545532 
	C1710.192505,681.393372 1714.232178,685.546082 1727.091919,686.003052 
	C1728.896973,686.067200 1730.699463,686.204895 1732.746826,686.322571 
	C1732.746826,688.307495 1732.746826,690.070618 1732.746826,692.521484 
	C1721.346558,692.521484 1709.923096,692.521484 1697.999512,692.521484 
z"/>
<path fill="#FEFBFB" opacity="1.000000" stroke="none" 
	d="
M1449.844238,543.678650 
	C1450.113525,540.422363 1450.357788,537.619507 1450.743530,533.195129 
	C1453.652710,534.520630 1455.795166,535.638550 1458.042236,536.476074 
	C1459.864868,537.155457 1461.812256,537.923340 1463.705688,537.927368 
	C1503.195923,538.010559 1542.686401,538.034729 1582.176025,537.870178 
	C1584.339600,537.861206 1586.455688,535.997314 1588.668579,535.205078 
	C1590.427856,534.575195 1592.301270,534.263794 1594.927002,533.611572 
	C1596.377441,547.982849 1597.767334,561.753723 1599.184326,575.792664 
	C1596.896851,575.792664 1595.131104,575.792664 1593.318115,575.792664 
	C1591.913330,570.459290 1590.761353,565.107544 1589.082153,559.926697 
	C1586.205566,551.051941 1582.970581,548.850647 1573.852051,548.847595 
	C1560.730225,548.843201 1547.608398,548.846497 1534.007935,548.846497 
	C1534.007935,550.860046 1534.007935,552.479431 1534.007935,554.098755 
	C1534.007935,592.256042 1534.007935,630.413391 1534.008057,668.570679 
	C1534.008057,669.403809 1533.990356,670.237488 1534.014038,671.070007 
	C1534.304077,681.274048 1538.419678,685.513855 1548.715820,685.953125 
	C1553.032593,686.137390 1557.363892,685.983887 1562.100586,685.983887 
	C1562.100586,688.205017 1562.100586,690.078125 1562.100586,692.238647 
	C1535.934326,692.238647 1509.851929,692.238647 1483.462036,692.238647 
	C1483.462036,690.363525 1483.462036,688.609070 1483.462036,685.993042 
	C1487.451050,685.993042 1491.552368,686.092529 1495.647461,685.974304 
	C1507.656006,685.627563 1511.678711,681.531799 1511.806885,669.408264 
	C1511.905518,660.078247 1511.826904,650.746399 1511.826904,641.415344 
	C1511.827026,612.589050 1511.827026,583.762817 1511.827026,554.936523 
	C1511.827026,553.130066 1511.826904,551.323608 1511.826904,548.846497 
	C1505.720093,548.846497 1499.959351,548.846436 1494.198608,548.846436 
	C1486.367188,548.846436 1478.525635,549.093994 1470.707397,548.772156 
	C1463.825439,548.488831 1459.487427,551.682983 1457.381958,557.785583 
	C1455.386353,563.569763 1454.067627,569.587524 1452.373901,575.785278 
	C1450.895508,575.785278 1449.116089,575.785278 1446.598999,575.785278 
	C1447.679077,565.168579 1448.749146,554.650330 1449.844238,543.678650 
z"/>
<path fill="#FEFAFB" opacity="1.000000" stroke="none" 
	d="
M1273.809326,544.944702 
	C1263.133667,540.896423 1252.909668,540.503357 1243.161133,546.275574 
	C1233.021973,552.279175 1229.278198,565.068054 1235.910767,574.829590 
	C1240.284424,581.266724 1246.337280,586.957214 1252.657593,591.591797 
	C1264.176270,600.038269 1276.628174,607.199585 1288.354248,615.379578 
	C1297.026733,621.429443 1304.444458,628.919861 1308.664307,638.899780 
	C1317.190674,659.064026 1307.776733,681.185669 1286.547729,691.034790 
	C1273.176025,697.238525 1259.275757,697.816528 1245.096191,694.535645 
	C1240.728516,693.525146 1236.425659,692.236877 1232.080444,691.125244 
	C1228.742188,690.271179 1225.676880,689.140076 1222.232910,691.924377 
	C1220.477661,693.343384 1216.676025,694.011475 1216.087769,689.294006 
	C1214.629028,677.595154 1212.989624,665.918823 1211.370850,653.846619 
	C1213.479370,653.846619 1215.380493,653.846619 1216.335327,653.846619 
	C1220.276001,660.774231 1223.220703,667.961853 1227.884155,673.769531 
	C1241.469360,690.688782 1268.442017,692.972717 1283.231689,679.084961 
	C1293.555176,669.390991 1294.829590,654.109192 1284.791260,643.832458 
	C1277.549805,636.419067 1268.785156,630.423218 1260.369629,624.244934 
	C1250.330078,616.874268 1239.549438,610.473694 1229.806030,602.749451 
	C1219.743652,594.772339 1212.795532,584.585449 1212.791138,570.870728 
	C1212.787109,558.005371 1218.731812,548.526367 1229.314697,541.961365 
	C1244.820801,532.342346 1261.482544,532.609192 1278.429688,537.286499 
	C1284.154541,538.866577 1289.653687,542.684998 1295.735352,538.097046 
	C1296.559814,537.475098 1298.257935,538.011414 1299.789551,538.011414 
	C1301.286621,549.056519 1302.731445,559.715637 1304.179688,570.400757 
	C1300.040161,572.126709 1298.196167,570.572693 1296.488770,566.918579 
	C1291.822754,556.933105 1284.403809,549.507385 1273.809326,544.944702 
z"/>
<path fill="#FEFAFA" opacity="1.000000" stroke="none" 
	d="
M616.115234,555.349182 
	C614.329468,544.865051 605.907410,545.487305 598.452637,544.250671 
	C598.452637,542.215088 598.452637,540.337097 598.452637,538.223267 
	C618.834045,538.223267 639.080994,538.223267 659.587280,538.223267 
	C659.587280,540.144226 659.587280,541.903137 659.587280,544.205750 
	C657.115662,544.439087 654.540894,544.685242 651.965393,544.924622 
	C644.066711,545.658813 640.655640,548.730469 639.379150,556.518555 
	C639.004456,558.805054 638.902283,561.158325 638.902466,563.480957 
	C638.905945,598.619995 638.820251,633.759766 639.045593,668.897583 
	C639.129395,681.968445 643.117310,685.576355 656.230530,685.997742 
	C657.211731,686.029175 658.190186,686.145447 659.499268,686.248169 
	C659.499268,688.264465 659.499268,690.142639 659.499268,692.273560 
	C639.136719,692.273560 618.881775,692.273560 598.390625,692.273560 
	C598.390625,690.273315 598.390625,688.506836 598.390625,686.451965 
	C601.127502,686.011108 603.884399,685.669495 606.596008,685.109131 
	C612.585327,683.871582 615.195251,681.182861 615.976074,675.079834 
	C616.481445,671.129944 616.782410,667.125427 616.790039,663.144714 
	C616.853027,630.501953 616.843201,597.858948 616.797424,565.216125 
	C616.793030,562.065552 616.395325,558.915588 616.115234,555.349182 
z"/>
<path fill="#FEFCFC" opacity="1.000000" stroke="none" 
	d="
M1411.809692,544.549683 
	C1409.064209,544.896729 1406.727417,545.059570 1404.472046,545.577026 
	C1399.818237,546.644653 1396.838745,549.574158 1396.012817,554.313599 
	C1395.472778,557.413147 1395.053833,560.581055 1395.047729,563.719238 
	C1394.980835,598.184937 1395.005737,632.650757 1395.005859,667.116577 
	C1395.005859,667.616089 1394.999023,668.115662 1395.008423,668.615051 
	C1395.250122,681.518616 1399.230713,685.572205 1412.060059,685.999329 
	C1413.195679,686.037109 1414.328979,686.142639 1415.724487,686.233765 
	C1415.724487,688.239136 1415.724487,689.999695 1415.724487,692.140015 
	C1395.594971,692.140015 1375.407227,692.140015 1354.852539,692.140015 
	C1354.852539,690.266724 1354.852539,688.380310 1354.852539,686.581116 
	C1355.104614,686.397827 1355.222900,686.240417 1355.359009,686.223022 
	C1370.714233,684.265442 1372.826538,681.854065 1372.828491,666.201050 
	C1372.832764,632.068237 1372.703613,597.934753 1372.887695,563.802917 
	C1372.968872,548.772400 1368.855103,545.378113 1356.720459,544.566956 
	C1356.094604,544.525085 1355.484375,544.246826 1354.703613,544.034180 
	C1354.703613,542.117981 1354.703613,540.348389 1354.703613,538.286011 
	C1375.053345,538.286011 1395.275269,538.286011 1415.751709,538.286011 
	C1415.751709,540.217590 1415.751709,542.122070 1415.751709,544.223572 
	C1414.530396,544.329163 1413.392822,544.427551 1411.809692,544.549683 
z"/>
<path fill="#C31017" opacity="1.000000" stroke="none" 
	d="
M283.751984,394.830688 
	C276.011688,394.190857 268.607941,394.190979 261.488159,392.769165 
	C249.069092,390.289093 242.051025,382.440857 240.171265,370.080719 
	C239.548248,365.984161 239.226959,361.803101 239.211960,357.659058 
	C239.124481,333.502289 239.169113,309.345032 239.169113,285.187958 
	C239.169113,283.389923 239.169113,281.591888 239.169113,279.169067 
	C246.167038,279.169067 252.778351,278.965729 259.372742,279.213013 
	C271.653748,279.673584 284.257904,278.805695 296.141022,281.292908 
	C341.201965,290.724670 353.579468,336.250916 334.268341,370.037567 
	C325.471466,385.428558 310.535828,391.674286 293.658356,393.971283 
	C290.529968,394.397064 287.364655,394.551086 283.751984,394.830688 
z"/>
<path fill="#C31017" opacity="1.000000" stroke="none" 
	d="
M330.830872,219.617615 
	C330.817200,225.864990 331.449677,231.781921 330.534485,237.448929 
	C327.605682,255.584702 315.745117,266.796082 295.099701,268.771973 
	C276.780914,270.525177 258.256348,270.127991 239.486389,270.690094 
	C239.486389,240.110016 239.486389,210.406860 239.486389,180.262039 
	C258.523254,179.769958 277.437683,177.075638 296.098969,182.237503 
	C315.107086,187.495331 327.303040,199.266739 330.830872,219.617615 
z"/>
<path fill="#C30F16" opacity="1.000000" stroke="none" 
	d="
M465.658203,296.199615 
	C463.260223,260.686707 471.368774,228.907242 496.284607,203.053772 
	C514.301392,184.358932 537.208130,177.694321 562.654541,179.402679 
	C613.902893,182.843277 647.677551,219.719009 656.964966,266.548065 
	C662.820740,296.074097 660.411438,324.792572 647.669128,352.314941 
	C631.120056,388.059631 595.065735,406.548431 556.242676,400.556976 
	C511.666321,393.677643 477.600952,359.381927 468.058472,312.930603 
	C466.957489,307.571228 466.489777,302.081818 465.658203,296.199615 
z"/>
<path fill="#C30F16" opacity="1.000000" stroke="none" 
	d="
M1231.964111,249.133743 
	C1238.570679,227.418488 1249.068848,208.677811 1267.319458,195.095322 
	C1284.538696,182.280441 1304.138306,177.981964 1325.223877,179.445938 
	C1374.358276,182.857269 1409.417480,218.273758 1418.914551,266.691010 
	C1424.910278,297.257538 1422.345459,326.983337 1408.118286,355.132141 
	C1390.954102,389.091766 1356.615845,406.524139 1318.996948,400.572937 
	C1273.367310,393.354492 1239.220093,359.746490 1229.979126,313.219788 
	C1225.725830,291.805267 1225.801025,270.597778 1231.964111,249.133743 
z"/>
<path fill="#C31017" opacity="1.000000" stroke="none" 
	d="
M1109.224854,618.456421 
	C1097.032959,623.170593 1084.740356,622.238098 1072.239014,621.939697 
	C1072.239014,595.672302 1072.239014,569.746521 1072.239014,543.285156 
	C1087.098877,542.636780 1101.859009,542.130127 1115.318481,550.016724 
	C1122.752319,554.372620 1127.705688,561.110962 1128.770020,569.501648 
	C1129.800293,577.625732 1129.980347,586.084900 1128.934937,594.190674 
	C1127.445679,605.736389 1120.399048,613.758423 1109.224854,618.456421 
z"/>
</svg>