<?xml version="1.0" encoding="UTF-8"?>
<svg xmlns="http://www.w3.org/2000/svg" xmlns:xlink="http://www.w3.org/1999/xlink" width="1121.61pt" height="784.21pt" viewBox="0 0 1121.61 784.21" version="1.1">
<defs>
<clipPath id="clip1">
  <path d="M 0 0 L 1121.609375 0 L 1121.609375 784.210938 L 0 784.210938 Z M 0 0 "/>
</clipPath>
</defs>
<g id="surface1">
<g clip-path="url(#clip1)" clip-rule="nonzero">
<path style=" stroke:none;fill-rule:nonzero;fill:rgb(76.861572%,9.803772%,13.33313%);fill-opacity:1;" d="M 0 784.210938 L 1121.609375 784.210938 L 1121.609375 0.00390625 L 0 0.00390625 L 0 784.210938 "/>
</g>
<path style=" stroke:none;fill-rule:nonzero;fill:rgb(100%,100%,100%);fill-opacity:1;" d="M 1056.339844 718.769531 L 65.238281 718.769531 L 65.238281 65.21875 L 1056.339844 65.21875 Z M 46.128906 46.109375 L 46.128906 738.082031 L 1075.550781 738.082031 L 1075.550781 46.109375 "/>
<path style=" stroke:none;fill-rule:nonzero;fill:rgb(100%,100%,100%);fill-opacity:1;" d="M 450.335938 465.628906 C 450.214844 507.179688 430.476563 550.359375 360.117188 550.464844 C 315.148438 550.21875 300.226563 536.71875 299.960938 496.265625 L 299.960938 382.886719 L 356.882813 382.886719 C 419.234375 382.90625 450.296875 424.785156 450.335938 465.628906 Z M 357.433594 370.445313 L 299.960938 370.445313 L 299.960938 239.890625 C 313.460938 239.320313 334.703125 238.304688 346.128906 238.304688 C 411.832031 238.46875 433.585938 272.070313 433.6875 309.214844 C 433.585938 350.5625 408.761719 370.261719 357.433594 370.445313 Z M 424.375 373.859375 C 459.648438 366.542969 484.265625 338.183594 484.308594 307.589844 C 484.347656 281.503906 473.269531 262.71875 451.027344 247.007813 C 431.269531 232.753906 389.753906 225.902344 342.367188 225.863281 C 332.101563 225.863281 291.28125 226.433594 261.699219 227.488281 C 246.109375 228.039063 209.027344 230.171875 194.003906 230.722656 L 192.925781 230.722656 L 192.925781 243.164063 L 212.828125 243.164063 C 250.011719 243.449219 252.777344 258.125 253.140625 288.78125 L 253.140625 511.816406 C 252.777344 545.460938 245.539063 554.425781 201.566406 554.792969 L 188.066406 554.792969 L 188.066406 567.234375 L 385.894531 567.234375 C 473.023438 567.09375 502.96875 506.917969 503.09375 463.960938 C 503.09375 422.101563 473.878906 389.191406 424.375 373.859375 "/>
<path style=" stroke:none;fill-rule:nonzero;fill:rgb(100%,100%,100%);fill-opacity:1;" d="M 811 228.992188 L 811 242.59375 L 812.585938 242.738281 C 857.3125 245.421875 863.472656 252.371094 864.0625 304.394531 L 864.0625 430.558594 C 863.878906 521.613281 803.09375 546.070313 742.269531 546.335938 C 662.25 546.113281 620.738281 503.421875 620.554688 431.050781 L 620.554688 280.527344 C 620.941406 249.769531 632.019531 243.121094 661.621094 242.738281 L 668.128906 242.738281 L 668.128906 228.992188 L 525.636719 228.992188 L 525.636719 242.675781 L 527.265625 242.738281 C 564.140625 243.792969 571.664063 247.410156 572.191406 281.628906 L 572.191406 439.75 C 572.292969 517.996094 626.289063 577.746094 730.375 577.867188 C 848.671875 577.746094 892.195313 504.863281 892.320313 437.023438 L 892.320313 290.816406 C 892.703125 256.621094 904.171875 243.589844 939.929688 242.738281 L 941.636719 242.695313 L 941.636719 228.992188 L 939.890625 228.992188 "/>
</g>
</svg>
