<svg version="1.1" id="Layer_1" xmlns="http://www.w3.org/2000/svg" xmlns:xlink="http://www.w3.org/1999/xlink" x="0px" y="0px"
	 width="100%" viewBox="0 0 200 200" enable-background="new 0 0 200 200" xml:space="preserve">
<path fill="#02014C" opacity="1.000000" stroke="none" 
	d="
M1.000000,200.000000 
	C1.000000,133.739639 1.000000,67.479271 1.000000,1.000000 
	C67.020737,1.000000 133.041702,1.000000 199.532135,1.468657 
	C200.021637,67.624878 200.041672,133.312439 199.748566,199.282166 
	C197.629257,199.709976 195.823105,199.982330 194.016876,199.982941 
	C129.677917,200.004410 65.338959,200.000427 1.000000,200.000000 
M139.498764,116.645882 
	C133.833786,116.649155 128.158264,116.463150 122.510635,116.777916 
	C120.938629,116.865532 118.725517,118.062263 118.042480,119.387299 
	C114.338417,126.572754 108.431213,129.867569 100.627144,129.691620 
	C92.566734,129.509888 86.531303,125.549835 83.398796,118.151100 
	C78.644005,106.920647 78.649338,95.385536 83.273834,84.131187 
	C86.314957,76.730225 92.299721,72.617325 100.365883,72.367004 
	C108.153214,72.125336 114.156822,75.412590 117.902878,82.510414 
	C118.504196,83.649750 119.829582,85.192558 120.842163,85.209129 
	C132.463776,85.399323 144.089630,85.330276 155.987213,85.330276 
	C155.792633,84.040314 155.746613,83.233528 155.544495,82.467964 
	C148.756104,56.756031 127.934120,41.648308 100.551414,42.537579 
	C77.959557,43.271259 60.321484,52.261417 50.219742,73.276817 
	C44.574509,85.021004 43.465668,97.644806 45.124115,110.381897 
	C48.058929,132.921677 59.416378,149.569443 81.685463,156.257584 
	C90.669060,158.955643 100.773422,159.410431 110.224068,158.769058 
	C133.092896,157.217026 152.324692,139.059052 155.900284,116.645920 
	C150.715149,116.645920 145.606216,116.645920 139.498764,116.645882 
z"/>
<path fill="#1E1E66" opacity="1.000000" stroke="none" 
	d="
M1.000000,200.500000 
	C65.338959,200.000427 129.677917,200.004410 194.016876,199.982941 
	C195.823105,199.982330 197.629257,199.709976 199.982819,199.282166 
	C200.530212,199.000000 201.000000,199.000000 201.000000,199.000000 
	C200.669144,199.666672 200.457230,200.783936 199.983383,200.909027 
	C198.895416,201.196243 197.679840,201.000000 196.516052,201.000000 
	C131.344040,201.000000 66.172020,201.000000 1.000000,200.500000 
z"/>
<path fill="#1F1D66" opacity="1.000000" stroke="none" 
	d="
M201.000000,198.531342 
	C201.000000,199.000000 200.530212,199.000000 200.295959,199.000000 
	C200.041672,133.312439 200.021637,67.624878 200.000809,1.468656 
	C200.333344,2.329660 200.957306,3.659106 200.958282,4.989014 
	C201.005997,69.346878 201.000000,133.704788 201.000000,198.531342 
z"/>
<path fill="#FCFCFD" opacity="1.000000" stroke="none" 
	d="
M139.998016,116.645905 
	C145.606216,116.645920 150.715149,116.645920 155.900284,116.645920 
	C152.324692,139.059052 133.092896,157.217026 110.224068,158.769058 
	C100.773422,159.410431 90.669060,158.955643 81.685463,156.257584 
	C59.416378,149.569443 48.058929,132.921677 45.124115,110.381897 
	C43.465668,97.644806 44.574509,85.021004 50.219742,73.276817 
	C60.321484,52.261417 77.959557,43.271259 100.551414,42.537579 
	C127.934120,41.648308 148.756104,56.756031 155.544495,82.467964 
	C155.746613,83.233528 155.792633,84.040314 155.987213,85.330276 
	C144.089630,85.330276 132.463776,85.399323 120.842163,85.209129 
	C119.829582,85.192558 118.504196,83.649750 117.902878,82.510414 
	C114.156822,75.412590 108.153214,72.125336 100.365883,72.367004 
	C92.299721,72.617325 86.314957,76.730225 83.273834,84.131187 
	C78.649338,95.385536 78.644005,106.920647 83.398796,118.151100 
	C86.531303,125.549835 92.566734,129.509888 100.627144,129.691620 
	C108.431213,129.867569 114.338417,126.572754 118.042480,119.387299 
	C118.725517,118.062263 120.938629,116.865532 122.510635,116.777916 
	C128.158264,116.463150 133.833786,116.649155 139.998016,116.645905 
z"/>
</svg>