<svg xmlns="http://www.w3.org/2000/svg" xmlns:xlink="http://www.w3.org/1999/xlink" version="1.1" width="400" height="400"><defs><linearGradient id="a" x1="130.08" y1="553.75" x2="472.29999" y2="211.53" gradientUnits="userSpaceOnUse"><stop offset="0" stop-color="#b13d5c"/><stop offset="0.18" stop-color="#c34d6a"/><stop offset="0.49" stop-color="#dc637c"/><stop offset="0.77" stop-color="#ec7088"/><stop offset="1" stop-color="#f1758c"/></linearGradient><linearGradient x1="259.03" y1="258.20001" x2="259.03" y2="258.20001" gradientUnits="userSpaceOnUse" gradientTransform="translate(-112,-195)"><stop offset="0" stop-color="#231f20" stop-opacity="0.87"/><stop offset="0.4" stop-color="#191617" stop-opacity="0.62"/><stop offset="1" stop-opacity="0"/></linearGradient><linearGradient xlink:href="#a" gradientUnits="userSpaceOnUse" x1="130.08" y1="553.75" x2="472.29999" y2="211.53" gradientTransform="translate(-112,-195)"/><filter><feFlood flood-opacity="0.34902" flood-color="rgb(0,0,0)" result="flood"/><feComposite in="flood" in2="SourceGraphic" operator="in" result="composite1"/><feGaussianBlur in="composite1" stdDeviation="3" result="blur"/><feOffset dx="1" dy="2.5" result="offset"/><feComposite in="SourceGraphic" in2="offset" operator="over" result="composite2"/></filter><filter id="d"><feFlood flood-opacity="0.301961" flood-color="rgb(0,0,0)" result="flood"/><feComposite in="flood" in2="SourceGraphic" operator="in" result="composite1"/><feGaussianBlur in="composite1" stdDeviation="4" result="blur"/><feOffset dx="2" dy="0" result="offset"/><feComposite in="SourceGraphic" in2="offset" operator="over" result="composite2"/></filter><filter id="e"><feFlood flood-opacity="0.301961" flood-color="rgb(0,0,0)" result="flood"/><feComposite in="flood" in2="SourceGraphic" operator="in" result="composite1"/><feGaussianBlur in="composite1" stdDeviation="4" result="blur"/><feOffset dx="2" dy="0" result="offset"/><feComposite in="SourceGraphic" in2="offset" operator="over" result="composite2"/></filter><filter id="f"><feFlood flood-opacity="0.2" flood-color="rgb(0,0,0)" result="flood"/><feComposite in="flood" in2="SourceGraphic" operator="in" result="composite1"/><feGaussianBlur in="composite1" stdDeviation="2.5" result="blur"/><feOffset dx="0.5" dy="0" result="offset"/><feComposite in="SourceGraphic" in2="offset" operator="over" result="composite2"/></filter><filter id="g"><feFlood flood-opacity="0.2" flood-color="rgb(0,0,0)" result="flood"/><feComposite in="flood" in2="SourceGraphic" operator="in" result="composite1"/><feGaussianBlur in="composite1" stdDeviation="2.5" result="blur"/><feOffset dx="0.5" dy="0" result="offset"/><feComposite in="SourceGraphic" in2="offset" operator="over" result="composite2"/></filter><filter id="c"><feFlood flood-opacity="0.4" flood-color="rgb(0,0,0)" result="flood"/><feComposite in="flood" in2="SourceGraphic" operator="in" result="composite1"/><feGaussianBlur in="composite1" stdDeviation="3.5" result="blur"/><feOffset dx="1" dy="2" result="offset"/><feComposite in="SourceGraphic" in2="offset" operator="over" result="composite2"/></filter><linearGradient xlink:href="#a" id="b" gradientUnits="userSpaceOnUse" gradientTransform="translate(-101.19001,-182.62534)" x1="130.08" y1="553.75" x2="472.29999" y2="211.53"/></defs><path d="M 380.43999,51.054664 V 199.74466 a 181.61,181.61 0 0 1 -0.92,18.31 178.64,178.64 0 0 1 -11,46.34 c -0.38,1 -0.78,2 -1.2,3 a 176.45,176.45 0 0 1 -13.76,27.11 c -0.93,1.51 -1.9,3 -2.86,4.49 a 180.19,180.19 0 0 1 -133.39,80.11 v 0 c -3.33,0.3 -6.68,0.53 -10,0.66 q -3.45,0.14 -6.95,0.13 H 50.499993 a 30.93,30.93 0 0 1 -30.94,-30.95 v -148.66 c 0,-1.77 0,-3.55 0.08,-5.31 A 180.19,180.19 0 0 1 183.80999,20.804664 q 7.88,-0.69 15.95,-0.7 h 149.74 a 31,31 0 0 1 30.94,30.95 z" style="isolation:isolate;fill:url(#b);filter:url(#c)"/><path d="m 176.69999,249.59466 c -13.88,-27.49 -45,-43.24 -75.06,-33.74 -26.999997,8.55 -49.429997,35.21 -38.179997,64.41 6.5,16.84 20.74,28.48 37.189997,35 l -4.179997,-10.29 a 37.58,37.58 0 0 0 -0.09,37.73 c 6.769997,11.51 19.329997,18.42 32.459997,19.48 12.25,1 24.83,-3.65 32.39,-13.55 9.43,-12.35 8.61,-28.71 2,-42.1 -4,-8.08 -16.08,-1 -12.09,7.06 4.13,8.36 4.91,19.18 -1.16,26.87 -5,6.28 -13.42,8.57 -21.12,7.72 -17.55,-1.92 -29.469997,-20 -20.28,-36.14 2.43,-4.27 0,-8.64 -4.18,-10.28 -19.999997,-7.93 -38.459997,-30.93 -25.739997,-52.46 11.09,-18.76 36.889997,-26.71 56.999997,-19.61 13,4.59 22.9,14.88 29,27 4.06,8.05 16.14,1 12.09,-7.06 z" style="isolation:isolate;fill:#f7f1f0;filter:url(#d)"/><path d="m 138.87999,255.10466 c -8.72,-8 -21.88,-10.93 -32.49,-4.7 -9.999997,5.91 -13.999997,18.19 -10.219997,29 a 5.93,5.93 0 0 0 5.479997,4.18 c 14.38,0.76 27.09,14.5 22.22,29.59 -2.26,7 8.71,10 11,3 7.16,-22.17 -11.32,-42.81 -33.18,-44 l 5.49,4.17 c -2.12,-6.08 -0.9,-12.69 5,-16.18 6.1,-3.61 13.74,-1.66 18.71,2.92 5.37,5 13.43,-3.07 8,-8 z" style="isolation:isolate;fill:#f7f1f0;filter:url(#e)"/><path d="m 281.80999,127.96466 c -27.19,34.28 -80.61,37.58 -114.78,12.53 a 69.72,69.72 0 0 1 -13.32,-12.53 v 8 c 27.18,-34.28 80.61,-37.579996 114.77,-12.53 a 69.48,69.48 0 0 1 13.33,12.57 c 4.54,5.73 12.53,-2.36 8,-8 -11.07,-14 -28.42,-23.95 -45.32,-28.799996 -27.82,-8 -58.86,-2.9 -82.44,13.929996 -6,4.26 -11.83,9.1 -16.41,14.87 a 5.94,5.94 0 0 0 0,8 c 11.08,14 28.43,23.95 45.33,28.8 27.81,8 58.86,2.9 82.43,-13.93 6,-4.26 11.84,-9.1 16.41,-14.87 4.57,-5.77 -3.45,-13.77 -8,-8.04 z" style="isolation:isolate;fill:#f7f1f0;filter:url(#f)"/><path d="m 286.80999,79.284664 c -6.22,-1.87 -7.29,-6.85 -9.56,-12.24 a 42.88,42.88 0 0 0 -9.82,-14.6 38.06,38.06 0 0 0 -32,-9.89 34.45,34.45 0 0 0 -10.75,3.95 c -2.66,1.45 -5.16,2.53 -8.27,2 -3.11,-0.53 -5.89,-2.75 -8.83,-4 a 32.46,32.46 0 0 0 -11.21,-2.46 37.92,37.92 0 0 0 -29.56,12.7 48.34,48.34 0 0 0 -9.07,16 c -2.32,6.54 -6.09,7.93 -12.45,9.72 -12.79,3.58 -25.54,8.36 -37,15.2 -16.389997,9.789996 -31.999997,25.999996 -27.999997,46.629996 3.31,17.08 19.47,29.08 33.999997,36.53 22.57,11.6 48,17 73.05,19.63 a 294.1,294.1 0 0 0 86.73,-3.67 c 21.83,-4.27 44.76,-11.35 62.65,-25 13.22,-10.12 23.64,-25.36 19.08,-42.7 -5.67,-21.59 -29.32,-33.879996 -48.42,-41.259996 a 190.37,190.37 0 0 0 -20.57,-6.54 c -9.34,-2.44 -13.33,12 -4,14.47 12,3.12 23.79,7.089996 34.66,13.089996 7.66,4.23 15.6,9.53 20.45,17 7.57,11.64 3.08,22 -6.48,30.81 -13.9,12.75 -33.58,19.14 -51.53,23.49 -25.13,6.08 -51.26,7.81 -77,6.51 -23.73,-1.2 -47.68,-5.16 -69.92,-13.76 -13.69,-5.3 -30,-13.59 -36.579997,-27.15 a 14.46,14.46 0 0 1 -1.15,-3.13 c -0.14,-0.52 -0.71,-3.61 -0.6,-2.67 a 18.66,18.66 0 0 1 1.35,-9.66 c 3,-7.24 9.449997,-12.87 15.799997,-17.14 9.67,-6.48 20.48,-11 31.55,-14.489996 5.73,-1.8 12.12,-2.69 17.26,-5.95 a 27,27 0 0 0 10.82,-13.84 c 3.54,-9.65 9.4,-18 20.3,-19.63 a 19.71,19.71 0 0 1 8.61,0.54 c 3.73,1.15 6.82,3.69 10.6,4.8 a 26.37,26.37 0 0 0 19.86,-2.29 c 5.51,-2.89 10.61,-4.06 16.7,-2.4 a 22.89,22.89 0 0 1 12,8 c 3.87,4.89 4.68,10.86 7.78,16.09 a 26.72,26.72 0 0 0 15.52,11.78 c 9.3,2.78 13.26,-11.7 4,-14.47 z" style="isolation:isolate;fill:#f7f1f0;filter:url(#g)"/></svg>