<svg version="1.1" id="Layer_1" xmlns="http://www.w3.org/2000/svg" xmlns:xlink="http://www.w3.org/1999/xlink" x="0px" y="0px"
	 width="100%" viewBox="0 0 520 507" enable-background="new 0 0 520 507" xml:space="preserve">
<path fill="#FFFFFF" opacity="1.000000" stroke="none" 
	d="
M296.000000,508.000000 
	C197.357224,508.000000 99.214447,508.000000 1.035836,508.000000 
	C1.035836,339.065033 1.035836,170.130035 1.035836,1.097529 
	C174.226089,1.097529 347.452240,1.097529 520.839233,1.097529 
	C520.839233,169.999878 520.839233,338.999939 520.839233,508.000000 
	C446.130096,508.000000 371.315033,508.000000 296.000000,508.000000 
M438.964325,57.544209 
	C438.067871,56.800957 437.210236,56.004066 436.269165,55.322380 
	C417.123718,41.454247 395.149353,37.132694 372.171448,37.075260 
	C301.677582,36.899044 231.182770,36.920353 160.688919,37.102608 
	C149.250946,37.132179 137.704132,37.589825 126.401909,39.207272 
	C98.325912,43.225182 76.511002,57.511196 61.453331,81.635742 
	C50.255306,99.576576 47.065647,119.658676 47.037083,140.350418 
	C46.938843,211.511215 46.913235,282.672424 47.091427,353.832886 
	C47.118389,364.601807 47.624084,375.479645 49.210598,386.112823 
	C53.221676,412.995941 66.797577,434.054169 89.575630,449.127014 
	C108.083351,461.374054 128.915176,464.853302 150.439590,464.913879 
	C221.266632,465.113251 292.094818,465.074066 362.921997,464.898163 
	C373.695190,464.871429 384.561981,464.321411 395.218231,462.823547 
	C423.527222,458.844482 445.484589,444.485016 460.627838,420.211700 
	C471.719208,402.433289 474.917633,382.474609 474.952972,361.957458 
	C475.076141,290.463440 475.085663,218.968887 474.908051,147.475098 
	C474.881714,136.871185 474.322266,126.166466 472.780609,115.689201 
	C469.326385,92.213989 458.263092,72.810272 438.964325,57.544209 
z"/>
<path fill="#C00330" opacity="1.000000" stroke="none" 
	d="
M439.245239,57.764915 
	C458.263092,72.810272 469.326385,92.213989 472.780609,115.689201 
	C474.322266,126.166466 474.881714,136.871185 474.908051,147.475098 
	C475.085663,218.968887 475.076141,290.463440 474.952972,361.957458 
	C474.917633,382.474609 471.719208,402.433289 460.627838,420.211700 
	C445.484589,444.485016 423.527222,458.844482 395.218231,462.823547 
	C384.561981,464.321411 373.695190,464.871429 362.921997,464.898163 
	C292.094818,465.074066 221.266632,465.113251 150.439590,464.913879 
	C128.915176,464.853302 108.083351,461.374054 89.575630,449.127014 
	C66.797577,434.054169 53.221676,412.995941 49.210598,386.112823 
	C47.624084,375.479645 47.118389,364.601807 47.091427,353.832886 
	C46.913235,282.672424 46.938843,211.511215 47.037083,140.350418 
	C47.065647,119.658676 50.255306,99.576576 61.453331,81.635742 
	C76.511002,57.511196 98.325912,43.225182 126.401909,39.207272 
	C137.704132,37.589825 149.250946,37.132179 160.688919,37.102608 
	C231.182770,36.920353 301.677582,36.899044 372.171448,37.075260 
	C395.149353,37.132694 417.123718,41.454247 436.269165,55.322380 
	C437.210236,56.004066 438.067871,56.800957 439.245239,57.764915 
M373.213165,178.882584 
	C376.194183,169.851837 381.260620,162.112106 387.864044,155.342529 
	C392.167053,150.931229 396.309967,146.327560 400.933105,142.276245 
	C404.591400,139.070435 404.441101,136.790863 401.249939,133.282196 
	C391.837097,122.932869 382.768433,112.270569 373.561157,101.734215 
	C367.774536,95.112358 361.980804,88.496712 356.683746,82.442307 
	C292.789886,123.604279 229.702271,123.580101 166.132935,82.405403 
	C150.252213,100.607178 134.073608,119.150360 117.988609,137.586258 
	C118.272247,138.216156 118.334091,138.581833 118.548363,138.792419 
	C119.973633,140.193085 121.449081,141.542633 122.875992,142.941681 
	C134.312057,154.154327 145.592987,165.316025 150.674515,181.324051 
	C154.272949,192.659973 155.278549,204.056183 155.061981,215.793747 
	C154.865707,226.430939 153.801743,237.318222 155.559525,247.681519 
	C165.744843,307.730560 193.945251,358.532104 236.854095,401.334625 
	C244.445877,408.907593 253.063507,415.452148 261.134705,422.408966 
	C301.208832,391.495972 330.070129,352.817749 349.993103,307.589417 
	C362.990997,278.082153 370.871185,247.249481 367.906830,214.419632 
	C366.834595,202.544647 368.362427,190.797974 373.213165,178.882584 
z"/>
<path fill="#F7E2E5" opacity="1.000000" stroke="none" 
	d="
M373.101654,179.256561 
	C368.362427,190.797974 366.834595,202.544647 367.906830,214.419632 
	C370.871185,247.249481 362.990997,278.082153 349.993103,307.589417 
	C330.070129,352.817749 301.208832,391.495972 261.134705,422.408966 
	C253.063507,415.452148 244.445877,408.907593 236.854095,401.334625 
	C193.945251,358.532104 165.744843,307.730560 155.559525,247.681519 
	C153.801743,237.318222 154.865707,226.430939 155.061981,215.793747 
	C155.278549,204.056183 154.272949,192.659973 150.674515,181.324051 
	C145.592987,165.316025 134.312057,154.154327 122.875992,142.941681 
	C121.449081,141.542633 119.973633,140.193085 118.548363,138.792419 
	C118.334091,138.581833 118.272247,138.216156 117.988609,137.586258 
	C134.073608,119.150360 150.252213,100.607178 166.132935,82.405403 
	C229.702271,123.580101 292.789886,123.604279 356.683746,82.442307 
	C361.980804,88.496712 367.774536,95.112358 373.561157,101.734215 
	C382.768433,112.270569 391.837097,122.932869 401.249939,133.282196 
	C404.441101,136.790863 404.591400,139.070435 400.933105,142.276245 
	C396.309967,146.327560 392.167053,150.931229 387.864044,155.342529 
	C381.260620,162.112106 376.194183,169.851837 373.101654,179.256561 
M134.738998,122.242546 
	C130.284058,127.349518 125.829109,132.456497 121.146111,137.824890 
	C125.089348,141.706329 128.705338,145.367340 132.429703,148.914581 
	C152.047684,167.599533 158.846008,190.783859 157.520569,217.316772 
	C156.942795,228.882736 157.081329,240.730270 158.909546,252.126694 
	C165.646515,294.122681 184.680908,330.911285 208.774704,365.385254 
	C223.317062,386.192780 241.360855,403.506134 261.471771,418.928864 
	C301.644836,387.365814 330.725281,347.644928 350.007111,300.959656 
	C361.253357,273.730164 368.416626,245.381378 365.393372,215.286255 
	C364.670898,208.094360 365.381134,200.591125 366.541199,193.410202 
	C369.542755,174.829727 378.584045,159.379303 392.512268,146.771729 
	C395.668732,143.914505 398.887604,141.126205 402.113373,138.274658 
	C386.054749,119.904381 370.871002,102.534920 356.311798,85.879875 
	C292.631256,125.904587 230.012436,125.883339 166.521454,85.876968 
	C156.429123,97.418152 145.812012,109.559464 134.738998,122.242546 
z"/>
<path fill="#C20F35" opacity="1.000000" stroke="none" 
	d="
M134.966949,121.971664 
	C145.812012,109.559464 156.429123,97.418152 166.521454,85.876968 
	C230.012436,125.883339 292.631256,125.904587 356.311798,85.879875 
	C370.871002,102.534920 386.054749,119.904381 402.113373,138.274658 
	C398.887604,141.126205 395.668732,143.914505 392.512268,146.771729 
	C378.584045,159.379303 369.542755,174.829727 366.541199,193.410202 
	C365.381134,200.591125 364.670898,208.094360 365.393372,215.286255 
	C368.416626,245.381378 361.253357,273.730164 350.007111,300.959656 
	C330.725281,347.644928 301.644836,387.365814 261.471771,418.928864 
	C241.360855,403.506134 223.317062,386.192780 208.774704,365.385254 
	C184.680908,330.911285 165.646515,294.122681 158.909546,252.126694 
	C157.081329,240.730270 156.942795,228.882736 157.520569,217.316772 
	C158.846008,190.783859 152.047684,167.599533 132.429703,148.914581 
	C128.705338,145.367340 125.089348,141.706329 121.146111,137.824890 
	C125.829109,132.456497 130.284058,127.349518 134.966949,121.971664 
M334.873596,321.336792 
	C348.514557,295.438049 357.524841,268.016235 360.147888,238.850525 
	C361.246124,226.639313 359.432617,214.186661 360.173523,201.918106 
	C361.293488,183.371735 367.329956,166.432922 380.093842,152.413895 
	C384.683044,147.373383 389.439301,142.484940 394.316132,137.318604 
	C381.157745,122.255722 368.031982,107.230171 355.461273,92.840019 
	C292.435669,130.175323 230.227493,130.269547 167.370926,92.813683 
	C154.663162,107.374214 141.579849,122.365044 127.981361,137.946152 
	C131.528793,141.217728 134.734070,144.123199 137.883881,147.087616 
	C149.783752,158.287048 157.666779,172.080048 160.468414,187.939865 
	C162.530121,199.611069 161.960876,211.749420 162.528931,223.681259 
	C162.939651,232.308167 162.434845,241.077621 163.814270,249.542984 
	C171.368347,295.901428 192.794006,335.970337 221.022278,372.768524 
	C232.537109,387.779144 246.466919,400.413055 261.348602,412.247650 
	C292.512238,387.471558 315.923126,356.686646 334.873596,321.336792 
z"/>
<path fill="#FCF6F7" opacity="1.000000" stroke="none" 
	d="
M334.694580,321.661407 
	C315.923126,356.686646 292.512238,387.471558 261.348602,412.247650 
	C246.466919,400.413055 232.537109,387.779144 221.022278,372.768524 
	C192.794006,335.970337 171.368347,295.901428 163.814270,249.542984 
	C162.434845,241.077621 162.939651,232.308167 162.528931,223.681259 
	C161.960876,211.749420 162.530121,199.611069 160.468414,187.939865 
	C157.666779,172.080048 149.783752,158.287048 137.883881,147.087616 
	C134.734070,144.123199 131.528793,141.217728 127.981361,137.946152 
	C141.579849,122.365044 154.663162,107.374214 167.370926,92.813683 
	C230.227493,130.269547 292.435669,130.175323 355.461273,92.840019 
	C368.031982,107.230171 381.157745,122.255722 394.316132,137.318604 
	C389.439301,142.484940 384.683044,147.373383 380.093842,152.413895 
	C367.329956,166.432922 361.293488,183.371735 360.173523,201.918106 
	C359.432617,214.186661 361.246124,226.639313 360.147888,238.850525 
	C357.524841,268.016235 348.514557,295.438049 334.694580,321.661407 
M231.888977,379.285004 
	C231.360382,379.374084 230.831772,379.463196 230.303177,379.552277 
	C230.612061,379.908691 230.920929,380.265076 231.592590,381.189697 
	C239.916840,389.351440 248.241104,397.513153 256.565369,405.674896 
	C256.931885,405.365631 257.298431,405.056396 257.664978,404.747131 
	C257.664978,396.354919 257.664978,387.962738 257.651886,379.568695 
	C243.270279,383.595154 242.955704,383.597717 231.888977,379.285004 
M225.896927,374.806854 
	C226.252792,375.041656 226.608643,375.276459 226.964493,375.511261 
	C226.813812,374.854370 226.663132,374.197479 226.243820,372.860504 
	C225.620483,371.500214 224.795044,370.194641 224.409042,368.770050 
	C222.801544,362.837280 223.061249,357.070190 227.493591,352.386566 
	C231.702148,347.939423 237.129593,347.385071 242.755081,349.049591 
	C247.117828,350.340515 250.010361,353.285950 250.192795,358.004883 
	C250.364807,362.454620 246.971298,364.231049 243.490601,365.710266 
	C242.332367,366.202515 241.123901,366.576508 239.416199,367.193115 
	C242.602249,370.194946 245.309631,369.304138 247.840530,367.535278 
	C254.051056,363.194733 256.756744,356.911926 256.998718,349.565796 
	C257.037994,348.373718 255.760864,346.469940 254.635956,346.009338 
	C240.337631,340.154388 226.523514,338.869904 214.469208,351.099823 
	C214.300201,351.271301 213.844238,351.159912 213.440109,351.185791 
	C208.850159,346.204407 209.162842,340.440094 210.882416,335.394073 
	C208.512207,332.336487 206.208435,330.090485 204.794128,327.380310 
	C202.297943,322.596893 203.044342,320.938324 208.109161,319.420074 
	C211.244400,318.480255 214.569092,318.172455 217.794174,317.583557 
	C218.846649,308.161896 220.717361,305.678192 227.714493,304.521484 
	C231.536728,320.081360 242.047470,328.102386 257.870972,330.989624 
	C257.870972,328.952972 257.871002,327.334991 257.871002,325.716980 
	C257.871033,312.557343 257.646210,299.391693 257.997894,286.241455 
	C258.114746,281.873444 256.545135,280.450012 252.599289,279.864685 
	C243.178391,278.467163 234.707611,274.666290 227.452515,268.493652 
	C217.174957,259.749512 215.086853,246.903458 221.708267,235.153488 
	C226.519836,226.615204 233.633499,220.909500 242.916168,218.003052 
	C247.470459,216.577087 252.171570,215.619965 256.750427,214.464737 
	C257.502747,206.464264 250.253998,205.812073 244.490738,202.061035 
	C249.525772,198.026276 253.708984,194.674118 257.892181,191.321945 
	C257.613007,191.042725 257.333801,190.763489 257.054626,190.484253 
	C226.145828,190.484253 195.237030,190.484253 164.970367,190.484253 
	C164.970367,202.718979 164.764755,214.666428 165.040894,226.602722 
	C165.232742,234.895401 165.388367,243.290680 166.763290,251.437042 
	C173.613403,292.023499 191.917511,327.634125 215.364120,360.892822 
	C218.603394,365.487671 222.341232,369.731018 225.896927,374.806854 
M366.076141,168.661163 
	C373.825043,157.963043 381.573975,147.264938 389.708160,136.034897 
	C378.618927,123.340584 366.586487,109.566551 355.013245,96.318199 
	C292.392120,132.647629 230.451996,132.663208 167.809692,96.316193 
	C156.242142,109.558502 144.207596,123.335411 131.874084,137.454590 
	C146.136887,150.442184 157.932693,164.845108 162.148453,184.029099 
	C163.806427,184.029099 164.794434,184.029099 165.782455,184.029099 
	C229.261490,184.028946 292.740540,184.028793 356.219574,184.028656 
	C356.719391,184.028656 357.337738,184.218491 357.697449,183.993958 
	C358.909515,183.237381 360.564941,182.579391 361.087830,181.441269 
	C362.889191,177.520615 364.282654,173.412567 366.076141,168.661163 
M297.090485,325.525940 
	C291.376953,329.552582 285.663422,333.579254 279.949921,337.605896 
	C279.722015,337.255585 279.494141,336.905273 279.266235,336.554993 
	C279.266235,338.461060 279.266235,340.367157 279.266235,342.535431 
	C289.536652,341.093750 298.763550,338.034851 306.537933,331.529663 
	C315.609528,323.939087 319.102844,314.022369 317.233215,302.506805 
	C314.693573,286.864258 304.070618,278.764038 289.632019,275.120667 
	C282.071106,273.212799 274.142212,272.770905 266.570892,270.894562 
	C258.903778,268.994476 250.959000,267.108093 244.075439,263.448395 
	C236.402206,259.368866 233.845932,251.523895 234.926788,242.822739 
	C235.914642,234.870239 241.254959,230.577011 248.164932,228.060608 
	C251.876190,226.709091 255.873611,225.757812 259.804596,225.463608 
	C274.778076,224.342957 293.949921,227.684631 301.418182,246.863022 
	C301.468994,246.993454 301.957489,246.953430 303.542206,247.174118 
	C303.311340,242.707596 303.092926,238.482407 302.892944,234.613327 
	C306.893860,234.236526 311.651184,233.788498 317.017914,233.283066 
	C314.390381,226.452942 309.409271,225.112488 303.866943,223.938309 
	C308.033630,220.653244 310.096954,217.110931 308.429230,212.202377 
	C307.888458,212.310928 307.676392,212.288055 307.594513,212.380478 
	C307.050629,212.994781 306.537964,213.636581 306.009033,214.264282 
	C299.458679,222.037338 291.672333,224.319580 281.477570,221.934753 
	C272.842377,219.914764 263.653564,219.056976 254.811951,219.543259 
	C248.826508,219.872467 242.032959,222.135590 237.303482,225.757217 
	C218.173553,240.405991 218.415512,261.137848 241.415710,271.543762 
	C247.808212,274.435913 255.026596,275.924164 262.028198,276.948425 
	C272.179474,278.433472 282.065704,280.141754 290.650818,286.266663 
	C304.615387,296.229401 307.253296,310.833038 297.090485,325.525940 
M228.238022,366.709015 
	C234.204132,379.694427 244.996262,382.838928 256.070038,373.964386 
	C261.119965,369.917389 264.782135,364.138611 269.093140,359.122711 
	C272.285187,364.158203 277.160004,367.464935 285.580627,365.628693 
	C277.191010,361.816223 274.721924,355.741394 274.660309,348.156982 
	C274.518311,330.677216 274.231232,313.198730 274.025909,295.719421 
	C273.977264,291.579346 274.018677,287.438171 274.018677,283.004486 
	C270.269165,282.399353 266.774719,281.835388 262.835663,281.199677 
	C262.835663,285.595703 262.919922,289.408661 262.821594,293.216919 
	C262.297394,313.516083 261.990967,333.826508 261.032990,354.105804 
	C260.689911,361.367737 256.709229,367.397186 250.426178,371.349518 
	C242.804260,376.144043 235.484482,372.320923 234.454254,362.969238 
	C236.628769,362.969238 238.798569,363.171082 240.914566,362.919830 
	C243.773300,362.580414 246.661407,361.194580 245.720154,357.965912 
	C245.136642,355.964386 242.597824,353.500641 240.593201,353.136749 
	C234.246262,351.984711 226.071930,356.103516 228.238022,366.709015 
M221.434509,323.877625 
	C217.324112,323.409271 213.213730,322.940918 208.023682,322.349548 
	C210.528214,329.701019 215.571503,331.440460 220.509583,333.354248 
	C214.163162,337.775085 213.135239,339.825012 214.911743,344.925415 
	C228.096100,333.077423 242.756119,337.144836 257.582458,341.475342 
	C257.582458,339.299530 257.582458,337.719177 257.582458,335.874908 
	C241.413040,334.028412 230.358627,325.631592 223.759857,310.620453 
	C223.128601,314.235657 223.183075,317.837250 223.089142,321.434967 
	C223.066513,322.301819 222.552231,323.155884 221.434509,323.877625 
M247.434906,231.721130 
	C240.571259,237.069458 237.621231,244.276505 239.624115,251.211365 
	C242.204147,260.144592 249.652634,262.723541 257.496124,265.291718 
	C257.496124,253.015472 257.496124,241.346741 257.496124,228.662567 
	C253.936554,229.653534 250.992004,230.473282 247.434906,231.721130 
M275.402405,235.679260 
	C275.191650,230.242844 272.145294,228.828979 263.088989,230.077133 
	C263.088989,241.988037 263.088989,253.924576 263.088989,266.317780 
	C267.047760,267.069611 270.890533,267.799408 275.401642,268.656128 
	C275.401642,257.539978 275.401642,247.093079 275.402405,235.679260 
M267.631134,201.759262 
	C261.400055,196.360489 256.131439,196.309952 252.489532,201.869110 
	C258.534637,204.100143 262.934937,207.766022 262.683228,214.555435 
	C267.261658,215.171188 271.336945,215.719254 275.775055,216.316132 
	C276.262207,209.403427 279.199677,204.165833 286.301575,201.160004 
	C284.256104,199.555252 281.991150,197.694016 280.209137,198.077377 
	C277.012268,198.765106 273.849182,200.452301 271.177460,202.411179 
	C269.662933,203.521591 269.115356,204.401764 267.631134,201.759262 
z"/>
<path fill="#C00531" opacity="1.000000" stroke="none" 
	d="
M225.848251,374.137115 
	C222.341232,369.731018 218.603394,365.487671 215.364120,360.892822 
	C191.917511,327.634125 173.613403,292.023499 166.763290,251.437042 
	C165.388367,243.290680 165.232742,234.895401 165.040894,226.602722 
	C164.764755,214.666428 164.970367,202.718979 164.970367,190.484253 
	C195.237030,190.484253 226.145828,190.484253 257.054626,190.484253 
	C257.333801,190.763489 257.613007,191.042725 257.892181,191.321945 
	C253.708984,194.674118 249.525772,198.026276 244.490738,202.061035 
	C250.253998,205.812073 257.502747,206.464264 256.750427,214.464737 
	C252.171570,215.619965 247.470459,216.577087 242.916168,218.003052 
	C233.633499,220.909500 226.519836,226.615204 221.708267,235.153488 
	C215.086853,246.903458 217.174957,259.749512 227.452515,268.493652 
	C234.707611,274.666290 243.178391,278.467163 252.599289,279.864685 
	C256.545135,280.450012 258.114746,281.873444 257.997894,286.241455 
	C257.646210,299.391693 257.871033,312.557343 257.871002,325.716980 
	C257.871002,327.334991 257.870972,328.952972 257.870972,330.989624 
	C242.047470,328.102386 231.536728,320.081360 227.714493,304.521484 
	C220.717361,305.678192 218.846649,308.161896 217.794174,317.583557 
	C214.569092,318.172455 211.244400,318.480255 208.109161,319.420074 
	C203.044342,320.938324 202.297943,322.596893 204.794128,327.380310 
	C206.208435,330.090485 208.512207,332.336487 210.882416,335.394073 
	C209.162842,340.440094 208.850159,346.204407 213.440109,351.185791 
	C213.844238,351.159912 214.300201,351.271301 214.469208,351.099823 
	C226.523514,338.869904 240.337631,340.154388 254.635956,346.009338 
	C255.760864,346.469940 257.037994,348.373718 256.998718,349.565796 
	C256.756744,356.911926 254.051056,363.194733 247.840530,367.535278 
	C245.309631,369.304138 242.602249,370.194946 239.416199,367.193115 
	C241.123901,366.576508 242.332367,366.202515 243.490601,365.710266 
	C246.971298,364.231049 250.364807,362.454620 250.192795,358.004883 
	C250.010361,353.285950 247.117828,350.340515 242.755081,349.049591 
	C237.129593,347.385071 231.702148,347.939423 227.493591,352.386566 
	C223.061249,357.070190 222.801544,362.837280 224.409042,368.770050 
	C224.795044,370.194641 225.620483,371.500214 226.209671,373.346985 
	C226.175522,373.833496 225.848251,374.137115 225.848251,374.137115 
z"/>
<path fill="#C10732" opacity="1.000000" stroke="none" 
	d="
M365.953827,169.018524 
	C364.282654,173.412567 362.889191,177.520615 361.087830,181.441269 
	C360.564941,182.579391 358.909515,183.237381 357.697449,183.993958 
	C357.337738,184.218491 356.719391,184.028656 356.219574,184.028656 
	C292.740540,184.028793 229.261490,184.028946 165.782455,184.029099 
	C164.794434,184.029099 163.806427,184.029099 162.148453,184.029099 
	C157.932693,164.845108 146.136887,150.442184 131.874084,137.454590 
	C144.207596,123.335411 156.242142,109.558502 167.809692,96.316193 
	C230.451996,132.663208 292.392120,132.647629 355.013245,96.318199 
	C366.586487,109.566551 378.618927,123.340584 389.708160,136.034897 
	C381.573975,147.264938 373.825043,157.963043 365.953827,169.018524 
M244.309250,169.544449 
	C250.214783,168.397156 252.722198,171.419815 254.181641,176.760025 
	C254.727890,178.758804 257.507172,181.804031 258.894409,181.615845 
	C263.688538,180.965530 268.860260,179.953659 272.835754,177.424850 
	C275.929779,175.456757 278.247681,174.556122 281.758179,175.268616 
	C287.300201,176.393448 290.157562,174.618942 291.023987,169.049362 
	C291.668854,164.904114 291.151001,160.577972 291.151001,156.292831 
	C296.721802,155.579102 302.310364,154.752258 307.924377,154.171234 
	C315.330231,153.404770 321.983002,154.420685 327.338898,160.668427 
	C331.272430,165.257004 335.787537,165.606491 341.346161,162.445343 
	C346.583191,159.467056 351.439606,159.724762 356.440918,162.669769 
	C357.363190,163.212845 358.402283,163.557480 359.938110,164.237518 
	C358.393127,151.927872 350.303925,147.074005 339.948364,144.138809 
	C348.136292,142.373566 356.146423,140.417389 361.029602,133.111404 
	C365.709778,126.109161 367.546295,118.466202 364.706055,110.010086 
	C361.675201,111.324959 359.187653,112.731575 356.516510,113.499809 
	C349.322235,115.568939 344.394012,120.165627 340.873566,126.568169 
	C339.591553,128.899734 338.260590,131.219025 336.761963,133.414215 
	C331.350769,141.340393 317.277039,147.197388 308.059967,144.727570 
	C301.851929,143.064026 295.966400,141.066040 290.999207,145.637634 
	C289.598236,139.455750 288.300842,133.730774 286.982910,127.915352 
	C277.669739,129.001968 268.574463,123.242622 260.930817,130.747711 
	C251.083603,121.699257 229.070175,122.385185 226.635620,134.989365 
	C229.940201,139.344757 232.900925,143.246964 236.154785,147.535507 
	C230.700684,147.535507 226.065262,147.535507 221.262650,147.535507 
	C221.458633,146.581879 221.535416,146.103226 221.656204,145.635941 
	C224.331375,135.287079 220.879211,126.940689 211.675598,121.517952 
	C203.388748,116.635368 193.992355,117.995613 186.605026,125.324432 
	C183.540192,128.364990 180.585693,131.544907 177.856674,134.886581 
	C175.796646,137.409058 176.281067,139.650253 179.799591,140.264267 
	C181.565262,140.572388 183.463028,140.511307 185.247543,140.250748 
	C190.515030,139.481552 195.730148,138.288406 201.015182,137.724899 
	C205.299911,137.268036 207.859161,139.928940 208.940506,143.850067 
	C209.916367,147.388733 208.642120,149.634476 205.066681,151.303375 
	C193.388565,156.754349 181.866547,162.542389 170.328369,168.288849 
	C166.977554,169.957687 165.533310,175.303604 167.960617,178.891052 
	C170.215683,182.223984 173.458923,180.717026 176.272339,179.089340 
	C177.422440,178.423965 178.452301,177.550079 179.604874,176.889801 
	C184.493591,174.089081 189.212234,170.873413 194.363876,168.680710 
	C200.353912,166.131165 206.187592,167.037704 210.687485,172.304626 
	C214.828079,177.150986 220.192947,179.766373 226.372208,180.059357 
	C234.358871,180.438049 242.377075,180.151672 251.837357,180.151672 
	C248.102478,176.018448 245.466751,173.101593 243.163666,169.813065 
	C243.163666,169.813065 243.469482,169.418991 244.309250,169.544449 
z"/>
<path fill="#C10A34" opacity="1.000000" stroke="none" 
	d="
M297.329193,325.252167 
	C307.253296,310.833038 304.615387,296.229401 290.650818,286.266663 
	C282.065704,280.141754 272.179474,278.433472 262.028198,276.948425 
	C255.026596,275.924164 247.808212,274.435913 241.415710,271.543762 
	C218.415512,261.137848 218.173553,240.405991 237.303482,225.757217 
	C242.032959,222.135590 248.826508,219.872467 254.811951,219.543259 
	C263.653564,219.056976 272.842377,219.914764 281.477570,221.934753 
	C291.672333,224.319580 299.458679,222.037338 306.009033,214.264282 
	C306.537964,213.636581 307.050629,212.994781 307.594513,212.380478 
	C307.676392,212.288055 307.888458,212.310928 308.429230,212.202377 
	C310.096954,217.110931 308.033630,220.653244 303.866943,223.938309 
	C309.409271,225.112488 314.390381,226.452942 317.017914,233.283066 
	C311.651184,233.788498 306.893860,234.236526 302.892944,234.613327 
	C303.092926,238.482407 303.311340,242.707596 303.542206,247.174118 
	C301.957489,246.953430 301.468994,246.993454 301.418182,246.863022 
	C293.949921,227.684631 274.778076,224.342957 259.804596,225.463608 
	C255.873611,225.757812 251.876190,226.709091 248.164932,228.060608 
	C241.254959,230.577011 235.914642,234.870239 234.926788,242.822739 
	C233.845932,251.523895 236.402206,259.368866 244.075439,263.448395 
	C250.959000,267.108093 258.903778,268.994476 266.570892,270.894562 
	C274.142212,272.770905 282.071106,273.212799 289.632019,275.120667 
	C304.070618,278.764038 314.693573,286.864258 317.233215,302.506805 
	C319.102844,314.022369 315.609528,323.939087 306.537933,331.529663 
	C298.763550,338.034851 289.536652,341.093750 279.266235,342.535431 
	C279.266235,340.367157 279.266235,338.461060 279.266235,336.554993 
	C279.494141,336.905273 279.722015,337.255585 279.949921,337.605896 
	C285.663422,333.579254 291.376953,329.552582 297.329193,325.252167 
z"/>
<path fill="#C10A33" opacity="1.000000" stroke="none" 
	d="
M228.145111,366.307037 
	C226.071930,356.103516 234.246262,351.984711 240.593201,353.136749 
	C242.597824,353.500641 245.136642,355.964386 245.720154,357.965912 
	C246.661407,361.194580 243.773300,362.580414 240.914566,362.919830 
	C238.798569,363.171082 236.628769,362.969238 234.454254,362.969238 
	C235.484482,372.320923 242.804260,376.144043 250.426178,371.349518 
	C256.709229,367.397186 260.689911,361.367737 261.032990,354.105804 
	C261.990967,333.826508 262.297394,313.516083 262.821594,293.216919 
	C262.919922,289.408661 262.835663,285.595703 262.835663,281.199677 
	C266.774719,281.835388 270.269165,282.399353 274.018677,283.004486 
	C274.018677,287.438171 273.977264,291.579346 274.025909,295.719421 
	C274.231232,313.198730 274.518311,330.677216 274.660309,348.156982 
	C274.721924,355.741394 277.191010,361.816223 285.580627,365.628693 
	C277.160004,367.464935 272.285187,364.158203 269.093140,359.122711 
	C264.782135,364.138611 261.119965,369.917389 256.070038,373.964386 
	C244.996262,382.838928 234.204132,379.694427 228.145111,366.307037 
z"/>
<path fill="#C10C34" opacity="1.000000" stroke="none" 
	d="
M221.849274,323.946716 
	C222.552231,323.155884 223.066513,322.301819 223.089142,321.434967 
	C223.183075,317.837250 223.128601,314.235657 223.759857,310.620453 
	C230.358627,325.631592 241.413040,334.028412 257.582458,335.874908 
	C257.582458,337.719177 257.582458,339.299530 257.582458,341.475342 
	C242.756119,337.144836 228.096100,333.077423 214.911743,344.925415 
	C213.135239,339.825012 214.163162,337.775085 220.509583,333.354248 
	C215.571503,331.440460 210.528214,329.701019 208.023682,322.349548 
	C213.213730,322.940918 217.324112,323.409271 221.849274,323.946716 
z"/>
<path fill="#C10B34" opacity="1.000000" stroke="none" 
	d="
M247.741180,231.507080 
	C250.992004,230.473282 253.936554,229.653534 257.496124,228.662567 
	C257.496124,241.346741 257.496124,253.015472 257.496124,265.291718 
	C249.652634,262.723541 242.204147,260.144592 239.624115,251.211365 
	C237.621231,244.276505 240.571259,237.069458 247.741180,231.507080 
z"/>
<path fill="#C00530" opacity="1.000000" stroke="none" 
	d="
M275.402039,236.162720 
	C275.401642,247.093079 275.401642,257.539978 275.401642,268.656128 
	C270.890533,267.799408 267.047760,267.069611 263.088989,266.317780 
	C263.088989,253.924576 263.088989,241.988037 263.088989,230.077133 
	C272.145294,228.828979 275.191650,230.242844 275.402039,236.162720 
z"/>
<path fill="#C10C34" opacity="1.000000" stroke="none" 
	d="
M232.204208,379.777191 
	C242.955704,383.597717 243.270279,383.595154 257.658447,379.569641 
	C257.664978,387.962738 257.664978,396.354919 257.664978,404.747131 
	C257.298431,405.056396 256.931885,405.365631 256.565369,405.674896 
	C248.241104,397.513153 239.916840,389.351440 231.664200,380.705383 
	C231.891937,380.073090 232.048065,379.925140 232.204208,379.777191 
z"/>
<path fill="#C10B33" opacity="1.000000" stroke="none" 
	d="
M267.845978,202.052704 
	C269.115356,204.401764 269.662933,203.521591 271.177460,202.411179 
	C273.849182,200.452301 277.012268,198.765106 280.209137,198.077377 
	C281.991150,197.694016 284.256104,199.555252 286.301575,201.160004 
	C279.199677,204.165833 276.262207,209.403427 275.775055,216.316132 
	C271.336945,215.719254 267.261658,215.171188 262.683228,214.555435 
	C262.934937,207.766022 258.534637,204.100143 252.489532,201.869110 
	C256.131439,196.309952 261.400055,196.360489 267.845978,202.052704 
z"/>
<path fill="#C00531" opacity="1.000000" stroke="none" 
	d="
M226.343994,373.687042 
	C226.663132,374.197479 226.813812,374.854370 226.964493,375.511261 
	C226.608643,375.276459 226.252792,375.041656 225.872589,374.471985 
	C225.848251,374.137115 226.175522,373.833496 226.343994,373.687042 
z"/>
<path fill="#C10C34" opacity="1.000000" stroke="none" 
	d="
M231.482803,380.421265 
	C230.920929,380.265076 230.612061,379.908691 230.303177,379.552277 
	C230.831772,379.463196 231.360382,379.374084 232.046600,379.531097 
	C232.048065,379.925140 231.891937,380.073090 231.482803,380.421265 
z"/>
<path fill="#FAEEF0" opacity="1.000000" stroke="none" 
	d="
M242.831024,170.184753 
	C245.466751,173.101593 248.102478,176.018448 251.837357,180.151672 
	C242.377075,180.151672 234.358871,180.438049 226.372208,180.059357 
	C220.192947,179.766373 214.828079,177.150986 210.687485,172.304626 
	C206.187592,167.037704 200.353912,166.131165 194.363876,168.680710 
	C189.212234,170.873413 184.493591,174.089081 179.604874,176.889801 
	C178.452301,177.550079 177.422440,178.423965 176.272339,179.089340 
	C173.458923,180.717026 170.215683,182.223984 167.960617,178.891052 
	C165.533310,175.303604 166.977554,169.957687 170.328369,168.288849 
	C181.866547,162.542389 193.388565,156.754349 205.066681,151.303375 
	C208.642120,149.634476 209.916367,147.388733 208.940506,143.850067 
	C207.859161,139.928940 205.299911,137.268036 201.015182,137.724899 
	C195.730148,138.288406 190.515030,139.481552 185.247543,140.250748 
	C183.463028,140.511307 181.565262,140.572388 179.799591,140.264267 
	C176.281067,139.650253 175.796646,137.409058 177.856674,134.886581 
	C180.585693,131.544907 183.540192,128.364990 186.605026,125.324432 
	C193.992355,117.995613 203.388748,116.635368 211.675598,121.517952 
	C220.879211,126.940689 224.331375,135.287079 221.656204,145.635941 
	C221.535416,146.103226 221.458633,146.581879 221.262650,147.535507 
	C226.065262,147.535507 230.700684,147.535507 236.154785,147.535507 
	C232.900925,143.246964 229.940201,139.344757 226.635620,134.989365 
	C229.070175,122.385185 251.083603,121.699257 260.930817,130.747711 
	C268.574463,123.242622 277.669739,129.001968 286.982910,127.915352 
	C288.300842,133.730774 289.598236,139.455750 290.999207,145.637634 
	C295.966400,141.066040 301.851929,143.064026 308.059967,144.727570 
	C317.277039,147.197388 331.350769,141.340393 336.761963,133.414215 
	C338.260590,131.219025 339.591553,128.899734 340.873566,126.568169 
	C344.394012,120.165627 349.322235,115.568939 356.516510,113.499809 
	C359.187653,112.731575 361.675201,111.324959 364.706055,110.010086 
	C367.546295,118.466202 365.709778,126.109161 361.029602,133.111404 
	C356.146423,140.417389 348.136292,142.373566 339.948364,144.138809 
	C350.303925,147.074005 358.393127,151.927872 359.938110,164.237518 
	C358.402283,163.557480 357.363190,163.212845 356.440918,162.669769 
	C351.439606,159.724762 346.583191,159.467056 341.346161,162.445343 
	C335.787537,165.606491 331.272430,165.257004 327.338898,160.668427 
	C321.983002,154.420685 315.330231,153.404770 307.924377,154.171234 
	C302.310364,154.752258 296.721802,155.579102 291.151001,156.292831 
	C291.151001,160.577972 291.668854,164.904114 291.023987,169.049362 
	C290.157562,174.618942 287.300201,176.393448 281.758179,175.268616 
	C278.247681,174.556122 275.929779,175.456757 272.835754,177.424850 
	C268.860260,179.953659 263.688538,180.965530 258.894409,181.615845 
	C257.507172,181.804031 254.727890,178.758804 254.181641,176.760025 
	C252.722198,171.419815 250.214783,168.397156 243.622192,169.319626 
	C242.353348,169.133926 241.771530,169.173050 239.928833,169.296951 
	C241.705383,169.840408 242.268204,170.012589 242.831024,170.184753 
M360.934784,117.356834 
	C361.276367,116.703140 361.617920,116.049438 362.057526,115.208153 
	C352.311432,116.252922 342.392334,126.256386 338.845612,139.200668 
	C341.875397,136.650848 344.307892,133.541458 347.094849,130.791290 
	C350.250153,127.677673 353.723389,124.886276 357.002563,122.653152 
	C352.956207,128.102524 348.909851,133.551895 345.003662,138.812500 
	C353.259644,138.675232 363.279694,128.190231 362.694824,119.727455 
	C362.653503,119.129547 361.384460,118.616508 360.934784,117.356834 
M263.854889,178.225677 
	C271.450531,176.198593 273.608307,173.126663 272.399323,165.105225 
	C271.829987,163.276138 271.260620,161.447037 270.557098,159.186905 
	C275.388214,159.968033 275.283112,163.676834 276.720062,166.475189 
	C277.649323,168.284851 280.028137,170.059418 281.993591,170.374023 
	C283.267029,170.577805 285.654449,168.418411 286.356140,166.802628 
	C289.419250,159.749283 284.381927,153.172104 276.801727,151.807037 
	C270.954285,150.754028 268.286163,155.618073 262.923798,156.825241 
	C264.375732,151.102631 261.031525,147.598801 257.047058,142.779953 
	C257.490479,145.804153 257.729492,147.434219 258.050568,149.624100 
	C256.881317,149.020554 256.148102,148.761795 255.555206,148.316315 
	C252.121887,145.736725 248.711380,146.185013 245.390320,148.435333 
	C241.622467,150.988403 238.957169,154.380234 239.229843,159.132706 
	C239.307755,160.490738 240.572433,162.356140 241.802582,162.973724 
	C247.353317,165.760452 251.812973,166.525436 255.278992,160.898895 
	C256.453827,158.991745 258.434662,154.861435 262.016693,159.242722 
	C262.016693,159.242722 261.989960,159.721603 261.185028,159.721405 
	C259.744019,160.774857 257.216919,161.691223 257.063416,162.907196 
	C256.581635,166.723648 256.630035,170.710785 257.235321,174.510391 
	C257.482422,176.061447 259.685852,177.300873 261.554077,178.781281 
	C262.065155,178.589081 262.576233,178.396881 263.854889,178.225677 
M171.784729,173.511627 
	C172.183838,177.803787 174.629135,175.607452 176.243866,174.737488 
	C185.414154,169.796738 193.774567,163.066177 204.727737,162.134811 
	C205.351440,162.081772 206.023880,161.726761 206.532776,161.331116 
	C213.358582,156.024323 221.289581,154.873108 229.627029,154.827026 
	C231.162979,154.818542 232.691055,153.389084 234.222763,152.615479 
	C234.005096,152.125381 233.787445,151.635284 233.569794,151.145187 
	C227.532654,151.585938 221.495529,152.026703 215.365082,152.474274 
	C220.903107,136.973251 217.946167,127.538490 206.678375,124.235054 
	C196.941589,121.380486 186.667221,126.897636 184.548996,136.343964 
	C190.207062,135.496231 195.748840,134.344604 201.345901,133.917740 
	C206.936386,133.491394 210.327362,135.956650 211.836227,141.189377 
	C213.691742,147.624313 213.415878,153.822510 204.148178,156.021439 
	C191.944016,158.917130 182.249115,166.694962 171.784729,173.511627 
M227.488098,177.197266 
	C232.841888,177.197266 238.195679,177.197266 244.090424,177.197266 
	C236.919479,169.054718 224.261566,162.610535 216.250443,163.440002 
	C221.548935,166.471741 225.992401,169.014252 230.435867,171.556763 
	C230.177643,172.020370 229.919418,172.483963 229.661194,172.947571 
	C224.162811,171.073822 218.664413,169.200058 213.166031,167.326309 
	C215.672424,173.856888 220.817825,175.989853 227.488098,177.197266 
M240.980682,130.459122 
	C234.553406,131.583832 233.674515,133.689331 237.405472,139.024078 
	C240.659592,143.677002 245.428116,144.824814 252.659546,142.654877 
	C252.254715,141.806473 251.864441,140.988556 251.409882,140.035919 
	C253.721069,140.035919 255.829422,140.035919 257.995575,140.035919 
	C255.950623,133.442932 251.529877,130.855911 240.980682,130.459122 
M353.271545,155.758957 
	C344.490875,146.720413 333.133362,145.281296 328.505157,152.828934 
	C331.565674,153.368408 334.543823,153.893356 337.521973,154.418304 
	C337.536591,154.786621 337.551178,155.154938 337.565796,155.523254 
	C334.313232,155.819733 331.060699,156.116211 327.258636,156.462769 
	C330.862946,159.816422 334.696899,159.495773 338.650177,159.073685 
	C343.225098,158.585205 347.831085,158.390381 352.409973,157.932434 
	C352.910645,157.882355 353.321960,156.938614 353.271545,155.758957 
M279.419281,133.026810 
	C277.107544,132.764084 274.798676,132.472229 272.483521,132.244308 
	C266.426422,131.648026 265.322144,132.497192 264.314880,137.992447 
	C265.264252,138.770599 266.561676,139.318954 266.608154,139.958282 
	C266.853058,143.326447 269.760010,143.585617 271.625305,143.447479 
	C275.458740,143.163589 279.222229,141.935822 283.865570,140.908188 
	C282.766022,138.468765 281.542877,135.755127 279.419281,133.026810 
M312.310120,150.996384 
	C318.410309,150.273117 324.683380,150.053635 329.418518,144.970947 
	C319.925598,149.252350 310.141327,147.391617 300.405945,147.183777 
	C298.149689,147.135605 295.844818,149.364471 293.562317,150.545547 
	C293.771759,151.022964 293.981201,151.500381 294.190613,151.977798 
	C299.921173,151.664948 305.651733,151.352097 312.310120,150.996384 
M225.812485,160.667740 
	C228.822372,161.967957 231.832260,163.268173 235.211823,164.728104 
	C232.417099,157.399979 231.119125,156.882217 222.945648,159.698975 
	C223.924759,160.000275 224.520706,160.183670 225.812485,160.667740 
z"/>
<path fill="#C20F36" opacity="1.000000" stroke="none" 
	d="
M171.716446,173.110947 
	C182.249115,166.694962 191.944016,158.917130 204.148178,156.021439 
	C213.415878,153.822510 213.691742,147.624313 211.836227,141.189377 
	C210.327362,135.956650 206.936386,133.491394 201.345901,133.917740 
	C195.748840,134.344604 190.207062,135.496231 184.548996,136.343964 
	C186.667221,126.897636 196.941589,121.380486 206.678375,124.235054 
	C217.946167,127.538490 220.903107,136.973251 215.365082,152.474274 
	C221.495529,152.026703 227.532654,151.585938 233.569794,151.145187 
	C233.787445,151.635284 234.005096,152.125381 234.222763,152.615479 
	C232.691055,153.389084 231.162979,154.818542 229.627029,154.827026 
	C221.289581,154.873108 213.358582,156.024323 206.532776,161.331116 
	C206.023880,161.726761 205.351440,162.081772 204.727737,162.134811 
	C193.774567,163.066177 185.414154,169.796738 176.243866,174.737488 
	C174.629135,175.607452 172.183838,177.803787 171.716446,173.110947 
z"/>
<path fill="#C20E35" opacity="1.000000" stroke="none" 
	d="
M262.097321,158.769867 
	C258.434662,154.861435 256.453827,158.991745 255.278992,160.898895 
	C251.812973,166.525436 247.353317,165.760452 241.802582,162.973724 
	C240.572433,162.356140 239.307755,160.490738 239.229843,159.132706 
	C238.957169,154.380234 241.622467,150.988403 245.390320,148.435333 
	C248.711380,146.185013 252.121887,145.736725 255.555206,148.316315 
	C256.148102,148.761795 256.881317,149.020554 258.050568,149.624100 
	C257.729492,147.434219 257.490479,145.804153 257.047058,142.779953 
	C261.031525,147.598801 264.375732,151.102631 262.923798,156.825241 
	C268.286163,155.618073 270.954285,150.754028 276.801727,151.807037 
	C284.381927,153.172104 289.419250,159.749283 286.356140,166.802628 
	C285.654449,168.418411 283.267029,170.577805 281.993591,170.374023 
	C280.028137,170.059418 277.649323,168.284851 276.720062,166.475189 
	C275.283112,163.676834 275.388214,159.968033 270.557098,159.186905 
	C271.260620,161.447037 271.829987,163.276138 272.031799,165.522614 
	C270.802795,165.960419 269.941315,165.980820 269.075073,165.569458 
	C269.408386,158.078003 268.644440,157.380341 262.097321,158.769867 
z"/>
<path fill="#C31337" opacity="1.000000" stroke="none" 
	d="
M227.067291,177.140564 
	C220.817825,175.989853 215.672424,173.856888 213.166031,167.326309 
	C218.664413,169.200058 224.162811,171.073822 229.661194,172.947571 
	C229.919418,172.483963 230.177643,172.020370 230.435867,171.556763 
	C225.992401,169.014252 221.548935,166.471741 216.250443,163.440002 
	C224.261566,162.610535 236.919479,169.054718 244.090424,177.197266 
	C238.195679,177.197266 232.841888,177.197266 227.067291,177.140564 
z"/>
<path fill="#C20D34" opacity="1.000000" stroke="none" 
	d="
M241.380798,130.421127 
	C251.529877,130.855911 255.950623,133.442932 257.995575,140.035919 
	C255.829422,140.035919 253.721069,140.035919 251.409882,140.035919 
	C251.864441,140.988556 252.254715,141.806473 252.659546,142.654877 
	C245.428116,144.824814 240.659592,143.677002 237.405472,139.024078 
	C233.674515,133.689331 234.553406,131.583832 241.380798,130.421127 
z"/>
<path fill="#C20E35" opacity="1.000000" stroke="none" 
	d="
M269.079865,166.001221 
	C269.941315,165.980820 270.802795,165.960419 272.095154,165.910522 
	C273.608307,173.126663 271.450531,176.198593 263.333496,177.967529 
	C262.207825,178.033600 261.603516,178.357834 260.999237,178.682068 
	C259.685852,177.300873 257.482422,176.061447 257.235321,174.510391 
	C256.630035,170.710785 256.581635,166.723648 257.063416,162.907196 
	C257.216919,161.691223 259.744019,160.774857 261.912964,159.919952 
	C263.470184,162.296158 264.299469,164.473831 265.101562,166.960480 
	C265.281006,167.827454 265.487610,168.385406 265.825684,169.269196 
	C266.998047,168.397095 268.038940,167.199158 269.079865,166.001221 
z"/>
<path fill="#C21236" opacity="1.000000" stroke="none" 
	d="
M353.523132,156.084167 
	C353.321960,156.938614 352.910645,157.882355 352.409973,157.932434 
	C347.831085,158.390381 343.225098,158.585205 338.650177,159.073685 
	C334.696899,159.495773 330.862946,159.816422 327.258636,156.462769 
	C331.060699,156.116211 334.313232,155.819733 337.565796,155.523254 
	C337.551178,155.154938 337.536591,154.786621 337.521973,154.418304 
	C334.543823,153.893356 331.565674,153.368408 328.505157,152.828934 
	C333.133362,145.281296 344.490875,146.720413 353.523132,156.084167 
z"/>
<path fill="#C20D34" opacity="1.000000" stroke="none" 
	d="
M279.869507,133.034149 
	C281.542877,135.755127 282.766022,138.468765 283.865570,140.908188 
	C279.222229,141.935822 275.458740,143.163589 271.625305,143.447479 
	C269.760010,143.585617 266.853058,143.326447 266.608154,139.958282 
	C266.561676,139.318954 265.264252,138.770599 264.314880,137.992447 
	C265.322144,132.497192 266.426422,131.648026 272.483521,132.244308 
	C274.798676,132.472229 277.107544,132.764084 279.869507,133.034149 
z"/>
<path fill="#C31839" opacity="1.000000" stroke="none" 
	d="
M357.058380,121.954773 
	C353.723389,124.886276 350.250153,127.677673 347.094849,130.791290 
	C344.307892,133.541458 341.875397,136.650848 338.845612,139.200668 
	C342.392334,126.256386 352.311432,116.252922 362.057526,115.208153 
	C361.617920,116.049438 361.276367,116.703140 360.531494,117.721909 
	C359.402283,118.632484 358.676331,119.177971 357.741577,120.059708 
	C357.680389,120.614662 357.827972,120.833382 357.994385,121.030548 
	C358.013153,121.008987 358.049255,120.964645 357.644348,120.830933 
	C357.149719,121.146484 357.060059,121.595741 356.992615,122.022659 
	C357.014832,122.000313 357.058380,121.954765 357.058380,121.954773 
z"/>
<path fill="#C3183A" opacity="1.000000" stroke="none" 
	d="
M357.950378,119.723465 
	C358.676331,119.177971 359.402283,118.632484 360.407257,118.075500 
	C361.384460,118.616508 362.653503,119.129547 362.694824,119.727455 
	C363.279694,128.190231 353.259644,138.675232 345.003662,138.812500 
	C348.909851,133.551895 352.956207,128.102524 357.030457,122.303955 
	C357.058380,121.954765 357.014832,122.000313 357.302429,122.012299 
	C357.743103,121.671066 357.896179,121.317856 358.049255,120.964645 
	C358.049255,120.964645 358.013153,121.008987 358.333984,120.980667 
	C358.419983,120.542725 358.185181,120.133095 357.950378,119.723465 
z"/>
<path fill="#C41D3C" opacity="1.000000" stroke="none" 
	d="
M311.846191,151.017822 
	C305.651733,151.352097 299.921173,151.664948 294.190613,151.977798 
	C293.981201,151.500381 293.771759,151.022964 293.562317,150.545547 
	C295.844818,149.364471 298.149689,147.135605 300.405945,147.183777 
	C310.141327,147.391617 319.925598,149.252350 329.418518,144.970947 
	C324.683380,150.053635 318.410309,150.273117 311.846191,151.017822 
z"/>
<path fill="#F7E4E7" opacity="1.000000" stroke="none" 
	d="
M265.128754,166.651489 
	C264.299469,164.473831 263.470184,162.296158 262.315430,159.920044 
	C261.989960,159.721603 262.016693,159.242722 262.057007,159.006287 
	C268.644440,157.380341 269.408386,158.078003 269.075073,165.569458 
	C268.038940,167.199158 266.998047,168.397095 265.930206,168.949524 
	C265.645111,167.753189 265.386932,167.202332 265.128754,166.651489 
z"/>
<path fill="#C82D47" opacity="1.000000" stroke="none" 
	d="
M225.464569,160.517395 
	C224.520706,160.183670 223.924759,160.000275 222.945648,159.698975 
	C231.119125,156.882217 232.417099,157.399979 235.211823,164.728104 
	C231.832260,163.268173 228.822372,161.967957 225.464569,160.517395 
z"/>
<path fill="#C20E35" opacity="1.000000" stroke="none" 
	d="
M261.276672,178.731674 
	C261.603516,178.357834 262.207825,178.033600 262.949707,177.957016 
	C262.576233,178.396881 262.065155,178.589081 261.276672,178.731674 
z"/>
<path fill="#C10732" opacity="1.000000" stroke="none" 
	d="
M242.997345,169.998901 
	C242.268204,170.012589 241.705383,169.840408 239.928833,169.296951 
	C241.771530,169.173050 242.353348,169.133926 243.202316,169.256897 
	C243.469482,169.418991 243.163666,169.813065 242.997345,169.998901 
z"/>
<path fill="#C20E35" opacity="1.000000" stroke="none" 
	d="
M265.101562,166.960480 
	C265.386932,167.202332 265.645111,167.753189 265.798767,168.623703 
	C265.487610,168.385406 265.281006,167.827454 265.101562,166.960480 
z"/>
<path fill="#FAEEF0" opacity="1.000000" stroke="none" 
	d="
M357.644348,120.830933 
	C357.896179,121.317856 357.743103,121.671066 357.280212,122.034637 
	C357.060059,121.595741 357.149719,121.146484 357.644348,120.830933 
z"/>
<path fill="#FAEEF0" opacity="1.000000" stroke="none" 
	d="
M357.741577,120.059708 
	C358.185181,120.133095 358.419983,120.542725 358.315186,121.002228 
	C357.827972,120.833382 357.680389,120.614662 357.741577,120.059708 
z"/>
</svg>