<svg xmlns="http://www.w3.org/2000/svg" xmlns:xlink="http://www.w3.org/1999/xlink" width="400" height="400"><defs><filter><feFlood flood-color="#000" flood-opacity=".35" result="flood"/><feComposite in="flood" in2="SourceGraphic" operator="in" result="composite1"/><feGaussianBlur in="composite1" result="blur" stdDeviation="3"/><feOffset dx="1" dy="2.5" result="offset"/><feComposite in="SourceGraphic" in2="offset" result="composite2"/></filter><filter id="d"><feFlood flood-color="#000" flood-opacity=".3" result="flood"/><feComposite in="flood" in2="SourceGraphic" operator="in" result="composite1"/><feGaussianBlur in="composite1" result="blur" stdDeviation="4"/><feOffset dx="2" result="offset"/><feComposite in="SourceGraphic" in2="offset" result="composite2"/></filter><filter id="e"><feFlood flood-color="#000" flood-opacity=".3" result="flood"/><feComposite in="flood" in2="SourceGraphic" operator="in" result="composite1"/><feGaussianBlur in="composite1" result="blur" stdDeviation="4"/><feOffset dx="2" result="offset"/><feComposite in="SourceGraphic" in2="offset" result="composite2"/></filter><filter id="f"><feFlood flood-color="#000" flood-opacity=".2" result="flood"/><feComposite in="flood" in2="SourceGraphic" operator="in" result="composite1"/><feGaussianBlur in="composite1" result="blur" stdDeviation="2.5"/><feOffset dx=".5" result="offset"/><feComposite in="SourceGraphic" in2="offset" result="composite2"/></filter><filter id="g"><feFlood flood-color="#000" flood-opacity=".2" result="flood"/><feComposite in="flood" in2="SourceGraphic" operator="in" result="composite1"/><feGaussianBlur in="composite1" result="blur" stdDeviation="2.5"/><feOffset dx=".5" result="offset"/><feComposite in="SourceGraphic" in2="offset" result="composite2"/></filter><filter id="c"><feFlood flood-color="#000" flood-opacity=".4" result="flood"/><feComposite in="flood" in2="SourceGraphic" operator="in" result="composite1"/><feGaussianBlur in="composite1" result="blur" stdDeviation="3.5"/><feOffset dx="1" dy="2" result="offset"/><feComposite in="SourceGraphic" in2="offset" result="composite2"/></filter><linearGradient id="a" x1="130.08" x2="472.3" y1="553.75" y2="211.53" gradientUnits="userSpaceOnUse"><stop offset="0" stop-color="#b13d5c"/><stop offset=".18" stop-color="#c34d6a"/><stop offset=".49" stop-color="#dc637c"/><stop offset=".77" stop-color="#ec7088"/><stop offset="1" stop-color="#f1758c"/></linearGradient><linearGradient x1="259.03" x2="259.03" y1="258.2" y2="258.2" gradientTransform="translate(-112 -195)" gradientUnits="userSpaceOnUse"><stop offset="0" stop-color="#231f20" stop-opacity=".87"/><stop offset=".4" stop-color="#191617" stop-opacity=".62"/><stop offset="1" stop-opacity="0"/></linearGradient><linearGradient xlink:href="#a" x1="130.08" x2="472.3" y1="553.75" y2="211.53" gradientTransform="translate(-112 -195)" gradientUnits="userSpaceOnUse"/><linearGradient xlink:href="#a" id="b" x1="130.08" x2="472.3" y1="553.75" y2="211.53" gradientTransform="translate(-101.19 -182.63)" gradientUnits="userSpaceOnUse"/></defs><path d="M380.44 51.05v148.7a182 182 0 0 1-.92 18.3 179 179 0 0 1-11 46.34q-.57 1.5-1.2 3a177 177 0 0 1-13.76 27.11q-1.4 2.26-2.86 4.5a180.2 180.2 0 0 1-133.39 80.1q-5 .46-10 .66-3.45.14-6.95.13H50.5a30.93 30.93 0 0 1-30.94-30.95V200.28q-.02-2.66.08-5.3A180.2 180.2 0 0 1 183.81 20.8q7.88-.69 15.95-.7H349.5a31 31 0 0 1 30.94 30.95" style="isolation:isolate;fill:url(#b);filter:url(#c)"/><path d="M176.7 249.6c-13.88-27.5-45-43.25-75.06-33.75-27 8.55-49.43 35.21-38.18 64.41 6.5 16.84 20.74 28.48 37.19 35l-4.18-10.29a37.6 37.6 0 0 0-.09 37.73c6.77 11.51 19.33 18.42 32.46 19.48 12.25 1 24.83-3.65 32.39-13.55 9.43-12.35 8.61-28.7 2-42.1-4-8.08-16.08-1-12.09 7.06 4.13 8.36 4.91 19.18-1.16 26.87-5 6.28-13.42 8.57-21.12 7.72-17.55-1.92-29.47-20-20.28-36.14 2.43-4.27 0-8.64-4.18-10.28-20-7.93-38.46-30.93-25.74-52.46 11.09-18.76 36.89-26.7 57-19.6 13 4.58 22.9 14.87 29 27 4.06 8.04 16.14 1 12.09-7.07z" style="isolation:isolate;fill:#f7f1f0;filter:url(#d)"/><path d="M138.88 255.1c-8.72-8-21.88-10.93-32.49-4.7-10 5.91-14 18.2-10.22 29a5.9 5.9 0 0 0 5.48 4.18c14.38.76 27.09 14.5 22.22 29.6-2.26 7 8.71 10 11 3 7.16-22.18-11.32-42.82-33.18-44l5.49 4.16c-2.12-6.08-.9-12.69 5-16.18 6.1-3.6 13.74-1.66 18.71 2.92 5.37 5 13.43-3.07 8-8z" style="isolation:isolate;fill:#f7f1f0;filter:url(#e)"/><path d="M281.81 127.96c-27.19 34.28-80.61 37.58-114.78 12.53a70 70 0 0 1-13.32-12.53v8c27.18-34.28 80.61-37.58 114.77-12.53A70 70 0 0 1 281.81 136c4.54 5.73 12.53-2.36 8-8-11.07-14-28.42-23.95-45.32-28.8-27.82-8-58.86-2.9-82.44 13.93-6 4.26-11.83 9.1-16.41 14.87a5.94 5.94 0 0 0 0 8c11.08 14 28.43 23.95 45.33 28.8 27.81 8 58.86 2.9 82.43-13.93 6-4.26 11.84-9.1 16.41-14.87s-3.45-13.77-8-8.04" style="isolation:isolate;fill:#f7f1f0;filter:url(#f)"/><path d="M286.81 79.28c-6.22-1.87-7.29-6.85-9.56-12.24a43 43 0 0 0-9.82-14.6 38 38 0 0 0-32-9.89 35 35 0 0 0-10.75 3.95c-2.66 1.45-5.16 2.53-8.27 2s-5.89-2.75-8.83-4a33 33 0 0 0-11.21-2.46 38 38 0 0 0-29.56 12.7 48 48 0 0 0-9.07 16c-2.32 6.54-6.09 7.93-12.45 9.72-12.79 3.58-25.54 8.36-37 15.2-16.39 9.8-32 26-28 46.63 3.31 17.08 19.47 29.08 34 36.53 22.57 11.6 48 17 73.05 19.63a294 294 0 0 0 86.73-3.67c21.83-4.27 44.76-11.35 62.65-25 13.22-10.12 23.64-25.36 19.08-42.7-5.67-21.59-29.32-33.88-48.42-41.26a190 190 0 0 0-20.57-6.54c-9.34-2.44-13.33 12-4 14.47 12 3.12 23.79 7.1 34.66 13.1 7.66 4.22 15.6 9.52 20.45 17 7.57 11.63 3.08 22-6.48 30.8-13.9 12.75-33.58 19.14-51.53 23.5-25.13 6.07-51.26 7.8-77 6.5-23.73-1.2-47.68-5.16-69.92-13.76-13.69-5.3-30-13.59-36.58-27.15a15 15 0 0 1-1.15-3.13c-.14-.52-.71-3.6-.6-2.67a18.7 18.7 0 0 1 1.35-9.66c3-7.24 9.45-12.87 15.8-17.14 9.67-6.48 20.48-11 31.55-14.49 5.73-1.8 12.12-2.69 17.26-5.95a27 27 0 0 0 10.82-13.84c3.54-9.65 9.4-18 20.3-19.63a20 20 0 0 1 8.61.54c3.73 1.15 6.82 3.7 10.6 4.8a26.4 26.4 0 0 0 19.86-2.29c5.51-2.89 10.61-4.06 16.7-2.4a23 23 0 0 1 12 8c3.87 4.9 4.68 10.86 7.78 16.1a26.7 26.7 0 0 0 15.52 11.77c9.3 2.78 13.26-11.7 4-14.47" style="isolation:isolate;fill:#f7f1f0;filter:url(#g)"/></svg>