<svg xmlns="http://www.w3.org/2000/svg" class="" viewBox="0 0 151 26"><g><path d="M58.1288 1.16211H47.7551C47.3398 1.16211 47.136 1.58961 47.4229 1.85211C48.1099 2.47461 49.0235 3.50961 49.0235 4.98711C49.0235 4.99461 49.0235 21.0821 49.0235 21.0896C49.0235 22.5596 48.1099 23.5946 47.4229 24.2246C47.136 24.4871 47.3474 24.9146 47.7551 24.9146H54.8143C55.222 24.9146 55.441 24.4871 55.1541 24.2321C54.467 23.6021 53.5535 22.5596 53.5535 21.0896C53.5535 21.0746 53.5535 15.9071 53.5535 15.9071C53.5535 15.6971 53.7271 15.5246 53.9385 15.5246H57.3964C62.387 15.5246 66.3734 13.2446 66.3734 8.12961C66.3734 3.33711 63.1797 1.16211 58.1288 1.16211ZM55.9695 13.2146H53.9385C53.7271 13.2146 53.5535 13.0421 53.5535 12.8321V3.75711C53.5535 3.54711 53.7271 3.37461 53.9385 3.37461H55.9997C59.3594 3.37461 61.7528 4.73211 61.7528 8.19711C61.7528 12.3596 59.2613 13.2146 55.9695 13.2146Z"></path><path d="M77.4116 8.66279C75.5467 8.66279 73.9839 10.1853 73.2213 12.6228V12.1053L73.176 11.1528L72.9495 8.84279C72.9193 8.56529 72.6173 8.41529 72.3757 8.55029L67.5664 11.4153C67.3701 11.5278 67.3248 11.7603 67.4305 11.9403C67.4758 12.0153 67.5588 12.0678 67.6494 12.0828L68.2685 12.1728C68.9254 12.2703 69.4161 12.8253 69.4237 13.4853V21.0903C69.4237 22.5603 68.6234 23.5953 68.0194 24.2253C67.7702 24.4878 67.9514 24.9153 68.3138 24.9153H74.2557C74.6105 24.9153 74.7993 24.4878 74.5501 24.2328C73.9537 23.6103 73.1609 22.5753 73.1534 21.1203V16.3128C73.1534 16.3128 73.1534 16.2903 73.1534 16.2828C73.2893 13.9803 74.2557 12.3003 75.0484 12.3003C75.9469 12.3003 76.0828 13.8828 77.8117 13.8828C79.2387 13.8828 80.1371 12.6903 80.1371 11.3103C80.1371 9.49529 78.8083 8.67029 77.4116 8.67029V8.66279Z"></path><path d="M88.8258 8.75977C94.0429 8.75977 97.1686 12.3298 97.2063 16.9873C97.2063 22.1098 93.8466 25.1473 88.8258 25.2448C83.8051 25.1773 80.4453 22.1398 80.4453 17.0548C80.4453 11.9698 83.873 8.76727 88.8258 8.76727V8.75977ZM92.5857 17.0173C92.5857 13.5148 91.7552 10.3423 88.8258 10.3123C85.8662 10.2823 85.0659 13.4848 85.0659 17.0173C85.0659 20.5498 85.8662 23.6548 88.8258 23.6548C91.7854 23.6548 92.5857 20.5498 92.5857 17.0173Z"></path><path d="M105.498 24.2174C104.894 23.5949 104.063 22.5824 104.063 21.0899V0.787422C104.063 0.494922 103.754 0.314922 103.497 0.449922L98.4688 3.34492C98.2121 3.48742 98.2423 3.86242 98.5216 3.95242L99.0728 3.98992C99.79 4.04242 100.341 4.59742 100.364 5.30992C100.364 5.31742 100.364 21.0824 100.364 21.0824C100.364 22.5749 99.5484 23.5874 98.952 24.2024C98.6953 24.4649 98.884 24.8924 99.2464 24.8924H105.211C105.573 24.8924 105.762 24.4649 105.505 24.2024L105.498 24.2174Z"></path><path d="M115.413 24.2172C114.817 23.6172 113.934 22.6722 113.911 21.1572V8.90225C113.911 8.61725 113.601 8.42974 113.345 8.57224L108.362 11.4297C108.301 11.4672 108.248 11.5122 108.218 11.5647C108.082 11.7897 108.264 12.0672 108.52 12.0972L108.928 12.1347C109.63 12.1947 110.181 12.7647 110.204 13.4697C110.204 13.4772 110.204 21.1272 110.204 21.1272C110.189 22.6572 109.313 23.6172 108.709 24.2247C108.452 24.4797 108.641 24.9147 109.003 24.9147H115.142C115.504 24.9147 115.685 24.4797 115.436 24.2247L115.413 24.2172Z"></path><path d="M135.112 24.2175C134.5 23.61 133.587 22.665 133.587 21.09C133.587 21.09 133.587 21.075 133.587 21.0675V9.5475C133.587 9.3375 133.413 9.165 133.202 9.165H124.164C124.036 9.165 123.907 9.0975 123.84 8.9925C122.881 7.485 121.922 5.7225 121.922 4.2975C121.922 2.775 122.986 1.8225 124.383 1.8225C126.248 1.8225 126.444 3.1425 126.678 4.4325C126.912 5.82 128.045 6.4125 129.336 6.4125C130.536 6.4125 131.759 5.52 131.759 3.9C131.759 1.3875 129.2 0 126.407 0C121.854 0 119.294 2.1825 119.294 6.075C119.294 7.0125 119.453 7.7475 119.536 8.7525C119.551 8.9775 119.377 9.165 119.151 9.165H117.362C117.15 9.165 116.977 9.3375 116.977 9.5475V11.01C116.977 11.22 117.15 11.3925 117.362 11.3925H119.604C119.815 11.3925 119.989 11.565 119.989 11.775V21.09C119.989 22.6425 119.098 23.61 118.494 24.225C118.237 24.48 118.426 24.915 118.789 24.915H124.897C125.259 24.915 125.44 24.4725 125.191 24.2175C124.587 23.61 123.711 22.6575 123.696 21.1275V11.775C123.696 11.565 123.87 11.3925 124.081 11.3925H129.57C129.781 11.3925 129.955 11.565 129.955 11.775V21.0825C129.955 22.6125 129.079 23.5875 128.475 24.2025C128.219 24.4575 128.407 24.9075 128.77 24.9075H134.832C135.195 24.9075 135.376 24.48 135.119 24.225L135.112 24.2175Z"></path><path d="M150.074 20.0701C150.345 19.7776 150.829 20.0551 150.715 20.4376C149.892 23.3026 146.986 25.2451 144.192 25.2451C139.473 25.2451 136.348 21.9076 136.348 17.5201C136.348 12.2326 139.904 8.76758 144.924 8.76758C147.982 8.76758 150.806 10.6501 150.806 13.3276C150.806 15.2401 149.877 16.2676 148.08 16.2676C146.616 16.2676 145.657 15.1801 145.657 13.5601C145.657 12.8476 146.004 12.1276 146.616 11.5876C146.819 11.4076 146.759 11.0776 146.51 10.9651C146.004 10.7326 145.34 10.6276 144.517 10.6276C141.988 10.6276 140.062 12.8401 140.062 15.6826C140.062 19.7101 142.259 21.9226 145.551 21.9226C147.106 21.9226 148.858 21.3601 150.066 20.0851L150.074 20.0701Z"></path><path d="M112.158 5.42246C113.555 5.42246 114.687 4.29758 114.687 2.90996C114.687 1.52235 113.555 0.397461 112.158 0.397461C110.761 0.397461 109.629 1.52235 109.629 2.90996C109.629 4.29758 110.761 5.42246 112.158 5.42246Z"></path><path d="M32.2781 3.77285C32.0365 4.01285 31.742 4.13285 31.4023 4.13285C31.0625 4.13285 30.7681 4.01285 30.5265 3.77285C30.2849 3.53285 30.1641 3.24035 30.1641 2.90285C30.1641 2.56535 30.2849 2.27285 30.5265 2.03285C30.7681 1.79285 31.0625 1.67285 31.4023 1.67285C31.742 1.67285 32.0365 1.79285 32.2781 2.03285C32.5197 2.27285 32.6405 2.55785 32.6405 2.90285C32.6405 3.24785 32.5197 3.53285 32.2781 3.77285ZM30.6548 2.15285C30.451 2.35535 30.3453 2.61035 30.3453 2.90285C30.3453 3.19535 30.4434 3.45035 30.6548 3.65285C30.8587 3.86285 31.1078 3.96035 31.4023 3.96035C31.6967 3.96035 31.9459 3.85535 32.1497 3.65285C32.3536 3.44285 32.4593 3.19535 32.4593 2.90285C32.4593 2.61035 32.3536 2.36285 32.1497 2.15285C31.9459 1.94285 31.6967 1.84535 31.4023 1.84535C31.1078 1.84535 30.8587 1.95035 30.6548 2.15285ZM31.81 3.48785C31.7043 3.57035 31.5759 3.61535 31.4325 3.61535C31.2437 3.61535 31.0927 3.54785 30.9568 3.42035C30.8285 3.28535 30.7605 3.11285 30.7605 2.89535C30.7605 2.69285 30.8209 2.52035 30.9342 2.38535C31.055 2.25035 31.206 2.18285 31.3947 2.18285C31.5155 2.18285 31.6212 2.20535 31.7194 2.25785C31.8855 2.34035 31.9761 2.48285 31.9912 2.68535H31.7873C31.7798 2.60285 31.742 2.52785 31.6816 2.46785C31.6212 2.40785 31.5306 2.37785 31.4174 2.37785C31.2513 2.37785 31.138 2.45285 31.0625 2.59535C31.0172 2.68535 30.9946 2.79035 30.9946 2.89535C30.9946 3.04535 31.0323 3.17285 31.1078 3.27785C31.1833 3.38285 31.2966 3.43535 31.4325 3.43535C31.5231 3.43535 31.5986 3.41285 31.6665 3.36035C31.7269 3.31535 31.7722 3.24035 31.7949 3.15035H31.9987C31.9761 3.30035 31.9081 3.42035 31.8024 3.50285L31.81 3.48785Z"></path><path d="M19.5187 20.543C19.9113 20.543 20.3115 20.738 20.538 21.1205L21.7158 23.063C22.4255 24.233 23.6939 24.9455 25.0604 24.9455H38.4692C38.7259 24.9455 38.9449 24.7505 38.9751 24.4955C39.1034 23.333 39.0883 21.968 38.9751 20.8655C38.9449 20.573 38.6655 20.3705 38.3711 20.423L25.6191 22.8605C25.1435 22.9505 24.917 22.3055 25.3473 22.0805L37.1857 16.043C37.4198 15.923 37.5179 15.6455 37.4198 15.4055C36.9517 14.2355 36.2193 12.8705 35.5474 11.9105C35.3813 11.6705 35.034 11.6255 34.8075 11.798C32.3537 13.703 27.2197 17.7905 24.245 20.168C23.8373 20.4905 23.2862 19.9955 23.5731 19.5605C25.8758 16.0805 29.9679 9.88547 31.2288 7.96547C31.3722 7.74797 31.3194 7.44797 31.1155 7.29047C30.0057 6.44297 28.8883 5.79047 27.5972 5.19797C27.3405 5.07797 27.031 5.19797 26.9177 5.46797L21.3458 18.8855C21.1873 19.2755 20.5984 19.133 20.6361 18.713L21.9498 4.11047C21.9725 3.84047 21.7762 3.61547 21.5044 3.56297C20.6286 3.39047 18.3938 3.39047 17.5255 3.56297C17.2537 3.61547 17.0574 3.84047 17.0801 4.11047L18.3787 18.698C18.4164 19.118 17.8351 19.253 17.669 18.8705L12.1197 5.47547C12.0065 5.21297 11.6969 5.09297 11.4402 5.20547C10.1492 5.79797 9.03178 6.45047 7.92193 7.29797C7.71053 7.45547 7.65768 7.75547 7.80868 7.97297L15.4644 19.568C15.7513 20.003 15.2001 20.498 14.7924 20.1755L4.22998 11.8055C4.00348 11.6255 3.65618 11.678 3.49008 11.918C2.81813 12.878 2.08578 14.243 1.61768 15.413C1.51953 15.653 1.61768 15.9305 1.85173 16.0505L13.7052 22.088C14.1356 22.3055 13.9091 22.958 13.4334 22.868L0.689032 20.423C0.394582 20.3705 0.115232 20.573 0.0850317 20.8655C-0.0206683 21.968 -0.0357683 23.333 0.0850317 24.4955C0.115232 24.7505 0.334182 24.9455 0.590882 24.9455H13.9997C15.3738 24.9455 16.6422 24.233 17.3443 23.063L18.5221 21.1205C18.7562 20.738 19.1488 20.543 19.5414 20.543"></path></g></svg>