<svg version="1.2" xmlns="http://www.w3.org/2000/svg" viewBox="0 0 1547 494" width="1547" height="494">
	<title>qualtrics-xm-long-svg</title>
	<defs>
		<linearGradient id="g1" x1="1321.4" y1="33.5" x2="1532.9" y2="186.6" gradientUnits="userSpaceOnUse">
			<stop offset="0" stop-color="#21dbaa"/>
			<stop offset=".4" stop-color="#00b4ef"/>
			<stop offset=".4" stop-color="#01a7ec"/>
			<stop offset=".6" stop-color="#0487e4"/>
			<stop offset=".7" stop-color="#0768dd"/>
			<stop offset="1" stop-color="#5f1ae5"/>
		</linearGradient>
	</defs>
	<style>
		.s0 { fill: #000000 } 
		.s1 { fill: url(#g1) } 
	</style>
	<path id="Layer" fill-rule="evenodd" class="s0" d="m514.5 305.6q1.4-0.2 2.8-0.6 1.3-0.4 2.6-1 1.4-0.5 2.6-1.3l2.1-1.2v29.4l-0.9 0.3q-2.3 1-4.6 1.7-2.4 0.7-4.8 1.2-2.4 0.5-4.8 0.8-2.5 0.3-4.9 0.3c-4.1 0.2-8.1-0.4-11.9-1.6-3.9-1.2-7.5-3-10.7-5.5-3.2-2.4-5.9-5.4-8.1-8.8-2.2-3.4-3.8-7.1-4.7-11-3 4-6.5 7.7-10.4 10.9-3.9 3.3-8.1 6.1-12.6 8.4-4.5 2.3-9.2 4.2-14.1 5.4-4.9 1.3-9.9 2-15 2.2-33.9 0-56.8-24.4-56.8-60.7 0-41.4 27.5-57.4 69.4-77l36.9-17.5v-11.3c0-24.2-11.1-38.7-29.6-38.7q-3.3-0.1-6.5 0.6-3.2 0.6-6.3 1.8-3 1.3-5.7 3.2-2.7 1.8-5 4.2-3 3.2-5.3 7-2.3 3.7-3.8 7.9-1.6 4.1-2.3 8.4-0.7 4.4-0.5 8.8v1.5h-31v-1.5c0.3-35.3 21.4-71 67.7-71 38.8 0 61.9 24.5 61.9 65.6v120.1c0 12.1 1.9 19.1 11.4 19.1q1.4 0 2.9-0.1zm-75.3-83c-21 9.7-45.3 24.5-45.3 52.2-0.4 4.2 0.1 8.4 1.4 12.4 1.4 4.1 3.6 7.7 6.5 10.8 2.9 3 6.5 5.4 10.4 7 3.9 1.5 8.1 2.2 12.3 2 4.4-0.4 8.6-1.3 12.7-2.7 4.1-1.4 8.1-3.3 11.7-5.7 3.7-2.4 7-5.1 10-8.3 3-3.2 5.6-6.7 7.7-10.5v-70zm245.2-117.1h48.2v30.5h-48.2v146.7c0 10.5 3.1 23 18.1 23q3.2-0.2 6.3-0.8 3.2-0.7 6.2-1.9 3-1.2 5.7-2.8 2.8-1.7 5.2-3.8l2.4-2v30.8l-0.8 0.5q-3.8 2.2-7.8 3.9-4 1.8-8.2 3-4.3 1.2-8.6 1.8-4.4 0.7-8.7 0.7c-28.2 0-43.8-18.2-43.8-51.4v-147.7h-29.9v-30.6h30l1.2-71.5h32.7zm-393.5-0.1h33.6v225.6h-32.3l-0.6-22.7c-3 4.1-6.4 7.8-10.2 11.2-3.9 3.3-8.1 6.1-12.6 8.5-4.5 2.3-9.3 4.1-14.2 5.3-4.9 1.2-10 1.9-15.1 1.9-30.8 0-48.5-22.5-48.5-61.7v-168.1h33.6v166.5c0 16.8 6.6 34.8 24.9 34.8 13.9 0 28.6-10.3 41.4-28.8zm-172.8 0h29.1v388.1h-34v-179.1c-10.7 13.7-27.3 21.5-44.7 21.1-32.6 0-67.5-30.8-67.5-117.2 0-39.4 7.9-70 23.4-90.8 2.7-3.9 5.9-7.6 9.5-10.8 3.6-3.2 7.5-6 11.8-8.2 4.2-2.3 8.7-4.1 13.4-5.3 4.7-1.2 9.4-1.9 14.3-2 18.1-0.8 35.1 8.7 43.8 24.7zm-39 25c-27.6 0-43.5 32-43.5 87.6 0 57.9 14.1 87.3 41.9 87.3 15 0 26.4-7.9 35.7-24.9v-123.4c-4.4-15.3-18.2-26.1-34.1-26.6zm472.8-130.5h33.6v331.1h-33.6zm340.8 105.4h33.6v225.6h-33.6zm0.3-71.8h33.3v39h-33.3zm-40.6 67.7h9.1v32.9l-8-0.7c-18.9 0.1-38.6 4.3-53.8 35.3v162.6h-33.6v-225.9h31.9l1.7 26.3c15.6-23 28.7-30.5 52.7-30.5zm407.1 168.7c0.9 17.8-5.8 35.1-18.5 47.6-12.7 12.6-30.1 19.1-47.9 17.9-41.5 0-67.9-28.3-69-73.8v-1.5h31.4v1.4c0.6 25.9 16.1 44 37.6 44 4.6 0.2 9.1-0.6 13.3-2.2 4.2-1.7 8-4.2 11.2-7.4 3.2-3.2 5.7-7 7.4-11.2 1.6-4.2 2.4-8.7 2.2-13.2 0-23.4-20.5-34.7-42.4-46.5-22-11.7-52-27.8-52-65.4 0-34.4 25.3-58.4 61.6-58.4 4.2-0.2 8.3 0.1 12.4 0.8 4 0.8 8 1.9 11.9 3.4 3.8 1.6 7.5 3.5 10.9 5.8 3.5 2.3 6.6 4.9 9.5 7.9 12.7 14.4 19 33.4 17.3 52.5l-0.1 1.4h-31.1l0.1-1.6q0.6-4.2 0.4-8.5-0.3-4.2-1.4-8.3-1.1-4.1-3-7.9-1.9-3.8-4.6-7.1-2.2-2.3-4.8-4.1-2.6-1.8-5.5-3-2.9-1.3-6-1.8-3.1-0.6-6.3-0.5-2.8-0.2-5.6 0.2-2.8 0.3-5.5 1.3-2.7 0.9-5.1 2.4-2.4 1.5-4.5 3.4c-5.5 5.3-8.5 12.6-8.3 20.3 0 19 15 28.2 36.1 39.1l-0.7 1.2 0.8-1.1c27.3 14.4 58.3 30.8 58.2 72.9zm-158.2-9.8c-3 47.2-26.6 75-64.2 75-46.8 0-72.6-41.6-72.6-117.1 0-75.5 26.5-117.1 74.7-117.1 3.9-0.2 7.9 0 11.7 0.7 3.9 0.6 7.6 1.6 11.3 3.1 3.6 1.4 7.1 3.2 10.4 5.3 3.2 2.2 6.3 4.6 9 7.4 3.2 3.8 6.1 7.9 8.5 12.2 2.4 4.3 4.5 8.8 6.1 13.5 1.6 4.7 2.7 9.6 3.4 14.5 0.7 4.9 0.9 9.8 0.7 14.8h-31.8q0-4.7-0.7-9.3-0.7-4.6-2.3-9-1.5-4.4-3.7-8.4-2.3-4.1-5.2-7.7-1.8-1.9-4-3.4-2.1-1.5-4.5-2.5-2.4-1-5-1.5-2.5-0.4-5.1-0.4c-25.7 0-39.9 31.3-39.9 88.1 0 57.1 13.7 87.3 39.5 87.3q2.8 0 5.6-0.5 2.7-0.5 5.3-1.6 2.6-1.1 4.9-2.6 2.3-1.6 4.2-3.7 3.2-3.9 5.6-8.3 2.4-4.4 4-9.1 1.5-4.8 2.3-9.7 0.8-5 0.6-10zm205.4 53.7q-0.4 0.4-0.8 0.7-0.4 0.4-0.9 0.7-0.4 0.2-0.9 0.4l5.1 9.4h-6.7l-4.1-8.6h-4.5v8.6h-6v-24.1h12q0.9-0.1 1.7 0 0.9 0.1 1.7 0.4 0.8 0.3 1.5 0.7 0.8 0.4 1.4 0.9c1.5 1.5 2.3 3.5 2.1 5.6q0.1 0.6 0 1.1-0.1 0.6-0.2 1.2-0.1 0.5-0.3 1-0.2 0.6-0.5 1.1-0.3 0.4-0.6 0.9zm-4.2-5.1q0-0.4-0.1-0.7 0-0.4-0.2-0.7-0.1-0.3-0.3-0.6-0.3-0.3-0.6-0.5-0.3-0.2-0.7-0.4-0.4-0.1-0.8-0.2-0.4-0.1-0.9-0.1-0.4-0.1-0.8-0.1h-4.2v6.2h4.2q0.4 0 0.8 0 0.4-0.1 0.9-0.1 0.4-0.1 0.8-0.2 0.4-0.2 0.7-0.3c0.8-0.5 1.3-1.4 1.2-2.3z"/>
	<path id="Layer" fill-rule="evenodd" class="s0" d="m1318.6 308.5q0.5 2.2 0.5 4.5 0 2.2-0.5 4.4-0.4 2.2-1.2 4.3c-1 2.6-2.6 4.9-4.6 6.9-1.9 1.9-4.2 3.4-6.8 4.4q-2 0.8-4.1 1.2-2.2 0.4-4.3 0.4-2.2 0-4.3-0.4-2.2-0.4-4.2-1.2-1-0.4-1.9-0.9-0.9-0.4-1.7-1-0.9-0.5-1.7-1.2-0.8-0.6-1.5-1.3-0.8-0.8-1.4-1.6-0.7-0.8-1.3-1.6-0.5-0.9-1-1.8-0.5-0.9-0.9-1.9-0.8-2.1-1.2-4.3-0.4-2.2-0.4-4.4 0-2.3 0.4-4.5 0.4-2.2 1.2-4.3c1.1-2.5 2.6-4.8 4.6-6.7q0.7-0.7 1.5-1.3 0.8-0.7 1.7-1.2 0.8-0.6 1.7-1 0.9-0.5 1.9-0.9 2-0.8 4.2-1.2 2.1-0.4 4.3-0.4 2.1 0 4.3 0.4 2.1 0.4 4.1 1.2c2.6 1 4.9 2.5 6.8 4.4 2 1.9 3.5 4.2 4.6 6.7q0.8 2.1 1.2 4.3zm-4.4 8.1q0.4-1.8 0.4-3.6 0-1.8-0.4-3.6-0.3-1.7-0.9-3.4c-0.9-2.1-2.1-4-3.6-5.5-1.6-1.6-3.4-2.8-5.4-3.6q-1.6-0.6-3.3-0.9-1.6-0.3-3.3-0.3-1.7 0-3.4 0.3-1.7 0.3-3.2 0.9c-2.1 0.8-3.9 2-5.4 3.6q-0.6 0.6-1.1 1.2-0.5 0.6-1 1.3-0.4 0.7-0.8 1.5-0.4 0.7-0.7 1.5-0.7 1.7-1 3.4-0.3 1.8-0.3 3.6 0 1.8 0.3 3.6 0.3 1.8 1 3.4c0.8 2.1 2 4 3.6 5.5q0.6 0.6 1.2 1.1 0.6 0.6 1.3 1 0.7 0.5 1.4 0.8 0.7 0.4 1.5 0.7 1.5 0.6 3.2 0.9 1.7 0.3 3.4 0.3 1.7 0 3.3-0.3 1.7-0.3 3.3-0.9c2-0.8 3.8-2 5.4-3.6q0.5-0.6 1.1-1.2 0.5-0.6 0.9-1.3 0.5-0.7 0.9-1.5 0.3-0.7 0.7-1.5 0.6-1.6 0.9-3.4z"/>
	<path id="Layer" fill-rule="evenodd" class="s1" d="m1546 32.4v140.1h-29.7v-95.6h-0.4q-0.3 2.1-0.7 4.1-0.4 2.1-0.8 4.1-0.4 2.1-0.9 4.1-0.5 2-1 4-2 7.2-4.3 15l-21 64.2h-27.2l-20.8-64.2-2.2-7.3-1.9-7.1q-0.9-3.6-1.9-8-1-4.3-2.1-10.4h-0.4v97.1h-52.9l-29.8-49-28.7 49h-32.3l44.8-74-40.8-66.1h35.1l25 42.1 23.6-42.1h69l31.2 103h0.4l29-103zm-142.9 125.7v-120l-36.5 60.6z"/>
</svg>