<?xml version="1.0" encoding="UTF-8"?>
<svg version="1.1" xmlns="http://www.w3.org/2000/svg" width="1024" height="1024">
<path d="M0 0 C0.80920898 0.48581543 1.61841797 0.97163086 2.45214844 1.47216797 C18.85199172 11.39629473 34.39312073 22.58093525 49 35 C49.52867676 35.44520996 50.05735352 35.89041992 50.60205078 36.34912109 C62.48612415 46.35800886 73.8628942 56.78800889 84.875 67.75 C85.57665283 68.44697998 86.27830566 69.14395996 87.0012207 69.86206055 C91.53688619 74.41174664 95.82610332 79.11752684 100 84 C101.16015625 85.33804688 101.16015625 85.33804688 102.34375 86.703125 C118.72857756 106.05621842 133.24931962 126.86448702 145.79541016 148.89208984 C146.97912911 150.96347806 148.18194833 153.02283469 149.38671875 155.08203125 C185.80815202 218.09899807 203.20482327 291.78116564 203.25 364.25 C203.25101212 365.72332291 203.25101212 365.72332291 203.25204468 367.22640991 C203.15331722 458.54746491 176.82827367 552.74011345 121 626 C119.92878906 627.45019531 119.92878906 627.45019531 118.8359375 628.9296875 C111.24934377 639.17549966 103.22716232 648.88539999 94.55859375 658.22265625 C92.4704719 660.48930455 90.43993504 662.78332891 88.4375 665.125 C84.21402299 669.9998084 79.59114026 674.47529103 75 679 C72.52523396 681.46704446 70.05830785 683.94083608 67.60546875 686.4296875 C62.57659948 691.51542605 57.47988891 696.40429579 52 701 C51.26136719 701.62777344 50.52273438 702.25554688 49.76171875 702.90234375 C2.99231641 741.96170465 -51.5001033 771.82050483 -110 789 C-110.85094238 789.25587891 -111.70188477 789.51175781 -112.57861328 789.77539062 C-167.19256598 806.09656431 -226.60879242 809.66980815 -283 802 C-284.84803223 801.75056641 -284.84803223 801.75056641 -286.73339844 801.49609375 C-315.98170889 797.3926675 -344.21676111 789.95858563 -372 780 C-373.37623535 779.51345947 -373.37623535 779.51345947 -374.78027344 779.01708984 C-395.90511522 771.49920015 -416.47564887 762.02832648 -436 751 C-436.8235498 750.5354541 -437.64709961 750.0709082 -438.49560547 749.59228516 C-462.55604683 735.91484624 -484.79667065 720.03701656 -506.16357422 702.49560547 C-507.7534446 701.20079745 -509.36147727 699.928351 -510.97265625 698.66015625 C-517.08309948 693.82759658 -522.56453491 688.56279913 -528.015625 683.01416016 C-530.9586616 680.02158568 -533.89765315 677.12807399 -537.125 674.4375 C-542.40955019 669.9563825 -546.93951815 664.70954034 -551.57324219 659.57519531 C-552.83311344 658.18424916 -554.10693281 656.80596428 -555.3828125 655.4296875 C-561.1689717 649.14579418 -566.43267354 642.51326233 -571.64453125 635.75390625 C-572.92216343 634.10071649 -574.20934159 632.45552864 -575.5 630.8125 C-633.52308682 556.42392715 -666.2045719 463.65638072 -667 362 C-666.98211426 361.16001465 -666.96422852 360.3200293 -666.94580078 359.45458984 C-665.56517383 301.29693939 -653.69500095 243.56300206 -629.21630859 190.63085938 C-628.00780778 188.01688812 -626.82564304 185.39206403 -625.64453125 182.765625 C-609.42314534 147.20194522 -586.71145008 113.43340612 -560.3359375 84.58203125 C-559.06521031 83.17743147 -557.80075329 81.76657532 -556.57104492 80.32592773 C-551.67292839 74.60301975 -546.41862217 69.26590111 -541.0847168 63.9543457 C-539.56508332 62.4400742 -538.05087483 60.9205257 -536.53710938 59.40039062 C-531.19718865 54.05643372 -525.76415109 48.88848433 -520 44 C-518.87004542 43.01552487 -517.74110889 42.02987981 -516.61328125 41.04296875 C-495.84538865 23.01612684 -473.02909524 7.38237363 -449 -6 C-448.12907715 -6.49274414 -447.2581543 -6.98548828 -446.36083984 -7.49316406 C-413.47502666 -26.05800873 -378.51705219 -39.52345096 -342 -49 C-341.05817871 -49.24443848 -340.11635742 -49.48887695 -339.14599609 -49.74072266 C-250.74916862 -72.19604566 -156.2699387 -65.10326568 0 0 Z " fill="#E9EEE9" transform="translate(744,119)"/>
<path d="M0 0 C0.80920898 0.48581543 1.61841797 0.97163086 2.45214844 1.47216797 C18.85199172 11.39629473 34.39312073 22.58093525 49 35 C49.52867676 35.44520996 50.05735352 35.89041992 50.60205078 36.34912109 C62.48612415 46.35800886 73.8628942 56.78800889 84.875 67.75 C85.57665283 68.44697998 86.27830566 69.14395996 87.0012207 69.86206055 C91.53688619 74.41174664 95.82610332 79.11752684 100 84 C101.16015625 85.33804688 101.16015625 85.33804688 102.34375 86.703125 C118.72857756 106.05621842 133.24931962 126.86448702 145.79541016 148.89208984 C146.97912911 150.96347806 148.18194833 153.02283469 149.38671875 155.08203125 C185.80815202 218.09899807 203.20482327 291.78116564 203.25 364.25 C203.25101212 365.72332291 203.25101212 365.72332291 203.25204468 367.22640991 C203.15331722 458.54746491 176.82827367 552.74011345 121 626 C119.92878906 627.45019531 119.92878906 627.45019531 118.8359375 628.9296875 C111.24934377 639.17549966 103.22716232 648.88539999 94.55859375 658.22265625 C92.4704719 660.48930455 90.43993504 662.78332891 88.4375 665.125 C84.21402299 669.9998084 79.59114026 674.47529103 75 679 C72.52523396 681.46704446 70.05830785 683.94083608 67.60546875 686.4296875 C62.57659948 691.51542605 57.47988891 696.40429579 52 701 C51.26136719 701.62777344 50.52273438 702.25554688 49.76171875 702.90234375 C2.99231641 741.96170465 -51.5001033 771.82050483 -110 789 C-110.85094238 789.25587891 -111.70188477 789.51175781 -112.57861328 789.77539062 C-167.19256598 806.09656431 -226.60879242 809.66980815 -283 802 C-284.84803223 801.75056641 -284.84803223 801.75056641 -286.73339844 801.49609375 C-315.98170889 797.3926675 -344.21676111 789.95858563 -372 780 C-373.37623535 779.51345947 -373.37623535 779.51345947 -374.78027344 779.01708984 C-395.90511522 771.49920015 -416.47564887 762.02832648 -436 751 C-436.8235498 750.5354541 -437.64709961 750.0709082 -438.49560547 749.59228516 C-462.55604683 735.91484624 -484.79667065 720.03701656 -506.16357422 702.49560547 C-507.7534446 701.20079745 -509.36147727 699.928351 -510.97265625 698.66015625 C-517.08309948 693.82759658 -522.56453491 688.56279913 -528.015625 683.01416016 C-530.9586616 680.02158568 -533.89765315 677.12807399 -537.125 674.4375 C-542.40955019 669.9563825 -546.93951815 664.70954034 -551.57324219 659.57519531 C-552.83311344 658.18424916 -554.10693281 656.80596428 -555.3828125 655.4296875 C-561.1689717 649.14579418 -566.43267354 642.51326233 -571.64453125 635.75390625 C-572.92216343 634.10071649 -574.20934159 632.45552864 -575.5 630.8125 C-633.52308682 556.42392715 -666.2045719 463.65638072 -667 362 C-666.98211426 361.16001465 -666.96422852 360.3200293 -666.94580078 359.45458984 C-665.56517383 301.29693939 -653.69500095 243.56300206 -629.21630859 190.63085938 C-628.00780778 188.01688812 -626.82564304 185.39206403 -625.64453125 182.765625 C-609.42314534 147.20194522 -586.71145008 113.43340612 -560.3359375 84.58203125 C-559.06521031 83.17743147 -557.80075329 81.76657532 -556.57104492 80.32592773 C-551.67292839 74.60301975 -546.41862217 69.26590111 -541.0847168 63.9543457 C-539.56508332 62.4400742 -538.05087483 60.9205257 -536.53710938 59.40039062 C-531.19718865 54.05643372 -525.76415109 48.88848433 -520 44 C-518.87004542 43.01552487 -517.74110889 42.02987981 -516.61328125 41.04296875 C-495.84538865 23.01612684 -473.02909524 7.38237363 -449 -6 C-448.12907715 -6.49274414 -447.2581543 -6.98548828 -446.36083984 -7.49316406 C-413.47502666 -26.05800873 -378.51705219 -39.52345096 -342 -49 C-341.05817871 -49.24443848 -340.11635742 -49.48887695 -339.14599609 -49.74072266 C-250.74916862 -72.19604566 -156.2699387 -65.10326568 0 0 Z M-388 -15 C-388.79204834 -14.67201416 -389.58409668 -14.34402832 -390.40014648 -14.00610352 C-409.94325642 -5.85807264 -428.97949114 2.84405728 -447 14 C-448.13236084 14.69198486 -448.13236084 14.69198486 -449.28759766 15.39794922 C-466.52881036 25.94555666 -482.68211335 37.63221248 -498.22949219 50.53808594 C-499.87412859 51.89606757 -501.53059597 53.23707071 -503.1953125 54.5703125 C-507.82684801 58.29320889 -512.21182702 62.06153719 -516.33984375 66.3359375 C-518.07270705 68.07287813 -519.88313833 69.65845328 -521.75 71.25 C-528.99869039 77.51343151 -535.81310592 84.38625281 -542.01953125 91.68359375 C-543.59967 93.53176393 -545.2017619 95.34957305 -546.82421875 97.16015625 C-555.55618158 106.9701558 -563.35367369 117.33010955 -571 128 C-571.68835938 128.94617188 -572.37671875 129.89234375 -573.0859375 130.8671875 C-577.96117969 137.66506041 -582.35459714 144.7764673 -586.71923828 151.90869141 C-587.54184794 153.2519004 -588.3680463 154.59292184 -589.19873047 155.93115234 C-610.53408313 190.38228198 -625.80005321 228.63027728 -635.60986328 267.88354492 C-636.12416187 269.93415819 -636.64974438 271.98166779 -637.17578125 274.02929688 C-639.35309838 282.62911944 -640.87766366 291.1961217 -642 300 C-642.25389931 301.70410878 -642.51367098 303.40736058 -642.78125 305.109375 C-642.90113281 305.88539063 -643.02101563 306.66140625 -643.14453125 307.4609375 C-643.37914143 308.97172395 -643.61607288 310.48215199 -643.85546875 311.9921875 C-644.26461148 314.65821435 -644.63696376 317.32727995 -645 320 C-645.17354004 321.24604004 -645.34708008 322.49208008 -645.52587891 323.77587891 C-647.22274019 336.79589115 -647.39758381 349.75894186 -647.375 362.875 C-647.37468277 364.58027863 -647.37468277 364.58027863 -647.37435913 366.32000732 C-647.29640329 408.52478126 -641.00517946 450.07825921 -627 490 C-626.51704939 491.43666808 -626.03676185 492.87423308 -625.55859375 494.3125 C-625.17707153 495.45984619 -625.17707153 495.45984619 -624.7878418 496.63037109 C-624.527854 497.41234863 -624.26786621 498.19432617 -624 499 C-620.26290081 510.23113231 -616.32473847 521.13690145 -611.08544922 531.76269531 C-609.8071149 534.39757063 -608.57757886 537.05312379 -607.34765625 539.7109375 C-600.68689928 554.00727807 -593.28207352 567.58476633 -585 581 C-583.98933434 582.66521348 -582.97891258 584.33057504 -581.96875 585.99609375 C-575.7322057 596.17419949 -568.90712882 605.70538537 -561.51220703 615.0703125 C-560.0894547 616.88584921 -558.69351232 618.71800972 -557.30859375 620.5625 C-552.59298828 626.83330033 -547.64223338 632.76238241 -542.3046875 638.515625 C-540.30871488 640.66721582 -538.36107022 642.84640528 -536.4375 645.0625 C-526.65357882 656.27655351 -516.6413302 667.42614511 -505.26953125 677.07421875 C-503.37346671 678.68309967 -501.50205317 680.31289487 -499.63671875 681.95703125 C-481.3311704 698.05304271 -461.61459211 712.01706367 -441 725 C-440.12504883 725.5573584 -440.12504883 725.5573584 -439.23242188 726.12597656 C-419.00118727 738.96097186 -397.30309358 749.33347199 -375 758 C-374.17097168 758.32548828 -373.34194336 758.65097656 -372.48779297 758.98632812 C-349.54169364 767.93862426 -326.04248224 773.89079438 -302 779 C-300.74026367 779.28085449 -300.74026367 779.28085449 -299.45507812 779.56738281 C-257.92029598 788.50768344 -211.69692402 788.25671145 -170 781 C-167.46401445 780.59597947 -164.92754281 780.19499974 -162.390625 779.796875 C-141.43913839 776.43503572 -121.48856414 771.41388433 -101.35253906 764.77392578 C-99.36085213 764.11871121 -97.36450257 763.47769598 -95.3671875 762.83984375 C-37.199276 744.08335009 18.17902322 707.91088479 60.74609375 664.19140625 C63 662 63 662 65.58203125 659.94140625 C67.75403279 658.19748902 69.46225172 656.49682245 71.25 654.375 C73.90795329 651.2625482 76.61599164 648.21087327 79.375 645.1875 C84.10518458 639.93795394 88.58459233 634.5156404 93 629 C93.65403809 628.18740723 93.65403809 628.18740723 94.32128906 627.35839844 C109.92412193 607.94080046 123.36018569 587.01528149 135 565 C135.46905762 564.11779785 135.93811523 563.2355957 136.42138672 562.32666016 C144.35640242 547.28597262 150.84430577 531.93169717 156.83959961 516.0378418 C157.92131889 513.20598128 159.04704907 510.39685206 160.19140625 507.58984375 C161.66903058 503.91839583 162.89903523 500.26115599 163.9375 496.4375 C165.14591045 492.04584489 166.40285984 487.6822115 167.75610352 483.33300781 C174.9823498 459.74152292 178.73738837 435.5945489 181.7298584 411.16897583 C181.99973415 409.00213452 182.28707333 406.83806534 182.57519531 404.67358398 C184.09140686 392.83226908 184.31613161 381.11496233 184.25 369.1875 C184.24723053 368.20676514 184.24446106 367.22603027 184.24160767 366.21557617 C184.16380875 342.63173375 183.00786463 319.27821272 179 296 C178.74694092 294.49904785 178.74694092 294.49904785 178.48876953 292.96777344 C175.90401589 277.88351089 172.35359007 263.32193923 167.83007812 248.70654297 C167.04459289 246.14539904 166.28840213 243.57807946 165.546875 241.00390625 C165.32580078 240.23699463 165.10472656 239.47008301 164.87695312 238.67993164 C164.47873417 237.29531442 164.08148539 235.91041753 163.68554688 234.52514648 C162.3429478 229.9204888 160.73450805 225.46675123 159 221 C158.72687988 220.29004883 158.45375977 219.58009766 158.17236328 218.84863281 C144.37893212 183.21495253 127.03370727 148.8995502 103.35693359 118.73779297 C102.03783631 117.04845608 100.74373212 115.3430025 99.45703125 113.62890625 C90.83952896 102.18149662 81.643325 91.40873172 71.39453125 81.39453125 C69.4113643 79.4113643 67.59174128 77.41290517 65.8125 75.25 C63.27308346 72.20270015 60.46728318 69.69516787 57.4453125 67.1328125 C54.95274232 64.95878164 52.55531326 62.70689569 50.15527344 60.43212891 C42.77992378 53.46337422 35.12541146 47.07285018 27 41 C26.31953613 40.48969238 25.63907227 39.97938477 24.93798828 39.45361328 C9.37207021 27.84184088 -6.87989602 17.37792966 -23.95019531 8.11523438 C-25.34357595 7.35713971 -26.73344735 6.59256679 -28.12011719 5.82226562 C-45.34324794 -3.74015208 -63.44357545 -11.41641943 -82 -18 C-83.22589844 -18.4434375 -84.45179688 -18.886875 -85.71484375 -19.34375 C-89.13971464 -20.57255216 -92.5697393 -21.78633552 -96 -23 C-96.89589844 -23.32871094 -97.79179688 -23.65742187 -98.71484375 -23.99609375 C-124.18178953 -33.00862522 -151.37003631 -37.28907239 -178.0625 -40.75 C-178.8788089 -40.85700226 -179.6951178 -40.96400452 -180.53616333 -41.07424927 C-197.66192817 -43.29825412 -214.67228903 -44.23682693 -231.9375 -44.25 C-232.74993164 -44.25067474 -233.56236328 -44.25134949 -234.39941406 -44.25204468 C-286.38710409 -44.18453639 -339.89992372 -35.10580172 -388 -15 Z " fill="#9DAFA5" transform="translate(744,119)"/>
<path d="M0 0 C36.3 0 72.6 0 110 0 C110 0.66 110 1.32 110 2 C108.80503906 2.36351562 107.61007812 2.72703125 106.37890625 3.1015625 C90.71138458 7.54463675 90.71138458 7.54463675 80 19 C76.69228079 26.16672495 76.85316288 33.38301499 76.85955811 41.12121582 C76.85658698 42.24508587 76.85361586 43.36895593 76.8505547 44.52688265 C76.84187958 48.29462201 76.84036047 52.06232956 76.83886719 55.83007812 C76.83423832 58.5305547 76.82923406 61.2310284 76.82382202 63.9315033 C76.81026234 71.26809209 76.80421829 78.6046754 76.79981136 85.94127464 C76.79704617 90.52274567 76.79280843 95.1042146 76.78830719 99.6856842 C76.77611995 112.37330747 76.76581804 125.06092905 76.7624321 137.74855804 C76.76221253 138.55993104 76.76199297 139.37130404 76.76176675 140.2072641 C76.76154847 141.02055344 76.76133019 141.83384278 76.7611053 142.67177725 C76.76066184 144.31975905 76.76021527 145.96774085 76.75976562 147.61572266 C76.7595442 148.43317485 76.75932277 149.25062704 76.75909463 150.09285051 C76.75514383 163.34805353 76.73767881 176.60320167 76.7144061 189.85838348 C76.69069924 203.47073397 76.67823063 217.0830569 76.67706418 230.69542837 C76.6761473 238.33702684 76.67039118 245.9785537 76.65224457 253.62013245 C76.63685288 260.12436914 76.63171776 266.62851207 76.63998267 273.1327635 C76.64389189 276.4510164 76.64131728 279.76904072 76.62892532 283.08727837 C76.61627686 286.68461076 76.62204429 290.28145563 76.63250732 293.87878418 C76.62445092 294.92722519 76.61639452 295.97566621 76.60809398 297.05587816 C76.65208662 303.50592469 77.23066971 308.23066971 82 313 C85.15870034 313.32228746 85.15870034 313.32228746 88.93383789 313.29052734 C89.64809433 313.29724457 90.36235077 313.30396179 91.09825134 313.31088257 C93.47312306 313.32995759 95.84771253 313.33379423 98.22265625 313.3359375 C99.88301202 313.34236872 101.54336667 313.34909732 103.20372009 313.35610962 C106.69842137 313.36811295 110.1930237 313.3717883 113.68774414 313.37060547 C118.11872706 313.37040435 122.54905348 313.39747475 126.97988224 313.43214989 C130.4196601 313.45466251 133.85928749 313.45843535 137.29913139 313.45738602 C138.92905331 313.45971449 140.55898119 313.46837845 142.18882942 313.48405075 C155.35522653 313.59859164 167.73213183 312.09172959 180 307 C181.57604541 306.67122232 183.16027942 306.3795631 184.75 306.125 C192.72408626 304.60386283 200.69842602 301.66948954 205.52734375 294.83984375 C212.92315879 283.1403515 215.01575127 270.62407455 216 257 C212.68883381 258.6555831 211.93115007 262.3598681 210.5 265.625 C207.65454041 271.8944982 204.50213352 277.76539054 200.6875 283.5 C200.26726562 284.14018066 199.84703125 284.78036133 199.4140625 285.43994141 C196.38810706 289.87063098 196.38810706 289.87063098 193 291 C186.30986309 275.71509736 179.71393274 260.39734176 173.32644653 244.98330688 C157.31705529 199.17708344 157.31705529 199.17708344 122.375 169.125 C120.58650333 168.40870033 118.7959518 167.69739709 117 167 C117 166.34 117 165.68 117 165 C153.3 165 189.6 165 227 165 C227 165.66 227 166.32 227 167 C225.78763672 167.43699219 225.78763672 167.43699219 224.55078125 167.8828125 C217.22234669 170.6939611 212.5972373 172.80552541 209 180 C208.47389441 190.58328681 208.62331929 200.10086384 213.203125 209.8203125 C216.41334351 216.79967927 219.23486332 223.92287265 222.0625 231.0625 C222.58373693 232.37314531 223.10522032 233.68369263 223.62695312 234.99414062 C224.63075388 237.51640647 225.63324187 240.03918045 226.63500977 242.56225586 C230.46469428 252.21655884 230.46469428 252.21655884 234.4375 261.8125 C236.61800516 267.02443916 238.67090461 272.2747768 240.66015625 277.5625 C241.62274751 280.03212188 242.61978278 282.45030479 243.68359375 284.875 C243.96468994 285.53072998 244.24578613 286.18645996 244.53540039 286.86206055 C245.33155914 288.71158432 246.14574385 290.553318 246.9609375 292.39453125 C249.16318798 300.03617484 246.36082324 306.45760492 243.4375 313.5 C242.90177368 314.81049316 242.90177368 314.81049316 242.35522461 316.14746094 C238.96546207 324.31144266 235.16414359 332.20601617 231 340 C230.61102539 340.73395996 230.22205078 341.46791992 229.82128906 342.22412109 C228.62392408 344.4697796 227.40972408 346.70528687 226.1875 348.9375 C225.81439697 349.63069336 225.44129395 350.32388672 225.05688477 351.03808594 C222.35000604 355.88333132 222.35000604 355.88333132 219 357 C218.63648438 356.01902344 218.27296875 355.03804687 217.8984375 354.02734375 C215.22754688 346.84613331 212.51747611 339.68271989 209.6875 332.5625 C209.43339355 331.91853271 209.17928711 331.27456543 208.91748047 330.61108398 C207.83729181 327.57622121 207.83729181 327.57622121 206 325 C203.34489534 324.88977674 200.71524351 324.8450346 198.05918884 324.84178162 C196.79608953 324.83437465 196.79608953 324.83437465 195.50747305 324.82681805 C192.66375692 324.81136427 189.8200635 324.80306123 186.97631836 324.79467773 C184.94663795 324.78510539 182.91695957 324.7750957 180.88728333 324.76467896 C175.35860611 324.73755402 169.8299203 324.71658568 164.30121303 324.69667697 C158.53026545 324.67486405 152.75934461 324.64745248 146.98841858 324.62062073 C136.05201578 324.57063016 125.1155982 324.52571502 114.17916638 324.48259836 C101.73196211 324.43328026 89.28478466 324.37834207 76.83760631 324.32291877 C51.22509588 324.20900106 25.61255974 324.10218345 0 324 C0 323.01 0 322.02 0 321 C0.89460937 320.78085937 1.78921875 320.56171875 2.7109375 320.3359375 C15.88216614 317.04707988 15.88216614 317.04707988 25.875 308.40234375 C33.79202893 293.95757222 32.29291359 277.05037775 32.2746582 261.09106445 C32.27901061 258.57338307 32.28419552 256.05570301 32.29014587 253.5380249 C32.30210424 247.43567645 32.30469487 241.33338873 32.30234561 235.23103086 C32.30055599 230.26908405 32.30232581 225.30715053 32.30657005 220.34520531 C32.30716524 219.63658607 32.30776043 218.92796683 32.30837366 218.19787427 C32.3095855 216.75796253 32.31079964 215.31805078 32.31201603 213.87813904 C32.32286558 200.4079278 32.32074065 186.93774166 32.31463119 173.46752902 C32.30945748 161.15957996 32.32073404 148.85170992 32.33972941 136.54377649 C32.35912249 123.88039021 32.36736166 111.21704129 32.36360615 98.55364007 C32.36169722 91.45416832 32.36415215 84.35476392 32.37832069 77.25530434 C32.39150335 70.58295566 32.38895477 63.91079093 32.37590981 57.23843384 C32.37354498 54.79314813 32.37627531 52.34785126 32.38453293 49.90257835 C32.39500907 46.55879577 32.38689238 43.21554415 32.3742218 39.8717804 C32.38528323 38.42881378 32.38528323 38.42881378 32.39656812 36.95669633 C32.32665224 28.15601133 30.64819103 19.97717716 25 13 C17.98816789 6.82089838 9.03324533 3.91087882 0 2 C0 1.34 0 0.68 0 0 Z " fill="#556257" transform="translate(248,208)"/>
<path d="M0 0 C-0.09518841 25.22492937 -10.92916233 54.06253 -28.625 72.25 C-35.61789806 79.14285335 -43.92950226 84.45140033 -52.37890625 89.390625 C-59.07283504 93.66392096 -62.5062707 100.70661812 -66.43359375 107.37841797 C-68.19786165 110.33114689 -70.0163614 113.24607938 -71.84375 116.16015625 C-87.44371416 141.06540714 -87.44371416 141.06540714 -99 168 C-98.55269531 167.40832031 -98.10539063 166.81664062 -97.64453125 166.20703125 C-93.4731738 160.75491586 -89.2356056 155.90957979 -84 151.4375 C-80.49090743 147.94622009 -79.1678739 143.8327205 -77.3984375 139.28515625 C-70.5758962 123.25790141 -59.09316032 110.22975779 -43.0625 103.25 C-33.460974 99.53643269 -24.89892159 97.7526913 -14.59375 97.25 C-10.64394578 96.97523101 -6.95073331 96.27854591 -3.09765625 95.41015625 C-0.37678087 94.87814151 2.23785078 94.85462373 5 95 C3.29399399 110.6857775 -11.67746053 127.58601387 -23.23583984 137.64550781 C-31.9950612 144.37068912 -43.207707 148.68098089 -54.0625 150.0625 C-54.71299316 150.14773926 -55.36348633 150.23297852 -56.03369141 150.32080078 C-60.31309205 150.86053564 -64.56920655 151.15743347 -68.875 151.375 C-77.69820687 152.03377065 -83.77136402 154.85853384 -89.82421875 161.3359375 C-100.76853697 174.7363415 -107.75317644 188.67617031 -113.28613281 204.95800781 C-113.96147351 206.88979631 -114.69398306 208.80132214 -115.4296875 210.7109375 C-119.40432641 221.26526743 -122.13991957 232.16938344 -124.75 243.125 C-125.06872068 244.43757039 -125.38772999 245.75007072 -125.70703125 247.0625 C-127.37459028 253.46300077 -127.37459028 253.46300077 -128 260 C-122.86303246 250.93640482 -122.86303246 250.93640482 -118.9375 241.3125 C-114.45797703 228.25355169 -106.39452868 218.13988226 -94 212 C-87.05323415 208.75899128 -80.58435461 208.65350664 -73 209 C-75.42070952 221.11848002 -90.04273927 235.3775044 -99.95703125 242.3828125 C-103.98533704 245.03800464 -108.11883703 247.51114405 -112.27050781 249.96728516 C-124.51414418 257.27820862 -128.78970772 266.95371071 -133.1875 280.25 C-133.82461914 282.10044922 -133.82461914 282.10044922 -134.47460938 283.98828125 C-137.15022046 291.90276381 -139.28733439 299.82384596 -141 308 C-140.5452832 307.2378418 -140.09056641 306.47568359 -139.62207031 305.69042969 C-132.20553101 293.38906558 -121.88503498 283.08553793 -107.5625 279.3671875 C-100.32572019 277.97719626 -93.35626468 277.78948686 -86 278 C-85.21875 279.57421875 -85.21875 279.57421875 -85 282 C-86.40935734 284.45144571 -87.8073112 286.57234286 -89.5 288.8125 C-89.96414307 289.43906494 -90.42828613 290.06562988 -90.90649414 290.71118164 C-97.2639689 299.16469656 -103.88788566 304.57036255 -113 310 C-114.10021484 310.75410156 -114.10021484 310.75410156 -115.22265625 311.5234375 C-119.98763845 314.05671917 -125.23714966 315.18747172 -130.43164062 316.57421875 C-143.47616837 320.2562213 -150.61215631 327.55871346 -157.28125 339.10546875 C-165.83142851 353.50474665 -175.73823166 366.87987891 -187.234375 379.046875 C-189.36443323 381.30206349 -191.39055481 383.61465679 -193.375 386 C-202.15528407 396.09838967 -212.67489593 404.61646396 -223.28857422 412.69580078 C-224.98131305 413.98575953 -226.66561407 415.28597718 -228.34765625 416.58984375 C-235.50915107 422.13480814 -242.74016742 427.58455732 -250 433 C-241.70180525 431.60972653 -236.13162888 429.09138873 -229.51171875 423.92578125 C-219.13097056 415.9666695 -206.52768696 413.29171628 -193.6875 413.5 C-191.91898682 413.5148645 -191.91898682 413.5148645 -190.11474609 413.5300293 C-179.24200503 413.76118913 -169.32041669 414.99847708 -160 421 C-161.43543481 425.30630444 -164.64550944 426.38024794 -168.4375 428.4375 C-169.16235596 428.83710937 -169.88721191 429.23671875 -170.6340332 429.6484375 C-181.98710778 435.81323153 -191.17006988 438.18936541 -204.0625 438.25 C-205.13177734 438.270625 -206.20105469 438.29125 -207.30273438 438.3125 C-214.02410818 438.34499002 -219.83841602 437.47819583 -226.30981445 435.68994141 C-235.94330941 433.21927649 -246.26135413 434.2945753 -255 439 C-265.52628399 445.56789696 -274.79838719 453.72297469 -284 462 C-284.88896973 462.79422363 -284.88896973 462.79422363 -285.79589844 463.60449219 C-292.10044492 469.25092943 -298.10079863 474.91830927 -303.51171875 481.453125 C-304.00285156 481.96359375 -304.49398437 482.4740625 -305 483 C-305.66 483 -306.32 483 -307 483 C-307.309375 483.61875 -307.61875 484.2375 -307.9375 484.875 C-308.625 486.25 -309.3125 487.625 -310 489 C-309.29875 488.46890625 -308.5975 487.9378125 -307.875 487.390625 C-299.17965624 480.91637448 -299.17965624 480.91637448 -294.9375 479 C-291.65262646 477.48696734 -289.14517107 475.57424109 -286.375 473.25 C-275.96539084 464.66888921 -263.70158375 457.73594605 -250 457 C-248.23462891 456.90332031 -248.23462891 456.90332031 -246.43359375 456.8046875 C-229.59802684 456.18688749 -215.21459345 461.31780198 -202.36328125 472.2890625 C-201 474 -201 474 -201 478 C-202.04220703 478.12955078 -202.04220703 478.12955078 -203.10546875 478.26171875 C-211.43407381 479.41231184 -219.50466898 481.22169113 -227.6628418 483.23510742 C-241.97688851 486.75981946 -256.99217399 487.64535763 -271.5 484.5 C-281.30091966 482.39119556 -291.89589303 480.93788555 -301 486 C-301.70253906 486.39058594 -302.40507812 486.78117187 -303.12890625 487.18359375 C-320.90539521 498.09681219 -332.18225215 518.17318159 -337.3684082 538.01171875 C-338.46431871 543.1968539 -338.83508131 548.4076861 -339.1875 553.6875 C-339.26935547 554.78255859 -339.35121094 555.87761719 -339.43554688 557.00585938 C-339.63332379 559.67003078 -339.82131568 562.3344919 -340 565 C-344.98731534 557.51902698 -342.89769554 542.63617323 -341.453125 533.96875 C-335.24872904 509.38529433 -316.27678132 486.30434633 -298.0625 469.3125 C-291.70764012 463.14454776 -286.76821716 453.5976297 -285.734375 444.71875 C-285.76808077 439.93253125 -286.21550385 435.41128751 -287 430.6875 C-289.02646591 417.34781435 -289.64985323 402.82459519 -285 390 C-284.6596875 389.05640625 -284.319375 388.1128125 -283.96875 387.140625 C-281.64288749 381.20024642 -278.84271789 375.48735446 -275.9375 369.8125 C-275.60919189 369.15209717 -275.28088379 368.49169434 -274.94262695 367.8112793 C-272.5181615 363.21357265 -272.5181615 363.21357265 -269.75390625 362.07421875 C-269.17511719 362.04972656 -268.59632813 362.02523438 -268 362 C-265.74505809 366.23284809 -264.1702575 370.32250771 -262.875 374.9375 C-262.54242188 376.10152344 -262.20984375 377.26554687 -261.8671875 378.46484375 C-257.067607 398.03070119 -261.80287053 416.10745802 -272 433 C-274.31609208 436.54072982 -276.71844377 440.0174022 -279.23071289 443.421875 C-282.39692858 447.77849626 -284.29614189 451.882765 -286 457 C-283.53410618 457 -280.51281779 453.20826457 -278.625 451.5625 C-274.21497417 447.73616234 -269.76993568 443.99544918 -265.1875 440.375 C-256.24149462 433.0734809 -248.12857251 424.31832221 -244.00390625 413.3515625 C-242.67939805 410.24901801 -240.71008642 408.92558772 -238 407 C-239.94290951 414.05582926 -243.04257152 419.8653455 -247 426 C-246.27296875 425.38253906 -245.5459375 424.76507812 -244.796875 424.12890625 C-239.64786103 419.79185218 -234.48458758 415.55848444 -229.0625 411.5625 C-189.53973825 382.26915894 -157.50771971 342.80688383 -142.74169922 295.36572266 C-142.20341911 293.64882528 -141.65411308 291.9353724 -141.09814453 290.22412109 C-133.85255142 269.37210179 -133.85255142 269.37210179 -137.1875 248.1875 C-138.09690764 246.44339526 -139.03405268 244.71343789 -140 243 C-148.88530107 226.34329858 -150.21419358 211.12553008 -145 193 C-143.68 192.67 -142.36 192.34 -141 192 C-137.08895328 197.6492897 -134.80350965 202.98768766 -132.796875 209.55859375 C-132.22952526 211.92140728 -132.22952526 211.92140728 -131 213 C-129.86933829 219.10557324 -129.68333126 225.24335827 -129.4375 231.4375 C-129.37272461 232.96407227 -129.37272461 232.96407227 -129.30664062 234.52148438 C-129.20131418 237.01421028 -129.09918328 239.50702338 -129 242 C-128.01597374 237.87529311 -127.03760225 233.74929605 -126.06420898 229.62207031 C-125.73303794 228.22132153 -125.40038568 226.82092201 -125.06616211 225.42089844 C-120.76621928 207.39841758 -116.28900031 185.85937446 -126 169 C-127.49428476 166.25810152 -128.96469308 163.50348185 -130.4375 160.75 C-130.82542725 160.03287842 -131.21335449 159.31575684 -131.61303711 158.5769043 C-134.2450264 153.64351108 -136.51903358 148.66640918 -138.5 143.4375 C-138.74290771 142.8074707 -138.98581543 142.17744141 -139.23608398 141.52832031 C-145.92988391 123.10269107 -142.45353162 101.23090001 -137 83 C-136.75991211 82.18837402 -136.51982422 81.37674805 -136.27246094 80.54052734 C-134.91757202 76.003032 -133.49364364 71.49364278 -132 67 C-130.68 67 -129.36 67 -128 67 C-126.140625 69.28125 -126.140625 69.28125 -124.25 72.5 C-123.90928467 73.07878906 -123.56856934 73.65757812 -123.2175293 74.25390625 C-106.31999583 103.44020289 -106.31999583 103.44020289 -106 119 C-105.97035156 119.70543945 -105.94070313 120.41087891 -105.91015625 121.13769531 C-105.29046696 136.37585496 -107.15013536 148.9352611 -113.94921875 162.828125 C-115.83389427 166.72358815 -116.1185443 169.69841793 -116.09765625 173.98046875 C-116.09443359 175.14384766 -116.09121094 176.30722656 -116.08789062 177.50585938 C-116.07951172 178.72080078 -116.07113281 179.93574219 -116.0625 181.1875 C-116.05573242 183.02731445 -116.05573242 183.02731445 -116.04882812 184.90429688 C-116.03703065 187.93624668 -116.02056921 190.96809906 -116 194 C-115.6690332 193.22736816 -115.33806641 192.45473633 -114.99707031 191.65869141 C-108.48723583 176.48625199 -101.89718158 161.37084886 -94.87207031 146.42822266 C-90.82168863 137.77666345 -87.36259262 129.51034032 -86 120 C-85.83242188 119.11828125 -85.66484375 118.2365625 -85.4921875 117.328125 C-84.40086227 107.19838829 -90.31905429 100.15667563 -95.64501953 92.10205078 C-105.70646997 76.49320604 -107.06916481 60.16371266 -103.55761719 42.17944336 C-100.99171085 30.62006373 -96.42296154 19.48836518 -91 9 C-90.01 9 -89.02 9 -88 9 C-83.20828273 17.64147302 -78.59845017 25.99600147 -75.765625 35.51171875 C-74.9990763 38.21340565 -74.9990763 38.21340565 -73.375 41.4375 C-71.27363679 46.88194104 -70.55270146 52.20536159 -70 58 C-69.89582764 59.08571289 -69.89582764 59.08571289 -69.78955078 60.19335938 C-68.51936776 75.56483637 -72.12583039 89.58669933 -79.71875 103.046875 C-81.49673659 107.14491726 -81.56402706 110.95114088 -81.6875 115.375 C-81.72166016 116.20644531 -81.75582031 117.03789062 -81.79101562 117.89453125 C-81.87287146 119.92923351 -81.93812701 121.96459208 -82 124 C-79.9741822 120.91991609 -77.95533399 117.835319 -75.9375 114.75 C-75.37611328 113.89664063 -74.81472656 113.04328125 -74.23632812 112.1640625 C-73.07595448 110.38703314 -71.92864645 108.60141708 -70.79321289 106.80834961 C-69.57629998 104.90254304 -68.32116419 103.02071383 -67.03295898 101.16235352 C-61.82592019 93.21476799 -61.03538512 86.82446042 -61.1875 77.4375 C-61.19878407 55.78336898 -56.24630803 38.90158637 -41.3125 22.75 C-33.07629499 15.03057648 -22.75241063 9.73021578 -12.875 4.4375 C-12.05733154 3.9955127 -11.23966309 3.55352539 -10.3972168 3.09814453 C-9.62418213 2.69321777 -8.85114746 2.28829102 -8.0546875 1.87109375 C-7.36874512 1.50943115 -6.68280273 1.14776855 -5.97607422 0.77514648 C-4 0 -4 0 0 0 Z " fill="#98AAA0" transform="translate(640,216)"/>
<path d="M0 0 C0.94891113 0.18111328 1.89782227 0.36222656 2.87548828 0.54882812 C12.42316614 2.3797421 21.12899406 4.94397204 30 9 C31.9785206 9.77249011 33.9577 10.54329478 35.9375 11.3125 C43.22947461 14.33717639 51.38637633 18.38637633 57 24 C57.24050903 26.21463013 57.24050903 26.21463013 57.22705078 29.00048828 C57.22689972 30.04141632 57.22674866 31.08234436 57.22659302 32.15481567 C57.21627045 33.28192963 57.20594788 34.40904358 57.1953125 35.5703125 C57.19106766 37.29735916 57.19106766 37.29735916 57.18673706 39.05929565 C57.17551408 42.74796812 57.15040556 46.43640053 57.125 50.125 C57.11497294 52.62109025 57.10584662 55.1171843 57.09765625 57.61328125 C57.07556784 63.74226984 57.04206947 69.87111777 57 76 C54 75 54 75 52.52734375 72.3671875 C52.00269531 71.21476562 51.47804688 70.06234375 50.9375 68.875 C40.90343959 47.83119455 25.41127335 28.59731441 5 17 C4.41476562 16.66581055 3.82953125 16.33162109 3.2265625 15.98730469 C-12.18239176 7.33175621 -26.04430857 4.6591073 -43.625 4.5625 C-44.91092041 4.5521875 -46.19684082 4.541875 -47.52172852 4.53125 C-70.73515938 4.74433944 -92.55057283 12.93044135 -109.38671875 29.16796875 C-123.48257456 44.44374672 -133.09209473 63.1652946 -139 83 C-139.19287598 83.64469238 -139.38575195 84.28938477 -139.58447266 84.95361328 C-144.96982581 103.4666451 -146.50758711 122.2723368 -146.39111328 141.47558594 C-146.37497445 144.62999438 -146.39110103 147.78312893 -146.41015625 150.9375 C-146.42334497 163.57740752 -145.43919568 175.60032682 -143 188 C-142.71793701 189.52802246 -142.71793701 189.52802246 -142.43017578 191.08691406 C-136.20639906 223.28053766 -119.93309775 257.40828656 -92.43408203 276.59863281 C-83.52508905 282.50533675 -73.35020602 287.29829181 -63 290 C-62.2575 290.20367188 -61.515 290.40734375 -60.75 290.6171875 C-35.69600597 296.33262989 -8.54972716 290.41330487 13 277 C16.1579861 274.82919935 19.090184 272.49113744 22 270 C22.79921875 269.34515625 23.5984375 268.6903125 24.421875 268.015625 C39.42819423 255.24627262 49.15346239 237.89762351 56.99438477 220.08154297 C57.34428467 219.30439941 57.69418457 218.52725586 58.0546875 217.7265625 C58.35874512 217.03127441 58.66280273 216.33598633 58.97607422 215.61962891 C60 214 60 214 63 213 C62.85970858 217.14604002 62.71175506 221.29177376 62.5625 225.4375 C62.50352539 227.18450195 62.50352539 227.18450195 62.44335938 228.96679688 C62.08531264 238.74422696 62.08531264 238.74422696 61.4375 243.56640625 C60.98873926 247.10807648 61.06195049 250.4666241 61.24609375 254.03125 C61.8925585 270.32614754 61.8925585 270.32614754 58.64453125 274.91503906 C54.999043 278.04957501 50.73173392 279.67933047 46.22412109 281.21875 C44.09658696 281.96607264 42.11279661 282.83566306 40.08203125 283.8125 C36.11742895 285.71015674 32.08569191 287.38168369 28 289 C27.25830566 289.29648437 26.51661133 289.59296875 25.75244141 289.8984375 C11.83014136 295.36801687 -2.29769756 298.41796653 -17 301 C-17.9691333 301.18691406 -18.9382666 301.37382813 -19.93676758 301.56640625 C-60.01031209 308.97579459 -102.47475127 297.69432347 -135.9128418 275.20629883 C-142.99431008 270.21705959 -149.35621978 264.4064031 -155.56738281 258.38574219 C-156.8526861 257.14249382 -158.15573077 255.91764896 -159.4609375 254.6953125 C-175.7397914 239.10188402 -186.84905684 219.21870607 -194 198 C-194.59748047 196.25009766 -194.59748047 196.25009766 -195.20703125 194.46484375 C-207.22871933 155.96842685 -202.15837281 114.10387374 -183.98339844 78.5090332 C-176.54094017 64.37735097 -166.92400378 52.54669506 -156 41 C-155.17242188 40.11828125 -154.34484375 39.2365625 -153.4921875 38.328125 C-112.87374582 -3.72698182 -54.87552871 -10.91518558 0 0 Z " fill="#566258" transform="translate(782,433)"/>
<path d="M0 0 C21.45 0 42.9 0 65 0 C64 3 64 3 61.12109375 4.578125 C59.89541831 5.14021498 58.66740325 5.69722208 57.4375 6.25 C31.63359647 18.67639384 23.22726145 54.31789515 14.3125 79.5625 C13.81169922 81.01849609 13.81169922 81.01849609 13.30078125 82.50390625 C12.23272241 85.37451485 11.09636412 88.17933583 9.90625 91 C6.23794294 99.73918224 2.81912587 108.57689173 -0.62817383 117.4050293 C-1.79794896 120.40024201 -2.97009576 123.39451803 -4.14257812 126.38867188 C-10.1394866 141.71854873 -16.04339793 157.08287753 -21.8125 172.5 C-28.64599571 190.76047899 -35.60054366 208.97567841 -42.5625 227.1875 C-42.83537842 227.90156006 -43.10825684 228.61562012 -43.3894043 229.35131836 C-46.21473918 236.74342639 -49.04759563 244.13242447 -51.90625 251.51171875 C-52.35669678 252.67614502 -52.80714355 253.84057129 -53.27124023 255.0402832 C-54.09640225 257.17128868 -54.92381657 259.30142428 -55.75415039 261.43041992 C-58.04897202 267.35850157 -60.13063031 273.32692662 -62.11352539 279.36621094 C-63.09580474 282.28464376 -64.21027391 285.11360606 -65.4375 287.9375 C-68.12157049 294.2308951 -70.57528825 300.60288815 -73 307 C-73.99 307 -74.98 307 -76 307 C-76.22835541 306.43941895 -76.45671082 305.87883789 -76.69198608 305.30126953 C-79.12538755 299.3281489 -81.56014643 293.35558275 -83.99560547 287.38330078 C-84.89762831 285.17087025 -85.79933416 282.95831044 -86.70068359 280.74560547 C-93.06089175 265.13289338 -99.49717531 249.553819 -106 234 C-108.19179174 228.75177971 -110.37871297 223.50155708 -112.5625 218.25 C-112.82135986 217.6307666 -113.08021973 217.0115332 -113.34692383 216.37353516 C-114.11022705 214.54700045 -114.86963204 212.7188382 -115.62890625 210.890625 C-116.06275635 209.84938477 -116.49660645 208.80814453 -116.94360352 207.73535156 C-117.81774747 205.47191064 -118.60930859 203.39211059 -119 201 C-117.953125 199.0546875 -117.953125 199.0546875 -116.25 196.875 C-113.77234668 193.56654626 -111.5177533 190.24513824 -109.46875 186.66015625 C-104.26895771 177.58207108 -99.47204081 169.21175259 -90 164 C-88.00674982 163.62842924 -86.0067019 163.29027329 -84 163 C-82.41236838 166.76903747 -80.83070927 170.5405547 -79.25 174.3125 C-78.8065625 175.36501953 -78.363125 176.41753906 -77.90625 177.50195312 C-75.48209135 183.29497931 -73.20320772 189.1069552 -71.08984375 195.01977539 C-69.06118615 200.56722686 -66.86917012 206.05126985 -64.68115234 211.53735352 C-63.86455253 213.58874524 -63.05535457 215.64296945 -62.24609375 217.69726562 C-61.72440929 219.00799208 -61.20229033 220.31854569 -60.6796875 221.62890625 C-60.21288574 222.80525635 -59.74608398 223.98160645 -59.26513672 225.19360352 C-58.16905542 228.06696368 -58.16905542 228.06696368 -56 230 C-53.91826291 224.59245374 -51.83697957 219.18473313 -49.75610352 213.77685547 C-49.04919484 211.93989423 -48.3421655 210.10297942 -47.63500977 208.26611328 C-46.614423 205.61503307 -45.59428048 202.96378227 -44.57421875 200.3125 C-44.26159592 199.50071289 -43.94897308 198.68892578 -43.62687683 197.85253906 C-41.98376709 193.58053645 -40.35994914 189.30210941 -38.75691223 185.0149231 C-37.36670236 181.31414267 -35.94807724 177.624248 -34.53125 173.93359375 C-34.20966919 173.09586929 -33.88808838 172.25814484 -33.5567627 171.39503479 C-32.88129995 169.63608382 -32.20563798 167.87720933 -31.52978516 166.1184082 C-30.84266239 164.3295758 -30.15613992 162.5405127 -29.47021484 160.7512207 C-28.47104869 158.14483533 -27.47009641 155.53914215 -26.46875 152.93359375 C-26.16553833 152.14174179 -25.86232666 151.34988983 -25.54992676 150.53404236 C-24.23688681 147.12278407 -22.89093834 143.7475494 -21.44091797 140.39111328 C-19.95883753 136.90312663 -18.70433666 133.3937407 -17.4765625 129.80859375 C-13.49920649 118.36871688 -9.12815188 107.07692899 -4.79492188 95.76831055 C-3.36878712 92.04628519 -1.94585115 88.32305817 -0.5234375 84.59960938 C0.393045 82.20305456 1.30970538 79.80656777 2.2265625 77.41015625 C2.6464444 76.31204117 3.06632629 75.21392609 3.49893188 74.08253479 C5.35796353 69.23272555 7.23576568 64.39356856 9.18041992 59.57739258 C10.53775218 56.20055023 11.79216438 52.82455932 12.88671875 49.3515625 C13.18513672 48.40925781 13.48355469 47.46695313 13.79101562 46.49609375 C14.08685547 45.54863281 14.38269531 44.60117187 14.6875 43.625 C15.14866211 42.16900391 15.14866211 42.16900391 15.61914062 40.68359375 C19.85276314 27.74240476 19.85276314 27.74240476 18.0234375 14.54296875 C14.64919181 8.96407787 11.08525682 6.06303149 4.75 4.3125 C3.85796875 4.06113281 2.9659375 3.80976563 2.046875 3.55078125 C1.37140625 3.36902344 0.6959375 3.18726563 0 3 C0 2.01 0 1.02 0 0 Z " fill="#566358" transform="translate(591,373)"/>
<path d="M0 0 C0.78125 1.57421875 0.78125 1.57421875 1 4 C-0.40935734 6.45144571 -1.8073112 8.57234286 -3.5 10.8125 C-4.1962146 11.75234741 -4.1962146 11.75234741 -4.90649414 12.71118164 C-11.2639689 21.16469656 -17.88788566 26.57036255 -27 32 C-27.73347656 32.50273438 -28.46695313 33.00546875 -29.22265625 33.5234375 C-33.98763845 36.05671917 -39.23714966 37.18747172 -44.43164062 38.57421875 C-57.47616837 42.2562213 -64.61215631 49.55871346 -71.28125 61.10546875 C-79.83142851 75.50474665 -89.73823166 88.87987891 -101.234375 101.046875 C-103.36443323 103.30206349 -105.39055481 105.61465679 -107.375 108 C-116.15528407 118.09838967 -126.67489593 126.61646396 -137.28857422 134.69580078 C-138.98131305 135.98575953 -140.66561407 137.28597718 -142.34765625 138.58984375 C-149.50915107 144.13480814 -156.74016742 149.58455732 -164 155 C-155.70180525 153.60972653 -150.13162888 151.09138873 -143.51171875 145.92578125 C-133.13097056 137.9666695 -120.52768696 135.29171628 -107.6875 135.5 C-106.50849121 135.50990967 -105.32948242 135.51981934 -104.11474609 135.5300293 C-93.24200503 135.76118913 -83.32041669 136.99847708 -74 143 C-75.43543481 147.30630444 -78.64550944 148.38024794 -82.4375 150.4375 C-83.16235596 150.83710937 -83.88721191 151.23671875 -84.6340332 151.6484375 C-95.98710778 157.81323153 -105.17006988 160.18936541 -118.0625 160.25 C-119.13177734 160.270625 -120.20105469 160.29125 -121.30273438 160.3125 C-128.02410818 160.34499002 -133.83841602 159.47819583 -140.30981445 157.68994141 C-149.94330941 155.21927649 -160.26135413 156.2945753 -169 161 C-179.52628399 167.56789696 -188.79838719 175.72297469 -198 184 C-198.88896973 184.79422363 -198.88896973 184.79422363 -199.79589844 185.60449219 C-206.10044492 191.25092943 -212.10079863 196.91830927 -217.51171875 203.453125 C-218.00285156 203.96359375 -218.49398437 204.4740625 -219 205 C-219.66 205 -220.32 205 -221 205 C-221.4640625 205.928125 -221.4640625 205.928125 -221.9375 206.875 C-222.625 208.25 -223.3125 209.625 -224 211 C-222.948125 210.20335937 -222.948125 210.20335937 -221.875 209.390625 C-213.17965624 202.91637448 -213.17965624 202.91637448 -208.9375 201 C-205.65262646 199.48696734 -203.14517107 197.57424109 -200.375 195.25 C-189.96539084 186.66888921 -177.70158375 179.73594605 -164 179 C-162.23462891 178.90332031 -162.23462891 178.90332031 -160.43359375 178.8046875 C-143.59802684 178.18688749 -129.21459345 183.31780198 -116.36328125 194.2890625 C-115 196 -115 196 -115 200 C-116.04220703 200.12955078 -116.04220703 200.12955078 -117.10546875 200.26171875 C-125.43407381 201.41231184 -133.50466898 203.22169113 -141.6628418 205.23510742 C-155.97688851 208.75981946 -170.99217399 209.64535763 -185.5 206.5 C-195.30091966 204.39119556 -205.89589303 202.93788555 -215 208 C-215.70253906 208.39058594 -216.40507812 208.78117188 -217.12890625 209.18359375 C-234.90539521 220.09681219 -246.18225215 240.17318159 -251.3684082 260.01171875 C-252.46431871 265.1968539 -252.83508131 270.4076861 -253.1875 275.6875 C-253.26935547 276.78255859 -253.35121094 277.87761719 -253.43554688 279.00585938 C-253.63332379 281.67003078 -253.82131568 284.3344919 -254 287 C-258.98731534 279.51902698 -256.89769554 264.63617323 -255.453125 255.96875 C-249.24872904 231.38529433 -230.27678132 208.30434633 -212.0625 191.3125 C-205.70764012 185.14454776 -200.76821716 175.5976297 -199.734375 166.71875 C-199.76808077 161.93253125 -200.21550385 157.41128751 -201 152.6875 C-203.02646591 139.34781435 -203.64985323 124.82459519 -199 112 C-198.6596875 111.05640625 -198.319375 110.1128125 -197.96875 109.140625 C-195.64288749 103.20024642 -192.84271789 97.48735446 -189.9375 91.8125 C-189.60919189 91.15209717 -189.28088379 90.49169434 -188.94262695 89.8112793 C-186.5181615 85.21357265 -186.5181615 85.21357265 -183.75390625 84.07421875 C-183.17511719 84.04972656 -182.59632813 84.02523437 -182 84 C-179.74505809 88.23284809 -178.1702575 92.32250771 -176.875 96.9375 C-176.54242188 98.10152344 -176.20984375 99.26554688 -175.8671875 100.46484375 C-171.067607 120.03070119 -175.80287053 138.10745802 -186 155 C-188.31609208 158.54072982 -190.71844377 162.0174022 -193.23071289 165.421875 C-196.39692858 169.77849626 -198.29614189 173.882765 -200 179 C-197.53410618 179 -194.51281779 175.20826457 -192.625 173.5625 C-188.21497417 169.73616234 -183.76993568 165.99544918 -179.1875 162.375 C-170.24149462 155.0734809 -162.12857251 146.31832221 -158.00390625 135.3515625 C-156.67939805 132.24901801 -154.71008642 130.92558772 -152 129 C-153.94290951 136.05582926 -157.04257152 141.8653455 -161 148 C-160.27296875 147.38253906 -159.5459375 146.76507812 -158.796875 146.12890625 C-153.64786103 141.79185218 -148.48458758 137.55848444 -143.0625 133.5625 C-104.93467908 105.30305626 -71.2438259 66.22027845 -57.796875 19.8828125 C-57.28347155 18.22623069 -56.65061633 16.60765195 -56 15 C-55.01 14.67 -54.02 14.34 -53 14 C-53.0721875 14.75925781 -53.144375 15.51851563 -53.21875 16.30078125 C-53.3115625 17.29464844 -53.404375 18.28851562 -53.5 19.3125 C-53.5928125 20.29863281 -53.685625 21.28476562 -53.78125 22.30078125 C-54.04038857 25.04702139 -54.04038857 25.04702139 -54 28 C-53.53851563 27.31035156 -53.07703125 26.62070312 -52.6015625 25.91015625 C-44.20172552 13.80841483 -33.90724497 3.73828181 -19 0.875 C-12.66205113 -0.23176324 -6.41406587 -0.18355037 0 0 Z " fill="#90A297" transform="translate(554,494)"/>
<path d="M0 0 C-0.09518225 25.223296 -10.92830538 54.06457576 -28.625 72.25 C-35.02033603 78.5444829 -42.39873723 83.30042694 -50 88 C-50.90105469 88.57105469 -51.80210937 89.14210938 -52.73046875 89.73046875 C-54.47799634 90.83465875 -56.23703273 91.92063229 -58 93 C-57.4253379 88.21357393 -56.01754357 84.46211213 -53.9375 80.125 C-53.38964844 78.97257812 -52.84179688 77.82015625 -52.27734375 76.6328125 C-51.85582031 75.76398438 -51.43429687 74.89515625 -51 74 C-51.83144531 75.60681641 -51.83144531 75.60681641 -52.6796875 77.24609375 C-53.41115655 78.64338719 -54.14294389 80.04051404 -54.875 81.4375 C-55.23980469 82.14455078 -55.60460937 82.85160156 -55.98046875 83.58007812 C-58.7734375 88.88671875 -58.7734375 88.88671875 -61 90 C-61.05883232 85.72922608 -61.09387308 81.45855861 -61.125 77.1875 C-61.14175781 75.99189453 -61.15851562 74.79628906 -61.17578125 73.56445312 C-61.28460717 53.59489655 -54.89383059 37.43882107 -41.3125 22.75 C-33.07629499 15.03057648 -22.75241063 9.73021578 -12.875 4.4375 C-12.05733154 3.9955127 -11.23966309 3.55352539 -10.3972168 3.09814453 C-9.23766479 2.49075439 -9.23766479 2.49075439 -8.0546875 1.87109375 C-7.36874512 1.50943115 -6.68280273 1.14776855 -5.97607422 0.77514648 C-4 0 -4 0 0 0 Z " fill="#B3C7BB" transform="translate(640,216)"/>
<path d="M0 0 C-1.70600601 15.6857775 -16.67746053 32.58601387 -28.23583984 42.64550781 C-42.50073358 53.5978508 -59.91718417 55.68294594 -77.29296875 56.75390625 C-79.64351644 56.9675924 -81.73851254 57.34692128 -84 58 C-83.52379711 53.62346871 -82.33100111 51.93461995 -78.9375 49.1875 C-78.20402344 48.58292969 -77.47054687 47.97835937 -76.71484375 47.35546875 C-76.14894531 46.90816406 -75.58304688 46.46085937 -75 46 C-75.55429687 46.433125 -76.10859375 46.86625 -76.6796875 47.3125 C-77.40414062 47.869375 -78.12859375 48.42625 -78.875 49 C-79.59429688 49.556875 -80.31359375 50.11375 -81.0546875 50.6875 C-83 52 -83 52 -85 52 C-80.38400905 35.2670328 -69.76371478 20.20340495 -54.68359375 11.390625 C-50.54824974 9.2477102 -46.41660733 7.47678161 -42 6 C-40.74123047 5.56880859 -40.74123047 5.56880859 -39.45703125 5.12890625 C-32.8491951 3.08896865 -26.4819615 2.58601032 -19.59375 2.25 C-15.64394578 1.97523101 -11.95073331 1.27854591 -8.09765625 0.41015625 C-5.37678087 -0.12185849 -2.76214922 -0.14537627 0 0 Z " fill="#B0C4B7" transform="translate(645,311)"/>
<path d="M0 0 C4.62742561 1.46239184 6.17402188 5.23269271 8.3125 9.25 C8.70203857 9.96438232 9.09157715 10.67876465 9.49291992 11.41479492 C10.67721687 13.60210159 11.84174158 15.79880976 13 18 C13.3403125 18.64211426 13.680625 19.28422852 14.03125 19.94580078 C19.66377379 30.64021465 24.61628101 40.7823872 25 53 C25.03109863 53.70833984 25.06219727 54.41667969 25.09423828 55.14648438 C25.71086561 70.37934838 23.847069 82.94097356 17.05078125 96.828125 C15.02882538 101.00733489 14.88291995 104.25202868 14.90234375 108.85546875 C14.90446617 109.84792351 14.90446617 109.84792351 14.90663147 110.86042786 C14.91222004 112.96949828 14.92477035 115.07846177 14.9375 117.1875 C14.94251648 118.61913909 14.94707913 120.05077985 14.95117188 121.48242188 C14.9621857 124.98831588 14.97944245 128.4941475 15 132 C14.34 132.33 13.68 132.66 13 133 C12.97494385 132.11852295 12.9498877 131.2370459 12.92407227 130.32885742 C12.82797904 127.00568796 12.72881599 123.68263771 12.62768555 120.35961914 C12.5848206 118.93126918 12.54312034 117.50288371 12.50268555 116.07446289 C12.26426422 107.68262078 11.86541873 99.35601786 11 91 C11 97.6 11 104.2 11 111 C10.01 111.495 10.01 111.495 9 112 C-7.37761021 79.6276328 -16.82654126 53.34676783 -6 17 C-5.76522949 16.19369141 -5.53045898 15.38738281 -5.28857422 14.55664062 C-1.44768136 1.44768136 -1.44768136 1.44768136 0 0 Z " fill="#B2C7BA" transform="translate(509,282)"/>
<path d="M0 0 C2.99683418 1.40392232 5.57595886 3.0552428 8.25 5 C14.64631138 9.52719836 21.28019976 13.64075177 27.95507812 17.74023438 C29.89800491 18.93716635 31.83220583 20.14716804 33.765625 21.359375 C42.09050024 26.52623412 50.63897071 30.80391442 59.55908203 34.84130859 C61.40643507 35.71823773 63.23218067 36.64087614 65.04638672 37.58447266 C74.11958068 42.29537967 83.31592259 45.87246055 93 49.125 C94.14636429 49.51436234 94.14636429 49.51436234 95.31588745 49.91159058 C107.72033983 54.11289269 120.09736104 57.66478746 133 60 C133.82290527 60.15259277 134.64581055 60.30518555 135.49365234 60.46240234 C147.71709537 62.70164686 159.68502501 64.15878874 172.1328125 64.1328125 C173.16832245 64.13376923 174.2038324 64.13472595 175.27072144 64.13571167 C177.45066387 64.13638823 179.63060838 64.13457074 181.81054688 64.13037109 C185.0950998 64.12504845 188.37951394 64.13031708 191.6640625 64.13671875 C212.72814396 64.39127525 212.72814396 64.39127525 233.52734375 61.55322266 C236.42185463 60.90561586 239.32774875 60.39442034 242.25 59.88671875 C254.68918695 57.6881733 266.91942741 55.31892626 279.00292969 51.61181641 C280.96873066 51.00957958 282.94024061 50.43079578 284.9140625 49.85546875 C306.92860299 43.33141538 328.769981 34.62404698 348.6640625 23.1171875 C349.43492187 22.74851562 350.20578125 22.37984375 351 22 C351.66 22.33 352.32 22.66 353 23 C328.75388744 37.35682157 303.56797552 49.56897817 277 59 C275.80632812 59.43183594 274.61265625 59.86367188 273.3828125 60.30859375 C263.62844442 63.68870451 253.73163319 66.08499131 243.67138672 68.37280273 C240.80009759 69.04693377 237.94633632 69.77754313 235.08984375 70.51171875 C204.73468342 78.10716938 170.73860667 79.12240562 140 73 C139.26942383 72.86609863 138.53884766 72.73219727 137.78613281 72.59423828 C117.13167183 68.78558153 96.85379099 62.22421499 78 53 C77.31260742 52.67 76.62521484 52.34 75.91699219 52 C48.31894525 38.73843263 22.77561196 21.49805076 0 1 C0 0.67 0 0.34 0 0 Z " fill="#899A91" transform="translate(327,745)"/>
<path d="M0 0 C16.83761948 -0.64459086 31.23605246 4.50652036 44.0859375 15.4765625 C45.44921875 17.1875 45.44921875 17.1875 45.44921875 21.1875 C44.75441406 21.27386719 44.05960937 21.36023438 43.34375 21.44921875 C35.01514494 22.59981184 26.94454977 24.40919113 18.78637695 26.42260742 C4.47233024 29.94731946 -10.54295524 30.83285763 -25.05078125 27.6875 C-35.30892775 25.48031684 -44.89454143 24.6326699 -54.55078125 29.1875 C-55.54078125 29.5175 -56.53078125 29.8475 -57.55078125 30.1875 C-57.88078125 29.5275 -58.21078125 28.8675 -58.55078125 28.1875 C-58.02871094 27.919375 -57.50664062 27.65125 -56.96875 27.375 C-52.52272599 25.00793993 -48.41028574 22.43972885 -44.36328125 19.4375 C-30.55988999 9.25340798 -17.61553648 0.93019335 0 0 Z " fill="#A1B6A9" transform="translate(393.55078125,672.8125)"/>
<path d="M0 0 C1.17900879 0.00990967 2.35801758 0.01981934 3.57275391 0.0300293 C14.44549497 0.26118913 24.36708331 1.49847708 33.6875 7.5 C32.25206519 11.80630444 29.04199056 12.88024794 25.25 14.9375 C24.16271606 15.53691406 24.16271606 15.53691406 23.0534668 16.1484375 C11.70039222 22.31323153 2.51743012 24.68936541 -10.375 24.75 C-11.44427734 24.770625 -12.51355469 24.79125 -13.61523438 24.8125 C-20.33677636 24.84499084 -26.13107776 23.96908041 -32.6003418 22.17675781 C-36.2616725 21.26315544 -39.41542035 21.16888001 -43.1875 21.25 C-44.40179688 21.26546875 -45.61609375 21.2809375 -46.8671875 21.296875 C-50.31031537 21.424197 -50.31031537 21.424197 -53.6328125 22.140625 C-54.51710938 22.25921875 -55.40140625 22.3778125 -56.3125 22.5 C-56.9725 21.84 -57.6325 21.18 -58.3125 20.5 C-56.98798828 20.20609375 -56.98798828 20.20609375 -55.63671875 19.90625 C-47.7269598 17.93518225 -42.25935172 15.50407559 -35.75390625 10.390625 C-25.45151258 2.41245134 -12.76873696 -0.20712472 0 0 Z " fill="#96A99E" transform="translate(446.3125,629.5)"/>
<path d="M0 0 C0.23689075 7.04091963 -0.22660931 13.20011978 -2 20 C-2.17144531 20.87914062 -2.34289062 21.75828125 -2.51953125 22.6640625 C-6.77737568 43.04677584 -20.00448521 61.10949691 -36 74 C-36.33 73.34 -36.66 72.68 -37 72 C-36.67 71.01 -36.34 70.02 -36 69 C-36.99 69.495 -36.99 69.495 -38 70 C-38.41353889 48.14773461 -32.53186551 26.42841752 -17.3203125 10.11328125 C-6.21626617 0 -6.21626617 0 0 0 Z " fill="#BBCEC2" transform="translate(436,557)"/>
<path d="M0 0 C0.78125 1.57421875 0.78125 1.57421875 1 4 C-0.40935734 6.45144571 -1.8073112 8.57234286 -3.5 10.8125 C-4.1962146 11.75234741 -4.1962146 11.75234741 -4.90649414 12.71118164 C-11.2639689 21.16469656 -17.88788566 26.57036255 -27 32 C-27.73347656 32.50144531 -28.46695313 33.00289062 -29.22265625 33.51953125 C-33.99655356 36.06426695 -39.23742051 37.22508054 -44.43164062 38.66210938 C-50.00253356 40.25559498 -54.89306909 42.25376422 -60 45 C-60.66 44.34 -61.32 43.68 -62 43 C-60.35 38.71 -58.7 34.42 -57 30 C-56.34 30 -55.68 30 -55 30 C-53.8946653 28.37485926 -52.86646119 26.69701265 -51.875 25 C-44.90784397 13.81814465 -34.56970162 4.74405715 -21.5625 1.3671875 C-14.32572019 -0.02280374 -7.35626468 -0.21051314 0 0 Z " fill="#99ACA1" transform="translate(554,494)"/>
<path d="M0 0 C-0.36866879 9.53008831 -2.88018254 17.29490766 -6.75 25.9375 C-8.25193133 29.06593515 -8.25193133 29.06593515 -8 33 C-9.1015625 34.5703125 -9.1015625 34.5703125 -10.625 36.125 C-13.03455976 38.78111937 -14.94731835 41.39938755 -16.75 44.5 C-25.68343559 59.84778229 -36.0383211 74.13912535 -48.234375 87.046875 C-50.36443323 89.30206349 -52.39055481 91.61465679 -54.375 94 C-63.15653553 104.099829 -73.67810476 112.61924073 -84.29296875 120.70019531 C-85.97146223 121.97827015 -87.64300205 123.26489128 -89.3125 124.5546875 C-90.39581602 125.39064744 -91.47914916 126.22658518 -92.5625 127.0625 C-93.08553711 127.46629883 -93.60857422 127.87009766 -94.14746094 128.28613281 C-96.97936318 130.46626186 -99.82859196 132.61851007 -102.703125 134.7421875 C-103.30697021 135.19327881 -103.91081543 135.64437012 -104.53295898 136.10913086 C-105.69588689 136.97721849 -106.86448594 137.8377737 -108.03930664 138.68969727 C-109.4154286 139.72258918 -110.715956 140.85465797 -112 142 C-112 142.99 -112 143.98 -112 145 C-113.8359375 146.32421875 -113.8359375 146.32421875 -116.375 147.6875 C-121.22056943 150.43675925 -125.41132264 153.59428195 -129.67578125 157.16796875 C-132.0162257 159.01278967 -134.41532864 160.52239142 -137 162 C-134.32217545 156.43836439 -131.8524889 152.59170453 -126.875 148.8125 C-117.61164044 141.42139145 -109.2445009 132.62655533 -105.00390625 121.3515625 C-103.67939805 118.24901801 -101.71008642 116.92558772 -99 115 C-100.94290951 122.05582926 -104.04257152 127.8653455 -108 134 C-106.90945313 133.07380859 -106.90945313 133.07380859 -105.796875 132.12890625 C-100.64786103 127.79185218 -95.48458758 123.55848444 -90.0625 119.5625 C-51.68229918 91.11599822 -18.75442273 52.24639541 -4.70898438 5.8828125 C-4.19076593 4.2381061 -3.60131879 2.61617611 -3 1 C-1 0 -1 0 0 0 Z " fill="#8D9D94" transform="translate(501,508)"/>
<path d="M0 0 C1.87109375 0.08984375 1.87109375 0.08984375 4 1 C14.90608114 17.66577192 17.69223334 41.17084936 14.171875 60.55078125 C13.31166467 64.43410625 12.24150399 68.22220459 11 72 C10.67 72 10.34 72 10 72 C9.9484375 71.25878906 9.896875 70.51757812 9.84375 69.75390625 C8.87525524 60.76231282 5.89959655 53.9309874 1.90625 45.9140625 C-0.18361868 41.71222076 -1.67992249 37.50379386 -3 33 C-3.33 32.01 -3.66 31.02 -4 30 C-4.60873369 20.00271972 -4.05225257 10.63120112 -1 1 C-0.67 0.67 -0.34 0.34 0 0 Z " fill="#ACC0B4" transform="translate(496,408)"/>
<path d="M0 0 C-0.36866879 9.53008831 -2.88018254 17.29490766 -6.75 25.9375 C-8.25193133 29.06593515 -8.25193133 29.06593515 -8 33 C-9.1015625 34.5703125 -9.1015625 34.5703125 -10.625 36.125 C-13.86249331 39.67555281 -16.2039482 43.47489756 -18.609375 47.62109375 C-20.29296601 50.50116939 -22.11680583 53.24763929 -24 56 C-24.99 55.67 -25.98 55.34 -27 55 C-24.57413413 49.04116169 -21.64963712 43.4243696 -18.625 37.75 C-13.12626023 27.31405571 -8.14480782 17.15930055 -4.69775391 5.85986328 C-4.18526806 4.22222054 -3.59836988 2.60825028 -3 1 C-1 0 -1 0 0 0 Z " fill="#79897F" transform="translate(501,508)"/>
<path d="M0 0 C0.66 0.99 1.32 1.98 2 3 C0.82996849 7.81578188 -2.42909949 11.61878191 -5.375 15.5 C-5.90375732 16.20125 -6.43251465 16.9025 -6.97729492 17.625 C-11.44388583 23.45632756 -16.26619825 28.86021584 -21.328125 34.17578125 C-23.49023145 36.4611657 -25.54284456 38.77833958 -27.5625 41.1875 C-31.91978581 46.24932207 -37.00127419 50.58882786 -42 55 C-42.99 54.67 -43.98 54.34 -45 54 C-43.64738766 50.89300927 -42.24756433 49.12460908 -39.625 47 C-23.62887537 33.41345494 -11.82241187 17.19416814 0 0 Z " fill="#8C9A92" transform="translate(474,561)"/>
<path d="M0 0 C0.99 0.66 1.98 1.32 3 2 C2.73733305 3.33496612 2.46427347 4.66788705 2.1875 6 C2.03667969 6.7425 1.88585937 7.485 1.73046875 8.25 C-0.19851892 15.51207124 -3.39591448 22.24390365 -6.625 29 C-7.06086426 29.91338135 -7.49672852 30.8267627 -7.94580078 31.76782227 C-12.98988244 42.21601672 -18.4649853 52.40261294 -25 62 C-25.99 61.34 -26.98 60.68 -28 60 C-27.5153125 59.23558594 -27.030625 58.47117187 -26.53125 57.68359375 C-15.30694312 39.74628795 -5.32810775 20.60982338 0 0 Z " fill="#D2DBD5" transform="translate(496,505)"/>
<path d="M0 0 C0.33 0.66 0.66 1.32 1 2 C-0.17658395 4.78993012 -1.41166408 7.4764531 -2.75 10.1875 C-3.47510256 11.68043438 -4.19907423 13.1739186 -4.921875 14.66796875 C-5.462677 15.77652222 -5.462677 15.77652222 -6.0144043 16.9074707 C-6.84781817 18.67690106 -7.59260393 20.48766448 -8.31640625 22.3046875 C-10.64487524 27.83619399 -14.03816252 32.84865078 -17.1875 37.9375 C-17.84169922 39.00291016 -18.49589844 40.06832031 -19.16992188 41.16601562 C-20.77578808 43.77994382 -22.38590585 46.3911475 -24 49 C-25.32 48.34 -26.64 47.68 -28 47 C-27.05640625 45.49373047 -27.05640625 45.49373047 -26.09375 43.95703125 C-23.83072194 40.34276906 -21.57301438 36.72520672 -19.31640625 33.10693359 C-18.18370938 31.29403041 -17.04550919 29.48456776 -15.90625 27.67578125 C-10.25962905 18.63887353 -5.11766712 9.3439373 0 0 Z " fill="#8E9E94" transform="translate(590,287)"/>
<path d="M0 0 C0.495 1.485 0.495 1.485 1 3 C0.030625 3.350625 -0.93875 3.70125 -1.9375 4.0625 C-11.89276166 8.43392494 -17.14491188 15.48959898 -22.375 24.75 C-23.56672926 26.80936941 -24.76189572 28.86675462 -25.9609375 30.921875 C-26.47446777 31.82518555 -26.98799805 32.72849609 -27.51708984 33.65917969 C-28.85151979 35.76561931 -30.1579379 37.33713216 -32 39 C-32.66 38.34 -33.32 37.68 -34 37 C-33.27296875 35.92685547 -33.27296875 35.92685547 -32.53125 34.83203125 C-28.8605322 29.37536806 -25.34005692 23.91616799 -22 18.25 C-17.43810163 10.81018527 -9.92340591 0 0 0 Z " fill="#DAE0DA" transform="translate(506,533)"/>
<path d="M0 0 C0.66 0.33 1.32 0.66 2 1 C-6.85782524 6.24497344 -15.8936043 11.13899535 -25 15.9375 C-26.08595459 16.51717529 -27.17190918 17.09685059 -28.29077148 17.6940918 C-29.32919189 18.23718994 -30.3676123 18.78028809 -31.4375 19.33984375 C-32.36433594 19.82831787 -33.29117188 20.31679199 -34.24609375 20.82006836 C-37.1781334 22.07632258 -39.84474594 22.60297935 -43 23 C-38.61718286 17.70487973 -33.40121825 15.72999068 -27.125 13.1875 C-19.28687529 9.91723166 -11.70381993 6.49252195 -4.34228516 2.2487793 C-2.92385485 1.44566398 -1.46514754 0.71433987 0 0 Z " fill="#94A19A" transform="translate(678,767)"/>
<path d="M0 0 C0.66 0.33 1.32 0.66 2 1 C1.36191406 1.53109375 0.72382812 2.0621875 0.06640625 2.609375 C-0.75988281 3.31578125 -1.58617187 4.0221875 -2.4375 4.75 C-3.26121094 5.44609375 -4.08492187 6.1421875 -4.93359375 6.859375 C-7.11577142 9.11992956 -7.32157695 10.07017303 -8 13 C-9.6015625 14.421875 -9.6015625 14.421875 -11.625 15.75 C-16.14922395 18.934923 -19.52644204 22.72318176 -23 27 C-23.99 26.34 -24.98 25.68 -26 25 C-22.83459299 21.11107139 -19.59300948 17.50746163 -16 14 C-15.48695313 13.46503906 -14.97390625 12.93007813 -14.4453125 12.37890625 C-9.97964825 7.75889877 -5.14648837 3.83944371 0 0 Z " fill="#9CAEA4" transform="translate(569,356)"/>
<path d="M0 0 C0.99 0.495 0.99 0.495 2 1 C3.83277126 9.9119212 3.31372231 19.59645243 3.5625 28.6875 C3.60581078 30.17904546 3.64942848 31.67058205 3.69335938 33.16210938 C3.79910473 36.77464429 3.90071966 40.38728094 4 44 C3.34 44 2.68 44 2 44 C0.48054933 29.28436269 -0.27478819 14.79276397 0 0 Z " fill="#99ACA1" transform="translate(519,372)"/>
<path d="M0 0 C0.66 0.99 1.32 1.98 2 3 C0.91017745 6.95881326 -1.24469939 10.00652694 -3.625 13.3125 C-4.25664062 14.19550781 -4.88828125 15.07851563 -5.5390625 15.98828125 C-6.26222656 16.98408203 -6.26222656 16.98408203 -7 18 C-7.99 17.67 -8.98 17.34 -10 17 C-9.42000976 12.73970809 -6.87612107 9.64838465 -4.4375 6.25 C-4.01275391 5.64800781 -3.58800781 5.04601562 -3.15039062 4.42578125 C-2.10564478 2.94670286 -1.05353984 1.47282741 0 0 Z " fill="#87978D" transform="translate(474,561)"/>
<path d="M0 0 C2.36008817 3.54013225 2.23463644 5.01121955 2.1953125 9.19921875 C2.18886719 10.40771484 2.18242188 11.61621094 2.17578125 12.86132812 C2.15902344 14.12396484 2.14226563 15.38660156 2.125 16.6875 C2.11597656 17.96173828 2.10695313 19.23597656 2.09765625 20.54882812 C2.07405641 23.69940627 2.04113194 26.84960983 2 30 C1.34 30 0.68 30 0 30 C-1.5226617 19.91236623 -1.0959533 10.11799743 0 0 Z " fill="#899C91" transform="translate(556,312)"/>
<path d="M0 0 C1.32 0.33 2.64 0.66 4 1 C2.89309248 7.40593286 1.66054831 13.71363856 0 20 C-1.5625 19 -1.5625 19 -3 17 C-2.7004974 11.20961639 -1.34240847 5.6302957 0 0 Z " fill="#96A69D" transform="translate(514,445)"/>
<path d="M0 0 C0.99 0.66 1.98 1.32 3 2 C1.63746417 5.11824121 0.14891747 7.04737351 -2.4375 9.25 C-3.03433594 9.77078125 -3.63117188 10.2915625 -4.24609375 10.828125 C-6 12 -6 12 -9 12 C-8.28915988 7.20182918 -5.43648083 4.15716511 -1.75 1.1875 C-1.1725 0.795625 -0.595 0.40375 0 0 Z " fill="#85958D" transform="translate(325,706)"/>
<path d="M0 0 C-0.11512153 1.72985242 -0.24255677 3.45888751 -0.375 5.1875 C-0.44460938 6.15042969 -0.51421875 7.11335937 -0.5859375 8.10546875 C-1.00215853 11.01508938 -1.79874096 13.32890774 -3 16 C-4.32 16 -5.64 16 -7 16 C-6.43215818 10.5487185 -5.17545909 6.04706509 -3 1 C-1 0 -1 0 0 0 Z " fill="#78877E" transform="translate(501,508)"/>
<path d="M0 0 C3.14178863 1.46664732 5.86904531 3.23487298 8.6875 5.25 C13.400711 8.59056708 18.17742174 11.81989404 23 15 C22.01 16.485 22.01 16.485 21 18 C5.03690037 5.55719557 5.03690037 5.55719557 0 1 C0 0.67 0 0.34 0 0 Z " fill="#98A59F" transform="translate(327,745)"/>
<path d="M0 0 C0.33 0.66 0.66 1.32 1 2 C0.41088867 3.72412109 0.41088867 3.72412109 -0.58203125 5.7734375 C-0.93716797 6.5159375 -1.29230469 7.2584375 -1.65820312 8.0234375 C-2.03912109 8.79945313 -2.42003906 9.57546875 -2.8125 10.375 C-3.18181641 11.14328125 -3.55113281 11.9115625 -3.93164062 12.703125 C-5.59244265 16.14996009 -7.28510803 19.57977243 -9 23 C-9.66 23 -10.32 23 -11 23 C-11.66 23.33 -12.32 23.66 -13 24 C-11.6440085 20.05529746 -9.67624936 16.81829004 -7.44140625 13.3359375 C-4.76655436 9.00108267 -2.40188605 4.49012376 0 0 Z " fill="#98ABA1" transform="translate(590,287)"/>
<path d="M0 0 C0.33 0.66 0.66 1.32 1 2 C0.02131869 4.43931143 -1.01300766 6.72052024 -2.1875 9.0625 C-2.49236328 9.71283203 -2.79722656 10.36316406 -3.11132812 11.03320312 C-5.46610341 15.77731015 -5.46610341 15.77731015 -8.23828125 16.93359375 C-8.81964844 16.95550781 -9.40101563 16.97742188 -10 17 C-9.09467357 14.91171371 -8.17525492 12.82953333 -7.25 10.75 C-6.73953125 9.58984375 -6.2290625 8.4296875 -5.703125 7.234375 C-4.0946733 4.17979241 -2.57327928 2.26001049 0 0 Z " fill="#99AAA1" transform="translate(401,623)"/>
<path d="M0 0 C0.33 0.99 0.66 1.98 1 3 C-0.03125 3.4125 -1.0625 3.825 -2.125 4.25 C-5.74548759 5.79110368 -8.7920077 7.73093228 -12 10 C-12.66 9.34 -13.32 8.68 -14 8 C-4.91891892 0 -4.91891892 0 0 0 Z " fill="#CBD6CD" transform="translate(506,533)"/>
<path d="M0 0 C0.99 0 1.98 0 3 0 C1.50902342 3.7952131 -0.75700849 5.61042731 -4 8 C-4 4.0521912 -2.66275435 2.81491174 0 0 Z M-7 5 C-6.34 5.99 -5.68 6.98 -5 8 C-6.65 9.98 -8.3 11.96 -10 14 C-10.33 13.34 -10.66 12.68 -11 12 C-10.22265625 10.2734375 -10.22265625 10.2734375 -9.0625 8.375 C-8.381875 7.26125 -7.70125 6.1475 -7 5 Z " fill="#849388" transform="translate(491,538)"/>
<path d="M0 0 C0.33 0.66 0.66 1.32 1 2 C-0.07826365 3.27513763 -1.16285519 4.54492569 -2.25 5.8125 C-2.85328125 6.52019531 -3.4565625 7.22789062 -4.078125 7.95703125 C-5.92370398 9.91889671 -7.79945332 11.45669625 -10 13 C-10 9 -10 9 -7.8125 6.640625 C-6.884375 5.85171875 -5.95625 5.0628125 -5 4.25 C-4.071875 3.45078125 -3.14375 2.6515625 -2.1875 1.828125 C-1.465625 1.22484375 -0.74375 0.6215625 0 0 Z " fill="#86958C" transform="translate(458,586)"/>
<path d="M0 0 C1.32 0.33 2.64 0.66 4 1 C3.71758359 2.46015291 3.42373386 3.91809793 3.125 5.375 C2.96257812 6.18710937 2.80015625 6.99921875 2.6328125 7.8359375 C2 10 2 10 0 12 C-0.66 11.34 -1.32 10.68 -2 10 C-1.62916167 6.5882874 -0.89141824 3.31098205 0 0 Z " fill="#96A69D" transform="translate(501,499)"/>
<path d="M0 0 C0.66 0.99 1.32 1.98 2 3 C1.4375 5.5625 1.4375 5.5625 0 8 C-2.625 9.3125 -2.625 9.3125 -5 10 C-4.38545304 6.00544473 -2.29353263 3.25533664 0 0 Z " fill="#828F86" transform="translate(474,561)"/>
<path d="M0 0 C0.75 1.625 0.75 1.625 1 4 C-0.9375 7.25 -0.9375 7.25 -3 10 C-3.99 9.67 -4.98 9.34 -6 9 C-3.375 2.25 -3.375 2.25 0 0 Z " fill="#76857C" transform="translate(480,554)"/>
<path d="M0 0 C1.15242188 0.11085938 2.30484375 0.22171875 3.4921875 0.3359375 C4.36101562 0.43132813 5.22984375 0.52671875 6.125 0.625 C6.125 0.955 6.125 1.285 6.125 1.625 C5.03832031 1.71587891 5.03832031 1.71587891 3.9296875 1.80859375 C-2.28216575 2.34425167 -2.28216575 2.34425167 -8.4375 3.3125 C-9.241875 3.415625 -10.04625 3.51875 -10.875 3.625 C-11.535 2.965 -12.195 2.305 -12.875 1.625 C-8.28267665 -0.20355428 -4.90141732 -0.50014462 0 0 Z " fill="#A6B5AC" transform="translate(400.875,648.375)"/>
<path d="M0 0 C0 0.99 0 1.98 0 3 C-2 4.6875 -2 4.6875 -4 6 C-2.84826645 3.53199953 -1.95216435 1.95216435 0 0 Z M-8 8 C-7.34 8.33 -6.68 8.66 -6 9 C-7.45255699 12.82946843 -9.42895561 14.12050295 -13 16 C-11.62845496 13.04590299 -10.01136276 10.55991624 -8 8 Z " fill="#D7E0D9" transform="translate(341,691)"/>
<path d="M0 0 C0.33 0 0.66 0 1 0 C1.38281159 5.23175837 0.21854707 8.37802694 -2 13 C-2.33 13 -2.66 13 -3 13 C-3 10.03 -3 7.06 -3 4 C-2.34 4 -1.68 4 -1 4 C-0.67 2.68 -0.34 1.36 0 0 Z " fill="#87988E" transform="translate(510,470)"/>
<path d="M0 0 C0.33 0.99 0.66 1.98 1 3 C-0.21484375 4.82421875 -0.21484375 4.82421875 -1.9375 6.6875 C-2.50339844 7.31011719 -3.06929687 7.93273437 -3.65234375 8.57421875 C-4.09707031 9.04472656 -4.54179688 9.51523437 -5 10 C-5.99 9.34 -6.98 8.68 -8 8 C-3.375 2.25 -3.375 2.25 0 0 Z " fill="#95A49D" transform="translate(551,373)"/>
<path d="M0 0 C0.33 0.99 0.66 1.98 1 3 C2.32 3 3.64 3 5 3 C4.34 4.32 3.68 5.64 3 7 C1.35 6.67 -0.3 6.34 -2 6 C-1.125 1.125 -1.125 1.125 0 0 Z " fill="#87958D" transform="translate(351,673)"/>
<path d="M0 0 C1.485 0.99 1.485 0.99 3 2 C3.22137393 4.62697064 3.28162025 7.00893964 3.1875 9.625 C3.16719727 10.68460937 3.16719727 10.68460937 3.14648438 11.765625 C3.1111104 13.51074128 3.05730221 15.25546608 3 17 C2.34 17 1.68 17 1 17 C0.1679418 11.27959989 -0.12036664 5.77759884 0 0 Z " fill="#9DADA3" transform="translate(555,325)"/>
<path d="M0 0 C0.66 0.33 1.32 0.66 2 1 C1.3125 3.875 1.3125 3.875 0 7 C-2.625 8.375 -2.625 8.375 -5 9 C-3.90931332 5.22454612 -3.0916909 2.52956528 0 0 Z " fill="#8F9E94" transform="translate(543,371)"/>
<path d="M0 0 C-1 3 -1 3 -3.06640625 4.16796875 C-3.89011719 4.50441406 -4.71382813 4.84085938 -5.5625 5.1875 C-6.38878906 5.53167969 -7.21507812 5.87585938 -8.06640625 6.23046875 C-8.70449219 6.48441406 -9.34257812 6.73835937 -10 7 C-10.33 6.34 -10.66 5.68 -11 5 C-9.54462432 4.16151196 -8.08559627 3.32936066 -6.625 2.5 C-5.81289063 2.0359375 -5.00078125 1.571875 -4.1640625 1.09375 C-2 0 -2 0 0 0 Z " fill="#9DABA4" transform="translate(346,696)"/>
<path d="M0 0 C0.66 0.33 1.32 0.66 2 1 C1.42647107 4.87132028 -0.48704352 7.08172796 -3 10 C-3.66 9.34 -4.32 8.68 -5 8 C-3.35 5.36 -1.7 2.72 0 0 Z " fill="#CED7D0" transform="translate(473,557)"/>
<path d="M0 0 C0.99 0.66 1.98 1.32 3 2 C2.34 4.97 1.68 7.94 1 11 C0.01 10.34 -0.98 9.68 -2 9 C-1.34 6.03 -0.68 3.06 0 0 Z " fill="#C6D0C9" transform="translate(496,505)"/>
<path d="M0 0 C-0.33 3.63 -0.66 7.26 -1 11 C-4.18072289 6.22891566 -4.18072289 6.22891566 -3.6875 2.875 C-2.94178952 0.84124413 -2.31473931 0 0 0 Z " fill="#86958C" transform="translate(501,508)"/>
<path d="M0 0 C0.99 0.33 1.98 0.66 3 1 C1.02 3.31 -0.96 5.62 -3 8 C-3.33 6.68 -3.66 5.36 -4 4 C-2.0625 1.75 -2.0625 1.75 0 0 Z " fill="#DFE5DE" transform="translate(491,542)"/>
<path d="M0 0 C4.04420651 1.77945087 7.46078487 4.39529673 11 7 C10.34 7.66 9.68 8.32 9 9 C7.49704815 7.69088122 5.99770689 6.37761608 4.5 5.0625 C3.6646875 4.33160156 2.829375 3.60070312 1.96875 2.84765625 C1.3190625 2.23792969 0.669375 1.62820313 0 1 C0 0.67 0 0.34 0 0 Z " fill="#ACB6AF" transform="translate(327,745)"/>
<path d="M0 0 C1.0326802 2.78823655 1.04509293 3.8677274 0.0625 6.75 C-0.288125 7.4925 -0.63875 8.235 -1 9 C-1.66 8.67 -2.32 8.34 -3 8 C-2.25 2.25 -2.25 2.25 0 0 Z " fill="#DAE3DD" transform="translate(495,513)"/>
<path d="M0 0 C0.99 0.33 1.98 0.66 3 1 C2.34 2.98 1.68 4.96 1 7 C0.01 7 -0.98 7 -2 7 C-1.34 4.69 -0.68 2.38 0 0 Z " fill="#9AA8A0" transform="translate(353,666)"/>
<path d="M0 0 C-1.39332574 3.36720387 -2.9789286 4.9859524 -6 7 C-6 4 -6 4 -4.125 1.8125 C-2 0 -2 0 0 0 Z " fill="#95A298" transform="translate(446,601)"/>
<path d="M0 0 C0.66 0.99 1.32 1.98 2 3 C0.68 5.31 -0.64 7.62 -2 10 C-2.33 10 -2.66 10 -3 10 C-3.36629408 5.72656908 -2.40814077 3.51187196 0 0 Z " fill="#D2DBD3" transform="translate(486,548)"/>
</svg>
